<svg width="36" height="36" viewBox="0 0 36 36" fill="none" xmlns="http://www.w3.org/2000/svg">
<path d="M34.9409 18.002C34.9409 8.66602 27.3337 1.05882 17.9978 1.05882C8.6618 1.05882 1.05859 8.66602 1.05859 18.002C1.05859 23.1442 3.3916 27.7701 7.02111 30.8794C7.06513 30.9235 7.10914 30.9675 7.19318 31.0075C10.1304 33.4726 13.892 34.9412 18.0418 34.9412C22.1035 34.9412 25.8651 33.4726 28.8024 31.0955C28.9744 31.0515 29.1065 30.9235 29.1905 30.7914C32.696 27.6381 34.9409 23.1002 34.9409 18.002ZM2.61524 18.002C2.61524 9.53041 9.53018 2.61547 18.0018 2.61547C26.4733 2.61547 33.3883 9.53041 33.3883 18.002C33.3883 22.1518 31.7476 25.9093 29.0665 28.6785C28.6343 26.6456 27.3377 23.1882 23.36 20.9433C24.2684 19.8188 24.7847 18.3502 24.7847 16.7935C24.7847 13.0759 21.7594 10.0507 18.0418 10.0507C14.3242 10.0507 11.2989 13.0759 11.2989 16.7935C11.2989 18.3502 11.8591 19.7748 12.7235 20.9433C8.70986 23.1882 7.41331 26.6457 7.0251 28.6785C4.29995 25.9534 2.61524 22.1518 2.61524 18.002ZM12.8155 16.8335C12.8155 13.9803 15.1486 11.6473 18.0018 11.6473C20.855 11.6473 23.188 13.9803 23.188 16.8335C23.188 19.6867 20.855 22.0197 18.0018 22.0197C15.1486 22.0197 12.8155 19.6867 12.8155 16.8335ZM8.40569 30.0151C8.49372 28.7626 9.182 24.5248 13.852 22.1478C15.0205 23.0562 16.4451 23.5724 18.0018 23.5724C19.5584 23.5724 21.027 23.0122 22.1955 22.1038C26.8215 24.4808 27.5538 28.6305 27.6859 29.9711C25.0487 32.088 21.6793 33.3845 18.0498 33.3845C14.3723 33.3885 11.0428 32.136 8.40569 30.0151Z" fill="#3F50A9"/>
</svg>
