<svg width="35" height="35" viewBox="0 0 35 35" fill="none" xmlns="http://www.w3.org/2000/svg">
<path d="M11.3477 22.627C11.914 22.627 12.373 22.1679 12.373 21.6016C12.373 21.0353 11.914 20.5762 11.3477 20.5762C10.7813 20.5762 10.3223 21.0353 10.3223 21.6016C10.3223 22.1679 10.7813 22.627 11.3477 22.627Z" fill="#3F50A9"/>
<path d="M23.6523 22.627C24.2187 22.627 24.6777 22.1679 24.6777 21.6016C24.6777 21.0353 24.2187 20.5762 23.6523 20.5762C23.086 20.5762 22.627 21.0353 22.627 21.6016C22.627 22.1679 23.086 22.627 23.6523 22.627Z" fill="#3F50A9"/>
<path d="M17.5 0C7.86413 0 0 7.86468 0 17.5C0 27.1359 7.86468 35 17.5 35C27.1359 35 35 27.1353 35 17.5C35 7.86413 27.1353 0 17.5 0ZM17.5 32.9492C8.98126 32.9492 2.05078 26.0187 2.05078 17.5C2.05078 8.98126 8.98126 2.05078 17.5 2.05078C26.0187 2.05078 32.9492 8.98126 32.9492 17.5C32.9492 26.0187 26.0187 32.9492 17.5 32.9492Z" fill="#3F50A9"/>
<path d="M17.5 4.16992C10.1415 4.16992 4.16992 10.1545 4.16992 17.5C4.16992 21.2794 5.78922 24.8979 8.6126 27.4278C9.03431 27.8057 9.68263 27.7702 10.0606 27.3485C10.4385 26.9267 10.4029 26.2784 9.98122 25.9005C7.84827 23.9893 6.52818 21.3448 6.26876 18.5254H7.24609C7.81238 18.5254 8.27148 18.0663 8.27148 17.5C8.27148 16.9337 7.81238 16.4746 7.24609 16.4746H6.2678C6.47985 14.1333 7.40988 11.9963 8.83613 10.2862L9.52437 10.9745C9.92476 11.3749 10.574 11.3749 10.9745 10.9745C11.3749 10.574 11.3749 9.92482 10.9745 9.52437L10.2862 8.83613C11.9963 7.40988 14.1333 6.47979 16.4746 6.2678V7.24609C16.4746 7.81238 16.9337 8.27148 17.5 8.27148C18.0663 8.27148 18.5254 7.81238 18.5254 7.24609V6.2678C20.8667 6.47979 23.0037 7.40988 24.7138 8.83613L24.0255 9.52437C23.6251 9.92482 23.6251 10.574 24.0255 10.9745C24.4259 11.3749 25.0752 11.3749 25.4756 10.9745L26.1639 10.2862C27.5901 11.9963 28.5201 14.1333 28.7322 16.4746H27.7539C27.1876 16.4746 26.7285 16.9337 26.7285 17.5C26.7285 18.0663 27.1876 18.5186 27.7539 18.5186H28.7312C28.4718 21.338 27.1517 23.9893 25.0188 25.9005C24.5971 26.2784 24.5616 26.9267 24.9395 27.3484C25.3179 27.7706 25.966 27.8053 26.3875 27.4278C29.2108 24.8979 30.8301 21.2794 30.8301 17.5C30.8301 10.1575 24.8554 4.16992 17.5 4.16992Z" fill="#3F50A9"/>
<path d="M18.5254 14.6002V11.3477C18.5254 10.7814 18.0663 10.3223 17.5 10.3223C16.9337 10.3223 16.4746 10.7814 16.4746 11.3477V14.6002C15.2811 15.0235 14.4238 16.1632 14.4238 17.5C14.4238 19.1962 15.8038 20.5762 17.5 20.5762C19.1962 20.5762 20.5762 19.1962 20.5762 17.5C20.5762 16.1632 19.7189 15.0235 18.5254 14.6002ZM17.5 18.5254C16.9346 18.5254 16.4746 18.0654 16.4746 17.5C16.4746 16.9346 16.9346 16.4746 17.5 16.4746C18.0654 16.4746 18.5254 16.9346 18.5254 17.5C18.5254 18.0654 18.0654 18.5254 17.5 18.5254Z" fill="#3F50A9"/>
</svg>
