<svg width="37" height="36" viewBox="0 0 37 36" fill="none" xmlns="http://www.w3.org/2000/svg">
<path d="M32.986 6.6953C32.9754 6.24536 32.6441 5.85725 32.1813 5.79575C30.0243 5.5075 27.897 5.00603 25.8115 4.26287C23.736 3.52326 21.4395 2.49079 18.9625 1.13099C18.648 0.958232 18.3522 0.957171 18.038 1.13099C15.5782 2.4901 13.2981 3.5204 11.2062 4.26287C9.12008 5.00321 6.99376 5.50787 4.85389 5.79575C4.39108 5.85795 4.06635 6.24536 4.01484 6.6953C3.80957 15.2415 5.7335 22.2342 9.76807 27.6698C11.966 30.6307 14.7165 33.034 18.038 34.8665C18.2948 35.0499 18.6974 35.0361 18.9969 34.8665C22.2932 33.0035 25.0401 30.6176 27.2329 27.6698C31.2728 22.2377 33.1811 15.2418 32.986 6.6953ZM25.6917 26.6203C23.7856 29.182 21.3942 31.3181 18.5004 33.034C15.6067 31.3181 13.2039 29.1899 11.3091 26.6203C7.63877 21.6428 5.84709 15.2749 5.91537 7.51167C7.93573 7.19502 9.93932 6.66187 11.9425 5.94541C13.9457 5.22926 16.1374 4.24618 18.5004 2.99693C20.8634 4.24618 23.0379 5.22926 25.0412 5.94541C27.0444 6.66192 29.0647 7.19502 31.0855 7.51167C31.1538 15.325 29.3507 21.7018 25.6917 26.6203Z" fill="#3F50A9"/>
</svg>
