<svg width="31" height="31" viewBox="0 0 31 31" fill="none" xmlns="http://www.w3.org/2000/svg">
<path fill-rule="evenodd" clip-rule="evenodd" d="M27.125 2.90625H23.25H3.875C1.73503 2.90625 0 4.64128 0 6.78125V24.2188C0 26.3587 1.73503 28.0938 3.875 28.0938H23.25H27.125C29.265 28.0938 31 26.3587 31 24.2188V6.78125C31 4.64128 29.265 2.90625 27.125 2.90625ZM25.1875 24.2188C25.1875 25.2868 24.318 26.1562 23.25 26.1562H3.875C2.80695 26.1562 1.9375 25.2868 1.9375 24.2188V6.78125C1.9375 5.7132 2.80695 4.84375 3.875 4.84375H23.25C24.318 4.84375 25.1875 5.7132 25.1875 6.78125V10.6562H22.2812C19.6058 10.6562 17.4375 12.8246 17.4375 15.5C17.4375 18.1754 19.6058 20.3438 22.2812 20.3438H25.1875V24.2188ZM29.0625 24.2188C29.0625 25.2868 28.193 26.1562 27.125 26.1562H26.5876C26.9206 25.584 27.125 24.9284 27.125 24.2188V20.3438H29.0625V24.2188ZM29.0625 18.4062H22.2812C20.6787 18.4062 19.375 17.1026 19.375 15.5C19.375 13.8974 20.6787 12.5938 22.2812 12.5938H29.0625V18.4062ZM29.0625 10.6562H27.125V6.78125C27.125 6.07164 26.9206 5.41604 26.5876 4.84375H27.125C28.193 4.84375 29.0625 5.7132 29.0625 6.78125V10.6562ZM21.3125 15.5C21.3125 16.0355 21.7458 16.4688 22.2812 16.4688C22.8167 16.4688 23.25 16.0355 23.25 15.5C23.25 14.9645 22.8167 14.5312 22.2812 14.5312C21.7458 14.5312 21.3125 14.9645 21.3125 15.5Z" fill="#3F50A9"/>
</svg>
