<svg width="87" height="87" viewBox="0 0 87 87" fill="none" xmlns="http://www.w3.org/2000/svg">
<path d="M43.5 87C67.5244 87 87 67.5244 87 43.5C87 19.4756 67.5244 0 43.5 0C19.4756 0 0 19.4756 0 43.5C0 67.5244 19.4756 87 43.5 87Z" fill="#616161"/>
<path d="M43.5 71.1809C28.2102 71.1809 15.8191 58.7898 15.8191 43.5C15.8191 28.2102 28.2102 15.8191 43.5 15.8191C51.1414 15.8191 58.0608 18.9178 63.0732 23.9268L74.2585 12.7415C66.3857 4.86877 55.5089 0 43.5 0C19.4751 0 0 19.4751 0 43.5C0 67.5249 19.4751 87 43.5 87C55.5125 87 66.3857 82.1312 74.262 74.262L63.0768 63.0768C58.0608 68.0822 51.1414 71.1809 43.5 71.1809Z" fill="#9E9E9E"/>
<path d="M71.1805 43.5H57.3383C57.3383 35.8585 51.1411 29.6578 43.4962 29.6578C35.8512 29.6578 29.6575 35.855 29.6575 43.5C29.6575 47.2225 31.1297 50.5981 33.5237 53.0903L33.5132 53.1008L50.6503 70.2379L50.6538 70.2414C62.4735 67.0867 71.1805 56.3116 71.1805 43.5Z" fill="#424242"/>
<path d="M86.9961 43.5H71.177C71.177 56.3116 62.4665 67.0867 50.6538 70.2415L62.8696 82.4572C77.171 75.3311 86.9961 60.5635 86.9961 43.5Z" fill="#616161"/>
<path d="M43.5 86.5021C19.5592 86.5021 0.14021 67.1602 0.00350525 43.251C0.00350525 43.3351 0 43.4157 0 43.4998C0 67.5247 19.4751 86.9998 43.5 86.9998C67.5249 86.9998 87 67.5247 87 43.4998C87 43.4157 86.9965 43.3351 86.9965 43.251C86.8598 67.1602 67.4373 86.5021 43.5 86.5021Z" fill="#212121" fill-opacity="0.1"/>
<path d="M50.6577 70.2415L51.0433 70.627C62.6596 67.3461 71.1809 56.6692 71.1809 43.9942V43.5C71.1809 56.3116 62.4703 67.0867 50.6577 70.2415Z" fill="white" fill-opacity="0.05"/>
<path d="M79.0907 39.5443H43.4986C41.3148 39.5443 39.5447 41.3144 39.5447 43.4982C39.5447 45.6819 41.3148 47.4521 43.4986 47.4521H79.0872C81.271 47.4521 83.0411 45.6819 83.0411 43.4982C83.0446 41.3144 81.2745 39.5443 79.0907 39.5443Z" fill="#9E9E9E"/>
<path opacity="0.5" d="M79.0907 39.5443H43.4986C41.3148 39.5443 39.5447 41.3144 39.5447 43.4982C39.5447 45.6819 41.3148 47.4521 43.4986 47.4521H79.0872C81.271 47.4521 83.0411 45.6819 83.0411 43.4982C83.0446 41.3144 81.2745 39.5443 79.0907 39.5443Z" fill="#BDBDBD"/>
<path d="M7.9083 46.4653C9.54606 46.4653 10.8737 45.1376 10.8737 43.4999C10.8737 41.8621 9.54606 40.5344 7.9083 40.5344C6.27054 40.5344 4.94287 41.8621 4.94287 43.4999C4.94287 45.1376 6.27054 46.4653 7.9083 46.4653Z" fill="#BDBDBD"/>
<path d="M43.5003 10.8732C45.1381 10.8732 46.4658 9.54558 46.4658 7.90781C46.4658 6.27005 45.1381 4.94238 43.5003 4.94238C41.8626 4.94238 40.5349 6.27005 40.5349 7.90781C40.5349 9.54558 41.8626 10.8732 43.5003 10.8732Z" fill="#BDBDBD"/>
<path d="M43.5003 82.0542C45.1381 82.0542 46.4658 80.7266 46.4658 79.0888C46.4658 77.451 45.1381 76.1234 43.5003 76.1234C41.8626 76.1234 40.5349 77.451 40.5349 79.0888C40.5349 80.7266 41.8626 82.0542 43.5003 82.0542Z" fill="#BDBDBD"/>
<path d="M18.2909 21.2977C19.9286 21.2977 21.2563 19.97 21.2563 18.3323C21.2563 16.6945 19.9286 15.3668 18.2909 15.3668C16.6531 15.3668 15.3254 16.6945 15.3254 18.3323C15.3254 19.97 16.6531 21.2977 18.2909 21.2977Z" fill="#BDBDBD"/>
<path d="M18.2909 71.6751C19.9286 71.6751 21.2563 70.3474 21.2563 68.7096C21.2563 67.0719 19.9286 65.7442 18.2909 65.7442C16.6531 65.7442 15.3254 67.0719 15.3254 68.7096C15.3254 70.3474 16.6531 71.6751 18.2909 71.6751Z" fill="#BDBDBD"/>
<path d="M68.7098 71.6752C70.3476 71.6752 71.6752 70.3476 71.6752 68.7098C71.6752 67.0721 70.3476 65.7444 68.7098 65.7444C67.0721 65.7444 65.7444 67.0721 65.7444 68.7098C65.7444 70.3476 67.0721 71.6752 68.7098 71.6752Z" fill="#757575"/>
<path d="M43.4998 40.0404H79.0885C81.1881 40.0404 82.9057 41.6808 83.0284 43.7489C83.0319 43.6648 83.0424 43.5841 83.0424 43.5C83.0424 41.3163 81.2723 39.5461 79.0885 39.5461H43.4998C41.316 39.5461 39.5459 41.3163 39.5459 43.5C39.5459 43.5841 39.5494 43.6648 39.5599 43.7489C39.6826 41.6808 41.3967 40.0404 43.4998 40.0404Z" fill="white" fill-opacity="0.2"/>
<path d="M83.0284 43.7455C82.8987 45.8101 81.1846 47.4541 79.0885 47.4541H43.4998C41.4002 47.4541 39.6826 45.8136 39.5599 43.7455C39.5494 43.8297 39.5459 43.9103 39.5459 43.9909C39.5459 46.1747 41.316 47.9448 43.4998 47.9448H79.0885C81.2723 47.9448 83.0424 46.1747 83.0424 43.9909C83.0424 43.9103 83.0389 43.8297 83.0284 43.7455Z" fill="#212121" fill-opacity="0.2"/>
<path d="M43.5 16.3134C51.1414 16.3134 58.0607 19.4121 63.0732 24.4211L74.5003 12.987C74.4161 12.9028 74.3355 12.8187 74.2549 12.7381L63.0732 23.9233C58.0607 18.9143 51.1414 15.8157 43.5 15.8157C28.2101 15.8157 15.8191 28.2067 15.8191 43.4966C15.8191 43.5807 15.8226 43.6613 15.8226 43.7454C15.9558 28.5713 28.2942 16.3134 43.5 16.3134Z" fill="#212121" fill-opacity="0.1"/>
<path d="M43.5 87C67.5244 87 87 67.5244 87 43.5C87 19.4756 67.5244 0 43.5 0C19.4756 0 0 19.4756 0 43.5C0 67.5244 19.4756 87 43.5 87Z" fill="url(#paint0_radial)"/>
<defs>
<radialGradient id="paint0_radial" cx="0" cy="0" r="1" gradientUnits="userSpaceOnUse" gradientTransform="translate(12.7566 12.6576) scale(86.8498)">
<stop stop-color="white" stop-opacity="0.1"/>
<stop offset="1" stop-color="white" stop-opacity="0"/>
</radialGradient>
</defs>
</svg>
