<svg width="61" height="61" viewBox="0 0 61 61" fill="none" xmlns="http://www.w3.org/2000/svg">
<path d="M55.916 33.0425H5.08398V35.584H55.916V33.0425Z" fill="#697BDC"/>
<path d="M40.6562 54.4884L39.3854 44.3221C39.3059 43.6862 38.7655 43.2091 38.1248 43.2089H22.8752C22.2345 43.2091 21.6941 43.6862 21.6146 44.3221L20.3438 54.4884C20.3372 54.5406 20.334 54.5932 20.334 54.6457C20.3337 55.3475 20.9026 55.9166 21.6045 55.9169H39.3956C39.4482 55.9169 39.5007 55.9135 39.5529 55.9071C40.2492 55.8199 40.7432 55.1848 40.6562 54.4884ZM23.0441 53.3752L23.9972 45.7504H37.0026L37.9557 53.3752H23.0441Z" fill="#697BDC"/>
<path d="M43.2079 53.3751H17.792C17.0901 53.3751 16.5211 53.9441 16.5211 54.646V58.4584C16.5211 59.8621 17.659 60.9999 19.0627 60.9999H41.9371C43.3407 60.9999 44.4786 59.8621 44.4786 58.4584V54.646C44.4787 53.944 43.9099 53.3751 43.2079 53.3751ZM41.9372 58.4583H19.0628V55.9167H41.9372V58.4583Z" fill="#697BDC"/>
<path d="M57.1868 0.00183105V2.54339C57.8886 2.54339 58.4576 3.11239 58.4576 3.81423V41.9382C58.4576 42.64 57.8886 43.209 57.1868 43.209H3.81325C3.11141 43.209 2.54241 42.64 2.54241 41.9382V3.81423C2.54241 3.11239 3.11141 2.54339 3.81325 2.54339V0.00183105C1.70774 0.00183105 0.000854492 1.70871 0.000854492 3.81423V41.9382C0.000854492 44.0437 1.70774 45.7506 3.81325 45.7506H57.1868C59.2923 45.7506 60.9992 44.0437 60.9992 41.9382V3.81423C60.9992 1.70859 59.2923 0.00183105 57.1868 0.00183105Z" fill="#697BDC"/>
<path d="M47.0203 58.4584H13.9796V60.9999H47.0203V58.4584Z" fill="#697BDC"/>
<path d="M50.8328 0.00174222H10.1672V2.5433H50.8328C50.9083 2.53591 50.9844 2.53591 51.0599 2.5433C51.6991 2.60609 52.1663 3.17497 52.1036 3.81414V20.3344H54.6452V3.81414C54.6473 3.74194 54.6473 3.66962 54.6452 3.59743C54.5853 1.55172 52.8785 -0.0581839 50.8328 0.00174222Z" fill="#697BDC"/>
<path d="M9.95058 0.00160835C7.90487 0.0614153 6.29497 1.7683 6.35489 3.814V20.3343H8.89645V3.82925C8.88823 3.75193 8.88775 3.6739 8.89502 3.59646C8.95542 2.95431 9.52502 2.48276 10.1672 2.54317V0.00160835C10.095 -0.000536118 10.0228 -0.000536118 9.95058 0.00160835Z" fill="#697BDC"/>
<path d="M53.3744 6.35559H7.62561V8.89715H53.3744V6.35559Z" fill="#697BDC"/>
<path d="M39.3955 20.3344V16.522C39.3977 16.4498 39.3977 16.3775 39.3955 16.3053C39.3357 14.2596 37.6288 12.6497 35.5831 12.7096H33.0416C32.9694 12.7075 32.897 12.7075 32.8248 12.7096C30.7791 12.7694 29.1692 14.4763 29.2292 16.522V30.5008H31.7707V24.1468H35.5831C35.6553 24.149 35.7276 24.149 35.7998 24.1468C37.8455 24.087 39.4554 22.3801 39.3955 20.3344ZM36.8554 20.552C36.795 21.1941 36.2254 21.6657 35.5832 21.6053H31.7708V16.522C31.7635 16.4465 31.7635 16.3704 31.7708 16.2948C31.8335 15.6557 32.4025 15.1885 33.0417 15.2512H35.5832C35.6588 15.2438 35.7349 15.2438 35.8104 15.2512C36.4496 15.3139 36.9167 15.8829 36.8541 16.522V20.3192C36.8622 20.3966 36.8627 20.4745 36.8554 20.552Z" fill="#697BDC"/>
<path d="M44.4787 12.7095H41.9371V30.5006H44.4787V12.7095Z" fill="#697BDC"/>
<path d="M22.8752 12.7095H20.3337C20.2615 12.7074 20.1892 12.7074 20.117 12.7095C18.0713 12.7693 16.4613 14.4762 16.5213 16.5219V30.5006H19.0628V16.5219C19.0554 16.4464 19.0554 16.3702 19.0628 16.2947C19.1255 15.6555 19.6945 15.1884 20.3337 15.2511H22.8752C22.9508 15.2437 23.0269 15.2437 23.1024 15.2511C23.7416 15.3137 24.2087 15.8827 24.1461 16.5219V30.5006H26.6876V16.5219C26.6898 16.4497 26.6898 16.3774 26.6876 16.3052C26.6278 14.2596 24.9209 12.6497 22.8752 12.7095Z" fill="#697BDC"/>
<path d="M25.4168 20.3344H17.792V22.8759H25.4168V20.3344Z" fill="#697BDC"/>
<path d="M8.8963 27.9592H6.35474V30.5008H8.8963V27.9592Z" fill="#697BDC"/>
<path d="M54.6451 27.9592H52.1035V30.5008H54.6451V27.9592Z" fill="#697BDC"/>
<path d="M54.6451 22.876H52.1035V25.4175H54.6451V22.876Z" fill="#697BDC"/>
<path d="M8.8963 22.876H6.35474V25.4175H8.8963V22.876Z" fill="#697BDC"/>
</svg>
