<svg width="67" height="67" viewBox="0 0 67 67" fill="none" xmlns="http://www.w3.org/2000/svg">
<path d="M24.1199 0.383418C23.8766 0.14002 23.539 0 23.1948 0C22.8492 0 22.513 0.14002 22.2696 0.383418C22.0262 0.626816 21.8862 0.964434 21.8862 1.30859C21.8862 1.65406 22.0261 1.99037 22.2696 2.23377C22.5132 2.47717 22.8507 2.61719 23.1948 2.61719C23.539 2.61719 23.8766 2.47717 24.1199 2.23377C24.3633 1.99037 24.5034 1.65275 24.5034 1.30859C24.5034 0.964434 24.3634 0.626816 24.1199 0.383418Z" fill="#8394EC"/>
<path d="M66.9976 24.4058C66.9784 24.0233 66.793 23.6526 66.4585 23.4106L59.9336 18.6893V3.92578C59.9336 1.76111 58.1725 0 56.0078 0H28.3311C27.6084 0 27.0225 0.585857 27.0225 1.30859C27.0225 2.03133 27.6084 2.61719 28.3311 2.61719H56.0078C56.7294 2.61719 57.3164 3.20422 57.3164 3.92578V29.6192L41.3428 42.6612L37.3356 39.7618C35.0414 38.1017 31.9585 38.1017 29.6645 39.7618L25.6572 42.6613L9.68359 29.6194V3.92578C9.68359 3.20422 10.2706 2.61719 10.9922 2.61719H18.124C18.8466 2.61719 19.4326 2.03133 19.4326 1.30859C19.4326 0.585857 18.8466 0 18.124 0H10.9922C8.82751 0 7.06641 1.76111 7.06641 3.92578V18.6892L0.541496 23.4106C0.541889 23.4109 0.542281 23.411 0.542805 23.4113C0.214348 23.649 0 24.0344 0 24.4707V60.457C0 64.0648 2.93518 67 6.54297 67H60.457C64.0648 67 67 64.0648 67 60.457V24.4707C67 24.447 66.9992 24.4256 66.9976 24.4058ZM59.9336 21.9197L63.5457 24.5333L59.9336 27.4824V21.9197ZM7.06641 21.9197V27.4824L3.45429 24.5333L7.06641 21.9197ZM2.61719 27.2284L23.4633 44.2488L2.61719 59.3326V27.2284ZM60.457 64.3828H6.54297C5.02356 64.3828 3.70397 63.5146 3.05164 62.2486L31.1987 41.8821C32.5751 40.8861 34.4249 40.8861 35.8013 41.8821L58.217 58.1016H45.1465C44.4239 58.1016 43.8379 58.6874 43.8379 59.4102C43.8379 60.1329 44.4239 60.7188 45.1465 60.7188H61.8339L63.9484 62.2486C63.296 63.5146 61.9764 64.3828 60.457 64.3828ZM64.3828 59.3326L43.5367 44.2487L64.3828 27.2284V59.3326Z" fill="#8394EC"/>
<path d="M39.9493 15.6164C39.4382 15.1054 38.6098 15.1054 38.0985 15.6164L31.6773 22.0378L28.9014 19.2619C28.3902 18.7509 27.5619 18.7509 27.0506 19.2619C26.5396 19.7729 26.5396 20.6015 27.0506 21.1126L30.752 24.8137C30.9975 25.0591 31.3302 25.197 31.6773 25.197C32.0243 25.197 32.3571 25.0591 32.6026 24.8137L39.9493 17.467C40.4603 16.956 40.4603 16.1274 39.9493 15.6164Z" fill="#8394EC"/>
<path d="M33.5 7.06641C26.2499 7.06641 20.3514 12.9649 20.3514 20.215C20.3514 27.4652 26.2499 33.3638 33.5 33.3638C40.7501 33.3638 46.6486 27.4653 46.6486 20.2152C46.6486 12.965 40.7501 7.06641 33.5 7.06641ZM33.5 30.7466C27.6929 30.7466 22.9686 26.0222 22.9686 20.2152C22.9686 14.4081 27.6929 9.68359 33.5 9.68359C39.3071 9.68359 44.0314 14.408 44.0314 20.215C44.0314 26.022 39.3071 30.7466 33.5 30.7466Z" fill="#8394EC"/>
<path d="M40.1398 58.485C39.8964 58.2416 39.5588 58.1016 39.2146 58.1016C38.8691 58.1016 38.5328 58.2416 38.2894 58.485C38.0447 58.7284 37.906 59.066 37.906 59.4102C37.906 59.7543 38.0447 60.0919 38.2894 60.3353C38.5328 60.5787 38.8693 60.7188 39.2146 60.7188C39.5588 60.7188 39.8964 60.5787 40.1398 60.3353C40.383 60.0919 40.5232 59.7543 40.5232 59.4102C40.5232 59.066 40.3832 58.7284 40.1398 58.485Z" fill="#8394EC"/>
</svg>
