<svg width="148" height="31" viewBox="0 0 148 31" fill="none" xmlns="http://www.w3.org/2000/svg">
<g opacity="0.4" clip-path="url(#clip0)">
<path d="M30.4397 19.2488C28.376 27.5539 19.9923 32.606 11.7134 30.5357C3.43875 28.4655 -1.59882 20.0548 0.465846 11.7517C2.52858 3.44658 10.9118 -1.6069 19.1879 0.463314C27.4659 2.53353 32.5029 10.9452 30.4392 19.2488H30.4397Z" fill="#C7C7C7"/>
<path d="M22.2639 13.2917C22.5714 11.2293 21.006 10.1205 18.8656 9.38088L19.5599 6.58701L17.8646 6.16318L17.1886 8.88343C16.7371 8.77213 16.2845 8.66524 15.8308 8.56277L16.5117 5.8246L14.8169 5.40077L14.1225 8.19368C13.7536 8.1094 13.3915 8.02608 13.04 7.93841L13.0419 7.92969L10.7039 7.34408L10.253 9.16049C10.253 9.16049 11.5108 9.44966 11.4842 9.46758C12.1708 9.63954 12.2949 10.0953 12.2742 10.4567L11.4833 13.6395C11.5306 13.6516 11.5919 13.6695 11.6595 13.6962L11.4804 13.6516L10.3717 18.1103C10.2877 18.3195 10.0748 18.6334 9.59435 18.5143C9.61174 18.539 8.3626 18.2057 8.3626 18.2057L7.521 20.1529L9.72714 20.7051C10.1376 20.8078 10.5398 20.9158 10.9357 21.0175L10.2341 23.8433L11.9275 24.2672L12.6218 21.4709C13.0844 21.5973 13.5334 21.7131 13.9728 21.823L13.2804 24.6058L14.9752 25.0296L15.6773 22.2091C18.5681 22.7579 20.7419 22.5365 21.6569 19.9141C22.3942 17.8022 21.6202 16.584 20.0992 15.7892C21.2069 15.5324 22.0413 14.8015 22.2639 13.2917ZM18.39 18.74C17.8661 20.8519 14.3215 19.7107 13.1723 19.4239L14.1032 15.6802C15.2524 15.9684 18.9375 16.538 18.39 18.74ZM18.9143 13.2617C18.4363 15.1822 15.4861 14.2062 14.5291 13.9669L15.3731 10.5715C16.3301 10.8108 19.4121 11.2573 18.9143 13.2612V13.2617Z" fill="#F2F2F2"/>
<path d="M45.2813 9.37799C46.5343 9.37799 47.6169 9.60322 48.5261 10.0455C49.4406 10.492 50.1948 11.0936 50.7998 11.8502C51.3966 12.6107 51.8408 13.4995 52.1276 14.5182C52.4125 15.5402 52.5555 16.6378 52.5555 17.8129C52.5555 19.6196 52.2257 21.3246 51.5598 22.9327C50.8935 24.5433 49.9906 25.9407 48.8414 27.1323C47.6932 28.3224 46.3373 29.2601 44.7738 29.9533C43.2128 30.6469 41.5156 30.9937 39.6933 30.9937C39.4577 30.9937 39.0434 30.9869 38.4582 30.9748C37.8729 30.9627 37.2003 30.9022 36.4471 30.8004C35.6374 30.6845 34.8343 30.5263 34.0411 30.3267C33.2109 30.1256 32.4043 29.8366 31.635 29.4645L38.4007 0.945501L44.4605 0.00387573L42.038 10.1239C42.5418 9.89551 43.0647 9.71203 43.6005 9.57561C44.1505 9.44149 44.7148 9.37513 45.2808 9.37799H45.2813ZM40.1984 26.1713C41.1109 26.1713 41.9704 25.946 42.7787 25.5043C43.5912 25.0587 44.3041 24.4511 44.8738 23.7189C45.4691 22.9554 45.9375 22.1004 46.261 21.187C46.6002 20.2429 46.7725 19.2466 46.7699 18.243C46.7699 16.9875 46.5609 16.01 46.1442 15.3014C45.7275 14.5966 44.9564 14.2421 43.8361 14.2421C43.4692 14.2421 42.997 14.3123 42.4108 14.4378C41.8227 14.571 41.2964 14.8475 40.8246 15.2636L38.2447 26.0109C38.4002 26.0385 38.5378 26.0647 38.6552 26.0894C38.7701 26.116 38.8966 26.1349 39.0236 26.148C39.1573 26.163 39.3104 26.1708 39.4953 26.1708L40.1979 26.1713H40.1984ZM58.8397 30.4483H53.0518L57.9397 9.81538H63.7672L58.8397 30.4483ZM61.6562 7.30147C60.8666 7.30804 60.0968 7.05336 59.466 6.57684C58.8108 6.09634 58.4858 5.3567 58.4858 4.35986C58.4858 3.81155 58.5969 3.29714 58.8175 2.8118C59.0308 2.34164 59.3298 1.91565 59.6992 1.55581C60.0694 1.20131 60.4994 0.915464 60.9691 0.711548C61.458 0.50198 61.9846 0.395473 62.5162 0.398641C63.3235 0.398641 64.0516 0.63986 64.7044 1.12327C65.3544 1.60909 65.6812 2.34874 65.6812 3.34025C65.6844 3.87544 65.5707 4.40484 65.3481 4.89122C65.1369 5.36183 64.8387 5.78801 64.4693 6.1472C64.0999 6.50217 63.6697 6.78735 63.1994 6.98905C62.7156 7.2012 62.2028 7.30147 61.6562 7.30147ZM68.8396 4.6747L74.9017 3.73259L73.4131 9.81441H79.9055L78.7332 14.5991H72.2799L70.5609 21.8162C70.4026 22.4174 70.3127 22.9792 70.2876 23.5019C70.2587 24.0265 70.3253 24.4769 70.4817 24.8562C70.6372 25.2364 70.9163 25.5295 71.3219 25.7363C71.726 25.947 72.304 26.0531 73.0621 26.0531C73.6864 26.0531 74.2953 25.9935 74.8824 25.8753C75.4857 25.7554 76.0795 25.5919 76.6593 25.3861L77.092 29.8593C76.2613 30.161 75.4124 30.4094 74.5502 30.6028C73.6362 30.814 72.5541 30.9152 71.3036 30.9152C69.5054 30.9152 68.1114 30.6474 67.1182 30.1146C66.1264 29.5779 65.4253 28.8436 65.0057 27.9145C64.5919 26.9894 64.407 25.9223 64.4587 24.7196C64.5118 23.5145 64.6933 22.2473 65.0057 20.9139L68.8396 4.6747ZM79.6511 22.2096C79.6511 20.4319 79.9379 18.7565 80.5105 17.1871C81.0827 15.6167 81.9069 14.2435 82.976 13.0655C84.0416 11.8933 85.34 10.9638 86.8687 10.2818C88.3887 9.6037 90.0922 9.26173 91.9686 9.26173C93.1438 9.26173 94.1931 9.37314 95.1167 9.59644C96.0438 9.82167 96.882 10.1128 97.6406 10.478L95.645 15.0311C95.113 14.8166 94.5715 14.6269 94.0221 14.4625C93.462 14.2895 92.7788 14.2062 91.97 14.2062C90.0376 14.2062 88.5109 14.8747 87.3743 16.2057C86.2415 17.5382 85.6712 19.3319 85.6712 21.5823C85.6712 22.9158 85.9585 23.9935 86.5341 24.8184C87.1068 25.6433 88.1647 26.054 89.7006 26.054C90.4582 26.054 91.1902 25.9746 91.8908 25.8196C92.5968 25.6627 93.2201 25.465 93.7691 25.2316L94.2018 29.899C93.4098 30.2037 92.6002 30.4599 91.7774 30.6663C90.8889 30.8842 89.8329 30.9966 88.6079 30.9966C86.9913 30.9966 85.622 30.7597 84.5027 30.2918C83.3825 29.8176 82.4569 29.1875 81.7273 28.3892C80.9944 27.589 80.4685 26.6542 80.1431 25.5823C79.8176 24.5103 79.6506 23.3832 79.6506 22.2096H79.6511ZM105.363 30.9952C103.981 30.9952 102.781 30.784 101.763 30.366C100.748 29.9484 99.9081 29.3614 99.2427 28.6009C98.5764 27.8443 98.0786 26.9477 97.7372 25.9145C97.3958 24.8819 97.2316 23.7382 97.2316 22.4852C97.2316 20.9139 97.4827 19.3425 97.9916 17.7746C98.4981 16.2052 99.249 14.7938 100.242 13.5397C101.228 12.2838 102.445 11.2569 103.876 10.4562C105.307 9.66086 106.952 9.26077 108.801 9.26077C110.157 9.26077 111.35 9.47244 112.382 9.89045C113.41 10.3075 114.255 10.8989 114.924 11.6555C115.586 12.416 116.089 13.3087 116.426 14.3438C116.767 15.3741 116.935 16.5206 116.935 17.7746C116.935 19.3411 116.687 20.9134 116.195 22.4847C115.702 24.0492 114.97 25.4636 114.004 26.7201C113.041 27.9746 111.836 29.0005 110.388 29.7978C108.943 30.5955 107.266 30.9952 105.363 30.9952ZM108.255 14.2067C107.397 14.2067 106.639 14.4562 105.989 14.9497C105.337 15.4491 104.79 16.0774 104.349 16.834C103.903 17.5944 103.572 18.4237 103.349 19.3251C103.127 20.2285 103.018 21.0834 103.018 21.8937C103.018 23.203 103.229 24.2236 103.642 24.9569C104.062 25.6864 104.816 26.054 105.911 26.054C106.772 26.054 107.527 25.8056 108.18 25.3071C108.828 24.8116 109.376 24.1834 109.821 23.4244C110.264 22.6687 110.597 21.8366 110.821 20.9332C111.04 20.0328 111.151 19.174 111.151 18.3641C111.151 17.0582 110.942 16.0362 110.524 15.3033C110.107 14.5734 109.35 14.2062 108.255 14.2062V14.2067ZM123.242 30.4483H117.45L122.338 9.81538H128.168L123.242 30.4483ZM126.054 7.30147C125.265 7.30816 124.496 7.05344 123.867 6.57684C123.214 6.09634 122.886 5.3567 122.886 4.35986C122.886 3.81155 122.999 3.29714 123.22 2.8118C123.431 2.34108 123.73 1.9149 124.1 1.55581C124.471 1.20118 124.901 0.915332 125.372 0.711548C125.859 0.50194 126.383 0.395415 126.913 0.398641C127.723 0.398641 128.454 0.63986 129.105 1.12327C129.756 1.60909 130.085 2.34874 130.085 3.34025C130.085 3.8905 129.968 4.40684 129.749 4.89122C129.53 5.37559 129.236 5.79264 128.872 6.1472C128.502 6.50133 128.072 6.78641 127.602 6.98905C127.117 7.2012 126.604 7.30147 126.054 7.30147ZM132.339 10.7536C132.779 10.6248 133.269 10.4698 133.802 10.3012C134.395 10.1167 134.997 9.9609 135.605 9.83427C136.266 9.68895 137.012 9.57028 137.832 9.47873C138.652 9.38525 139.587 9.33972 140.625 9.33972C143.678 9.33972 145.782 10.2315 146.944 12.0096C148.105 13.7877 148.306 16.2207 147.552 19.3057L144.89 30.4464H139.064L141.645 19.5397C141.802 18.8591 141.925 18.2004 142.016 17.5571C142.109 16.9197 142.103 16.3573 141.996 15.8715C141.902 15.4057 141.646 14.9884 141.275 14.693C140.893 14.3932 140.316 14.2426 139.534 14.2426C138.759 14.2456 137.987 14.3255 137.228 14.4809L133.434 30.4449H127.606L132.339 10.7536Z" fill="#C7C7C7"/>
</g>
<defs>
<clipPath id="clip0">
<rect width="148" height="31" fill="white"/>
</clipPath>
</defs>
</svg>
