<?xml version="1.0" encoding="utf-8"?>
<!-- Generator: Adobe Illustrator 22.1.0, SVG Export Plug-In . SVG Version: 6.00 Build 0)  -->
<svg version="1.1" id="Слой_1" xmlns="http://www.w3.org/2000/svg" xmlns:xlink="http://www.w3.org/1999/xlink" x="0px" y="0px"
	 viewBox="0 0 128.9 128.6" style="enable-background:new 0 0 128.9 128.6;" xml:space="preserve">
<style type="text/css">
	.st0{fill:#282C35;}
	.st1{fill:#7B859B;}
	.st2{fill:#0D1019;}
	.st3{fill:#565C6A;}
	.st4{fill:#788AEE;}
</style>
<g>
	<path class="st0" d="M64.5,122.6c32.3,0,58.4-26.1,58.4-58.3C122.9,32.1,96.7,6,64.5,6S6,32.1,6,64.3C6,96.5,32.2,122.6,64.5,122.6
		z"/>
	<path class="st1" d="M120.1,89.8c1.4-7,3-14.1,4-21.2c0.4-2.8,0.6-5.7,0.7-8.6c-0.2,0-0.4-0.1-0.6-0.1c-0.5-0.1-1-0.3-1.5-0.6
		c0.1,1.2,0.1,2.4,0.1,3.6c0,32.2-26.2,58.3-58.4,58.3C32.2,121.2,6,95.1,6,63c0-1.7,0.1-3.3,0.2-4.9C5.5,58.5,4.8,58.8,4,59
		c0,6.6,0.1,13.2,0.8,19.7C4.9,79,4.9,79.4,5,79.7c0.4,2.3,0.3,4.4-0.7,6.5c9.3,24,32.7,41,60.1,41c23.9,0,44.7-12.9,55.8-32.1
		C119.7,93.4,119.8,91.6,120.1,89.8z"/>
	<path class="st2" d="M7.5,49.9c-1.8,6.8-3.1,13.8-3.3,20.8c0.8,0.3,1.6,0.7,2.2,1.3c-0.2-2-0.3-4-0.3-6C6,33.9,32.2,7.8,64.5,7.8
		c32.3,0,58.4,26.1,58.4,58.3c0,6.6-1.1,13.1-3.3,19.3l0,0c0.5-0.6,1.1-1.2,1.6-1.8c0.2-0.3,0.5-0.6,0.7-0.8l0-0.1
		c0.3-0.7,0.9-1.3,1.3-1.9c0.4-0.7,0.8-1.4,1.2-2.2c0.1-0.2,0.2-0.6,0.3-0.7c0.1-0.2,0.2-0.5,0.3-0.7c0.3-0.7,0.5-1.5,0.8-2.3
		c0.5-1.6,0.9-3.3,1.2-5c0-0.1,0-0.2,0.1-0.4c0-0.3,0.1-0.7,0.1-1c0.1-0.8,0.1-1.5,0.2-2.3c0.1-1.7,0.1-3.4,0-5.1
		c0-0.8-0.1-1.7-0.2-2.5c0-0.3-0.1-0.7-0.1-1c0-0.1,0-0.1,0-0.2c-0.3-1.7-0.6-3.4-0.9-5c-0.7-3.3-1.7-6.5-2.8-9.6
		c-0.3-1-0.3-2.1,0-3.1C113.2,17.3,90.6,1.8,64.5,1.8c-20.8,0-39.3,9.8-51.1,25.1c0.5,0.6,0.7,1.3,0.4,2.2
		C11.6,36,9.3,42.9,7.5,49.9z"/>
	<path class="st3" d="M64.5,0C28.9,0,0,28.8,0,64.3c0,35.5,28.9,64.3,64.5,64.3c35.6,0,64.5-28.8,64.5-64.3
		C128.9,28.8,100.1,0,64.5,0z M64.5,122.6C32.2,122.6,6,96.5,6,64.3C6,32.1,32.2,6,64.5,6c32.3,0,58.4,26.1,58.4,58.3
		C122.9,96.5,96.7,122.6,64.5,122.6z"/>
</g>
<path class="st4" d="M89.6,56.7c1.1-7.5-4.6-11.5-12.4-14.1l2.5-10.1l-6.2-1.5l-2.5,9.8c-1.6-0.4-3.3-0.8-4.9-1.2l2.5-9.9l-6.2-1.5
	L60,38.3l-12.4-3.1l-1.6,6.6c0,0,4.6,1,4.5,1.1c2.5,0.6,2.9,2.3,2.9,3.6l-6.9,27.7c-0.3,0.8-1.1,1.9-2.8,1.5
	c0.1,0.1-4.5-1.1-4.5-1.1l-3.1,7l12.4,3.1l-2.6,10.2l6.2,1.5l2.5-10.1c1.7,0.5,3.3,0.9,4.9,1.3l-2.5,10.1l6.2,1.5l2.6-10.2
	c10.5,2,18.4,1.2,21.7-8.3c2.7-7.6-0.1-12-5.7-14.9C85.7,64.8,88.8,62.1,89.6,56.7L89.6,56.7z M75.5,76.4c-1.9,7.6-14.8,3.5-19,2.5
	l3.4-13.5C64.1,66.4,77.5,68.4,75.5,76.4L75.5,76.4z M77.4,56.6C75.7,63.5,65,60,61.5,59.1l3.1-12.3C68,47.7,79.2,49.3,77.4,56.6"/>
</svg>
