<svg width="148" height="22" viewBox="0 0 148 22" fill="none" xmlns="http://www.w3.org/2000/svg">
<g opacity="0.4" clip-path="url(#clip0)">
<path d="M139.702 0L136.809 8.47874H121.35L124.243 0H116.006L108.509 21.9797H116.725L119.618 13.5009H135.077L132.184 21.9797H140.42L147.918 0H139.702Z" fill="#C7C7C7"/>
<path d="M107.052 10.146C106.693 9.61738 106.186 9.19039 105.616 8.90573C104.982 8.62107 104.285 8.47874 103.588 8.47874H85.5312L86.545 5.42884H110.241L112.121 0H85.848C85.0455 0 84.2641 0.142329 83.5249 0.426987C82.6801 0.711645 81.9198 1.13863 81.244 1.68762C80.6526 2.2366 79.9346 2.80592 79.4911 3.49723C78.9631 4.16821 78.5196 4.92052 78.2028 5.71349L77.4847 7.78743C77.2947 8.51941 77.2102 9.27172 77.1891 10.024C77.3158 10.7153 77.4847 11.4067 77.7804 11.8336C78.1394 12.3623 78.6463 12.7893 79.2165 13.0943C79.829 13.4196 80.5259 13.6026 81.244 13.6433H99.3011L98.2874 16.5712H74.5702L72.7117 22H98.9843C99.7869 22 100.568 21.8577 101.307 21.573C102.152 21.2884 102.913 20.8614 103.588 20.3327C104.18 19.7837 104.898 19.2144 105.341 18.5231C105.89 17.8521 106.313 17.0998 106.63 16.3068L107.348 14.2329C107.58 13.5009 107.686 12.7486 107.643 11.9963C107.495 11.2643 107.348 10.5933 107.052 10.146Z" fill="#C7C7C7"/>
<path d="M74.718 3.35489C74.5913 2.66358 74.4223 2.1146 74.021 1.66728C73.7254 1.13863 73.2607 0.691308 72.7116 0.426983C72.0781 0.142325 71.3811 -0.0203367 70.6842 -3.98373e-06H50.0506C49.248 -3.98373e-06 48.4666 0.142325 47.7274 0.426983C46.8827 0.711641 46.1012 1.13863 45.4254 1.68761C44.8341 2.2366 44.1371 2.80591 43.6725 3.49722C43.1234 4.1682 42.701 4.92051 42.3842 5.71349L36.8932 21.9797H45.1297L50.7686 5.44916H66.3547L64.6441 10.3087H53.662L51.9302 15.4529H62.8911L60.7158 22H68.8257L74.4434 5.57116C74.6758 4.83918 74.7602 4.1072 74.718 3.35489Z" fill="#C7C7C7"/>
<path d="M38.7728 3.49722C38.7306 2.8669 38.5405 2.23659 38.2026 1.68761C37.9069 1.11829 37.3789 0.67097 36.7665 0.447311C36.1329 0.14232 35.4359 -9.16608e-06 34.739 0.0203236H8.46645L6.58682 5.44916H30.3884L26.6291 16.5508H2.82756L0.947937 21.9797H27.3472C28.1337 21.9597 28.9114 21.8154 29.6492 21.5527C30.3884 21.146 31.2332 20.7394 31.9512 20.17C32.6482 19.6414 33.2818 19.0314 33.8309 18.3604C34.2955 17.6895 34.6756 16.9981 34.9924 16.2662L38.4771 5.71348C38.7939 5.02217 38.8995 4.24953 38.7728 3.49722Z" fill="#C7C7C7"/>
<path d="M15.9638 8.47871H1.96166L0.0820312 13.5009H14.232L15.9638 8.47871Z" fill="#C7C7C7"/>
</g>
<defs>
<clipPath id="clip0">
<rect width="148" height="22" fill="white"/>
</clipPath>
</defs>
</svg>
