<svg width="140" height="140" viewBox="0 0 140 140" fill="none" xmlns="http://www.w3.org/2000/svg">
<g filter="url(#filter0_d)">
<path d="M70.2048 98.4394C92.6251 98.4394 110.8 80.2777 110.8 57.8741C110.8 35.4705 92.6251 17.3088 70.2048 17.3088C47.7845 17.3088 29.6093 35.4705 29.6093 57.8741C29.6093 80.2777 47.7845 98.4394 70.2048 98.4394Z" fill="#C2C2C2"/>
<path d="M108.878 75.6156C109.844 70.71 110.928 65.8236 111.65 60.8748C111.896 58.8941 112.069 56.908 112.159 54.9155C112.022 54.8886 111.885 54.8581 111.757 54.8221C111.401 54.7212 111.054 54.5882 110.722 54.4245C110.773 55.257 110.799 56.0961 110.8 56.9418C110.8 79.3453 92.6251 97.5071 70.2049 97.5071C47.7847 97.5071 29.6093 79.3453 29.6093 56.9418C29.6093 55.7919 29.6595 54.6538 29.7535 53.5281C29.2601 53.8078 28.731 54.0192 28.1807 54.1564C28.1848 58.7355 28.2313 63.3237 28.7697 67.8745C28.8076 68.1234 28.8459 68.3724 28.8865 68.6213C29.1544 70.2559 29.101 71.6716 28.4303 73.1352C34.9246 89.8526 51.1776 101.705 70.2026 101.705C86.7754 101.705 101.245 92.7109 108.993 79.3416C108.61 78.1447 108.627 76.8872 108.878 75.6156Z" fill="#D4D4D4"/>
<path d="M30.6108 47.8791C29.3651 52.621 28.4343 57.4996 28.2874 62.3783C28.8565 62.5717 29.3794 62.8808 29.8232 63.2861C29.6821 61.9009 29.6115 60.5096 29.6115 59.1173C29.6115 36.7138 47.7869 18.552 70.2071 18.552C92.6273 18.552 110.803 36.7138 110.803 59.1173C110.807 63.7025 110.032 68.2551 108.51 72.581L108.521 72.5692C108.899 72.1638 109.273 71.7544 109.635 71.3349C109.801 71.1419 109.965 70.9469 110.127 70.7499L110.157 70.713C110.394 70.2443 110.805 69.8116 111.083 69.3616C111.386 68.8741 111.661 68.3706 111.909 67.8533C111.96 67.7471 112.039 67.4356 112.13 67.3517C112.197 67.1853 112.262 67.0185 112.325 66.8502C112.518 66.3313 112.695 65.8067 112.855 65.2763C113.196 64.1432 113.465 62.9894 113.659 61.822C113.673 61.7386 113.685 61.6551 113.698 61.5717C113.71 61.3346 113.76 61.0898 113.783 60.8559C113.835 60.3178 113.873 59.7784 113.897 59.2377C113.948 58.0653 113.94 56.8911 113.872 55.7196C113.838 55.1317 113.791 54.5449 113.73 53.9592C113.706 53.7189 113.675 53.4795 113.649 53.2392C113.643 53.1973 113.638 53.1553 113.633 53.1143C113.458 51.9416 113.236 50.7766 112.976 49.6199C112.464 47.3488 111.801 45.1156 111.045 42.9138C110.803 42.2036 110.807 41.4325 111.058 40.7253C104.034 25.1774 88.3847 14.3555 70.2048 14.3555C55.76 14.3555 42.9146 21.1892 34.7233 31.7955C35.0427 32.1849 35.1796 32.7197 34.9834 33.3571C33.489 38.1861 31.8957 42.9886 30.6108 47.8791Z" fill="#9C9C9C"/>
<path d="M70.2048 13.1123C45.4653 13.1123 25.4095 33.1531 25.4095 57.8742C25.4095 82.5952 45.4653 102.636 70.2048 102.636C94.9443 102.636 115 82.5952 115 57.8742C115 33.1531 94.9443 13.1123 70.2048 13.1123ZM70.2048 98.4394C47.7846 98.4394 29.6092 80.2776 29.6092 57.8742C29.6092 35.4707 47.7846 17.3089 70.2048 17.3089C92.625 17.3089 110.8 35.4707 110.8 57.8742C110.8 80.2776 92.625 98.4394 70.2048 98.4394Z" fill="#B3B3B3"/>
</g>
<path d="M72.2091 43.1238C73.1428 43.1888 74.1732 43.3027 75.3001 43.4653C76.427 43.6279 77.1515 43.7255 77.4734 43.758L77.3768 47.3197C74.9942 46.8643 72.8852 46.6366 71.05 46.6366C68.9893 46.6366 67.5243 46.9782 66.655 47.6612C65.7856 48.3443 65.351 49.4014 65.351 50.8326V51.8084C65.351 52.6541 65.4314 53.3046 65.5924 53.76C65.7856 54.2153 66.1237 54.6219 66.6067 54.9797C67.1218 55.305 67.9268 55.6302 69.0215 55.9555L72.0642 56.8825C73.9317 57.4355 75.3645 58.0535 76.3626 58.7365C77.3929 59.3871 78.1174 60.2165 78.536 61.2248C78.9545 62.2331 79.1638 63.5505 79.1638 65.1768V65.4207C79.1638 67.6976 78.6165 69.5028 77.5217 70.8364C76.4592 72.1375 74.6883 72.9669 72.2091 73.3247V77.5694H68.5868V73.5686C67.6531 73.5361 66.6389 73.4385 65.5441 73.2759C64.4816 73.1133 63.4513 72.9344 62.4531 72.7392L62.5497 69.1776C64.9968 69.7305 67.1057 70.007 68.8766 70.007C71.1305 70.007 72.7243 69.6655 73.658 68.9824C74.5917 68.2993 75.0586 67.2422 75.0586 65.8111V64.8353C75.0586 64.0871 74.9459 63.5017 74.7205 63.0788C74.5273 62.6235 74.1249 62.2331 73.5131 61.9079C72.9335 61.5501 72.0481 61.1923 70.8568 60.8345L67.8624 59.9075C66.0915 59.3545 64.7392 58.7691 63.8055 58.1511C62.8717 57.5005 62.2117 56.6711 61.8253 55.6628C61.4389 54.6219 61.2457 53.2233 61.2457 51.4668V51.2229C61.2457 48.8159 61.8253 46.9619 62.9844 45.6609C64.1435 44.3273 66.011 43.5141 68.5868 43.2214V39.0742H72.2091V43.1238Z" fill="white"/>
<g clip-path="url(#clip0)" filter="url(#filter1_d)">
<path d="M46.7568 30.5694C46.7568 34.6868 43.4165 38.0246 39.2961 38.0246C35.1756 38.0246 31.8353 34.6868 31.8353 30.5694C31.8353 26.452 35.1756 23.1143 39.2961 23.1143C43.4165 23.1143 46.7568 26.452 46.7568 30.5694Z" fill="#9C9C9C"/>
<path d="M39.296 31.2893C38.7559 31.2893 38.3178 31.7269 38.3178 32.2668C38.3178 32.6288 38.5153 32.944 38.808 33.1131V34.1998H39.784V33.1131C40.0768 32.9441 40.2742 32.6288 40.2742 32.2668C40.2742 31.7269 39.8362 31.2893 39.296 31.2893Z" fill="#D5D5D5"/>
<path d="M39.2964 26.5493C38.4741 26.5493 37.8054 27.2177 37.8054 28.0392V29.6259H40.7873V28.0392C40.7872 27.2178 40.1185 26.5493 39.2964 26.5493Z" fill="#D5D5D5"/>
<path d="M39.2959 21.1704C34.1007 21.1704 29.889 25.379 29.889 30.5704C29.889 35.7616 34.1007 39.9703 39.2959 39.9703C44.4911 39.9703 48.703 35.7615 48.703 30.5704C48.703 25.379 44.4911 21.1704 39.2959 21.1704ZM42.1864 35.4033H36.4058C35.7954 35.4033 35.3004 34.9087 35.3004 34.2985V30.7315C35.3004 30.1994 35.6771 29.7551 36.1786 29.6505V28.0402C36.1786 26.3225 37.5771 24.9249 39.2962 24.9249C41.0151 24.9249 42.4137 26.3224 42.4137 28.0402V29.6505C42.9149 29.7554 43.2917 30.1994 43.2917 30.7315V34.2985H43.2918C43.2918 34.9087 42.7968 35.4033 42.1864 35.4033Z" fill="#D5D5D5"/>
</g>
<defs>
<filter id="filter0_d" x="0.409546" y="0.112305" width="139.59" height="139.524" filterUnits="userSpaceOnUse" color-interpolation-filters="sRGB">
<feFlood flood-opacity="0" result="BackgroundImageFix"/>
<feColorMatrix in="SourceAlpha" type="matrix" values="0 0 0 0 0 0 0 0 0 0 0 0 0 0 0 0 0 0 127 0"/>
<feOffset dy="12"/>
<feGaussianBlur stdDeviation="12.5"/>
<feColorMatrix type="matrix" values="0 0 0 0 0 0 0 0 0 0 0 0 0 0 0 0 0 0 0.17 0"/>
<feBlend mode="normal" in2="BackgroundImageFix" result="effect1_dropShadow"/>
<feBlend mode="normal" in="SourceGraphic" in2="effect1_dropShadow" result="shape"/>
</filter>
<filter id="filter1_d" x="27.889" y="21.1694" width="22.814" height="22.8" filterUnits="userSpaceOnUse" color-interpolation-filters="sRGB">
<feFlood flood-opacity="0" result="BackgroundImageFix"/>
<feColorMatrix in="SourceAlpha" type="matrix" values="0 0 0 0 0 0 0 0 0 0 0 0 0 0 0 0 0 0 127 0"/>
<feOffset dy="2"/>
<feGaussianBlur stdDeviation="1"/>
<feColorMatrix type="matrix" values="0 0 0 0 0 0 0 0 0 0 0 0 0 0 0 0 0 0 0.12 0"/>
<feBlend mode="normal" in2="BackgroundImageFix" result="effect1_dropShadow"/>
<feBlend mode="normal" in="SourceGraphic" in2="effect1_dropShadow" result="shape"/>
</filter>
<clipPath id="clip0">
<rect width="18.814" height="18.8" fill="white" transform="translate(29.889 21.1694)"/>
</clipPath>
</defs>
</svg>
