<svg width="26" height="24" viewBox="0 0 26 24" fill="none" xmlns="http://www.w3.org/2000/svg">
<path d="M25 16H23C22.4 16 22 16.4 22 17V19.5C22 19.8 21.8 20 21.5 20H4.5C4.2 20 4 19.8 4 19.5V17C4 16.4 3.6 16 3 16H1C0.4 16 0 16.4 0 17V23C0 23.6 0.4 24 1 24H25C25.6 24 26 23.6 26 23V17C26 16.4 25.6 16 25 16Z" fill="#828282"/>
<path d="M12.3 15.7C12.5 15.9 12.8 16 13 16C13.2 16 13.5 15.9 13.7 15.7L19.7 9.7C19.9 9.5 20 9.3 20 9C20 8.7 19.9 8.5 19.7 8.3L18.3 6.9C18.1 6.7 17.9 6.6 17.6 6.6C17.3 6.6 17.1 6.7 16.9 6.9L15.9 7.9C15.6 8.2 15 8 15 7.5V1C15 0.4 14.6 0 14 0H12C11.4 0 11 0.4 11 1V7.6C11 8 10.5 8.3 10.1 8L9.1 7C8.9 6.8 8.7 6.7 8.4 6.7C8.1 6.7 7.9 6.8 7.7 7L6.3 8.4C6.1 8.6 6 8.8 6 9.1C6 9.4 6.1 9.6 6.3 9.8L12.3 15.7Z" fill="#828282"/>
</svg>
