<svg width="21" height="21" viewBox="0 0 21 21" fill="none" xmlns="http://www.w3.org/2000/svg">
<path d="M18.375 7.26551V18.375C18.375 19.8247 17.1997 21 15.75 21H2.625C1.17534 21 0 19.8247 0 18.375V5.25C0 3.80034 1.17534 2.625 2.625 2.625H13.7338L11.1101 5.25H2.625V18.375H15.75V9.89116L18.375 7.26551ZM16.3601 1.85596L15.4321 2.78394L18.2161 5.56853L19.144 4.64055L16.3601 1.85596ZM18.2161 0L17.2881 0.927979L20.072 3.71257L21 2.78394L18.2161 0ZM6.15234 12.0663L8.93628 14.8502L17.2881 6.49712L14.5042 3.71253L6.15234 12.0663ZM5.25 15.75H7.875L5.25 13.125V15.75Z" fill="#828282"/>
</svg>
