<svg width="149" height="42" viewBox="0 0 149 42" fill="none" xmlns="http://www.w3.org/2000/svg">
<path d="M49.8379 22.6187C49.8379 22.86 49.6367 23.0564 49.3964 23.0564H40.8888C41.1012 25.1663 42.6831 27.091 44.9078 27.091C46.4282 27.091 47.5573 26.5074 48.407 25.2897C48.5299 25.1214 48.7144 25.0148 48.9492 25.1158C49.0777 25.1719 49.1672 25.2897 49.1895 25.4244C49.2119 25.5647 49.1728 25.6432 49.1336 25.7218C48.2784 27.22 46.5735 27.9551 44.9022 27.9551C42.0403 27.9551 40 25.3851 40 22.6356C40 19.886 42.0403 17.316 44.9022 17.316C47.7642 17.3104 49.8324 19.8748 49.8379 22.6187ZM48.9268 22.2035C48.7424 20.0936 47.1325 18.1689 44.9078 18.1689C42.6831 18.1689 41.1012 20.0936 40.8888 22.2035H48.9268ZM60.1622 17.5236C60.4082 17.5236 60.587 17.7369 60.587 17.9501C60.587 18.197 60.4026 18.3766 60.1622 18.3766H57.8816V27.3603C57.8816 27.5735 57.6971 27.7868 57.4568 27.7868C57.2108 27.7868 57.0319 27.5735 57.0319 27.3603V18.3766H54.8408C54.5948 18.3766 54.4159 18.1914 54.4159 17.9501C54.4159 17.7369 54.6004 17.5236 54.8408 17.5236H57.0319V14.2354C57.0319 14.0278 57.1717 13.837 57.3729 13.8033C57.658 13.7584 57.8816 13.9548 57.8816 14.2242V17.5236H60.1622ZM74.0751 21.8668V27.3098C74.0751 27.5567 73.8627 27.7363 73.6503 27.7363C73.4043 27.7363 73.2254 27.5511 73.2254 27.3098V21.8668C73.2254 20.0319 72.1913 18.197 70.1511 18.197C67.5351 18.197 66.406 20.492 66.5569 22.8432C66.5569 22.9049 66.5848 23.1799 66.5848 23.2079V27.293C66.5848 27.5006 66.4451 27.6914 66.2438 27.725C65.9588 27.7699 65.7352 27.5735 65.7352 27.3042V9.42646C65.7352 9.21323 65.9196 9 66.16 9C66.4059 9 66.5848 9.21323 66.5848 9.42646V19.5437C67.3171 18.2307 68.6251 17.3441 70.1455 17.3441C72.6441 17.3441 74.0751 19.5437 74.0751 21.8668ZM89.3295 22.6187C89.3295 22.86 89.1283 23.0564 88.8879 23.0564H80.3747C80.5871 25.1663 82.169 27.091 84.3937 27.091C85.9142 27.091 87.0433 26.5074 87.8929 25.2897C88.0159 25.1214 88.2004 25.0148 88.4351 25.1158C88.5637 25.1719 88.6531 25.2897 88.6755 25.4244C88.6978 25.5647 88.6587 25.6432 88.6196 25.7218C87.7644 27.22 86.0595 27.9551 84.3882 27.9551C81.5262 27.9551 79.4859 25.3851 79.4859 22.6356C79.4859 19.886 81.5262 17.316 84.3882 17.316C87.2557 17.3104 89.3239 19.8748 89.3295 22.6187ZM88.4128 22.2035C88.2283 20.0936 86.6185 18.1689 84.3937 18.1689C82.169 18.1689 80.5871 20.0936 80.3747 22.2035H88.4128ZM99.7711 17.922C99.7711 18.197 99.6202 18.3485 99.3743 18.3822C96.8756 18.7469 95.7521 20.795 95.7521 23.1799V27.2649C95.7521 27.4725 95.6124 27.6633 95.4111 27.697C95.1261 27.7419 94.9025 27.5455 94.9025 27.2761V17.9669C94.9025 17.7593 95.0422 17.5685 95.2434 17.5349C95.5285 17.49 95.7521 17.6864 95.7521 17.9557V19.8523C96.4508 18.6627 97.8538 17.5292 99.3128 17.5292C99.5252 17.5236 99.7711 17.6807 99.7711 17.922ZM113.745 22.6187C113.745 22.86 113.544 23.0564 113.304 23.0564H104.796C105.009 25.1663 106.591 27.091 108.815 27.091C110.336 27.091 111.465 26.5074 112.315 25.2897C112.437 25.1214 112.622 25.0148 112.857 25.1158C112.985 25.1719 113.075 25.2897 113.097 25.4244C113.119 25.5647 113.08 25.6432 113.041 25.7218C112.186 27.22 110.481 27.9551 108.81 27.9551C105.948 27.9551 103.908 25.3851 103.908 22.6356C103.908 19.886 105.948 17.316 108.81 17.316C111.672 17.3104 113.74 19.8748 113.745 22.6187ZM112.834 22.2035C112.65 20.0936 111.04 18.1689 108.815 18.1689C106.591 18.1689 105.009 20.0936 104.796 22.2035H112.834ZM127.479 18.0286V27.3603C127.479 27.6072 127.267 27.7868 127.055 27.7868C126.809 27.7868 126.63 27.6016 126.63 27.3603V25.5871C125.931 26.9956 124.679 28 123.097 28C120.571 28 119.168 25.8004 119.168 23.4773V18.0062C119.168 17.793 119.352 17.5797 119.592 17.5797C119.838 17.5797 120.017 17.793 120.017 18.0062V23.4773C120.017 25.3122 121.051 27.1471 123.092 27.1471C125.953 27.1471 126.624 24.4592 126.624 21.4908V18.0062C126.624 17.7593 126.87 17.5068 127.172 17.5966C127.357 17.6583 127.479 17.8379 127.479 18.0286ZM149 21.8331V27.3042C149 27.5511 148.788 27.7307 148.575 27.7307C148.329 27.7307 148.15 27.5455 148.15 27.3042V21.8331C148.15 19.9982 147.116 18.197 145.076 18.197C142.516 18.197 141.543 20.9465 141.543 23.0845V27.3042C141.543 27.5511 141.331 27.7307 141.118 27.7307C140.873 27.7307 140.694 27.5455 140.694 27.3042V21.8331C140.694 19.9982 139.66 18.197 137.619 18.197C135.031 18.197 133.964 20.2451 134.059 22.9666C134.059 23.0283 134.087 23.1518 134.059 23.1799V27.293C134.059 27.5006 133.919 27.6914 133.712 27.725C133.427 27.7699 133.203 27.5735 133.203 27.3042V17.9669C133.203 17.7593 133.343 17.5685 133.544 17.5349C133.829 17.49 134.053 17.6864 134.053 17.9557V19.5156C134.785 18.2026 136.093 17.3441 137.614 17.3441C139.347 17.3441 140.688 18.4439 141.236 20.0656C141.935 18.4776 143.304 17.3441 145.07 17.3441C147.569 17.3441 149 19.51 149 21.8331Z" fill="#C7C7C7"/>
<path d="M12.996 0L12.7122 0.956834V28.7219L12.996 29.003L25.9903 21.3847L12.996 0Z" fill="#D2D2D2"/>
<path d="M12.9976 0L0.00341797 21.3847L12.9976 29.0031V15.5267V0Z" fill="#E3E3E3"/>
<path d="M12.9961 31.4433L12.8361 31.6367V41.5272L12.9961 41.9905L25.9981 23.8289L12.9961 31.4433Z" fill="#D2D2D2"/>
<path d="M12.9962 41.9904V31.4431L0.00195312 23.8287L12.9962 41.9904Z" fill="#E3E3E3"/>
<path d="M12.996 29.003L25.9901 21.3848L12.996 15.5268V29.003Z" fill="#C7C7C7"/>
<path d="M0.00195312 21.3848L12.996 29.003V15.5267L0.00195312 21.3848Z" fill="#D4D4D4"/>
</svg>
