<svg width="67" height="67" viewBox="0 0 67 67" fill="none" xmlns="http://www.w3.org/2000/svg">
<path d="M29.3125 8.375H15.3541V11.1666H29.3125V8.375Z" fill="#8394EC"/>
<path d="M18.1457 13.9585H15.3541V16.7501H18.1457V13.9585Z" fill="#8394EC"/>
<path d="M23.7291 13.9585H20.9375V16.7501H23.7291V13.9585Z" fill="#8394EC"/>
<path d="M59.6118 11.5757L48.4452 0.408936C48.1835 0.147217 47.8284 0 47.4584 0H11.1666C8.85395 0 6.97913 1.87482 6.97913 4.1875V62.8125C6.97913 65.1252 8.85395 67 11.1666 67H55.8332C58.1459 67 60.0207 65.1252 60.0207 62.8125V12.5625C60.0207 12.1923 59.8737 11.8374 59.6118 11.5757ZM57.2291 62.8125C57.2291 63.5834 56.6041 64.2084 55.8332 64.2084H11.1666C10.3957 64.2084 9.77075 63.5834 9.77075 62.8125V4.1875C9.77075 3.41661 10.3957 2.79162 11.1666 2.79162H46.8804L57.2291 13.1404V62.8125Z" fill="#8394EC"/>
<path d="M50.25 11.1666C49.4791 11.1666 48.8541 10.5416 48.8541 9.77075V1.39575H46.0625V9.77075C46.0625 12.0834 47.9373 13.9583 50.25 13.9583H53.0416V11.1666H50.25Z" fill="#8394EC"/>
<path d="M51.6457 47.4585H48.8541V50.2501H51.6457V47.4585Z" fill="#8394EC"/>
<path d="M46.0625 47.4585H43.2709V50.2501H46.0625V47.4585Z" fill="#8394EC"/>
<path d="M37.6875 47.4585H15.3541V50.2501H37.6875V47.4585Z" fill="#8394EC"/>
<path d="M51.6457 54.4375H15.3541V57.2291H51.6457V54.4375Z" fill="#8394EC"/>
<path d="M48.8541 20.9375H18.1459C16.6041 20.9375 15.3542 22.1873 15.3542 23.7291V40.4791C15.3542 42.0209 16.6041 43.2707 18.1459 43.2707H48.8542C50.396 43.2707 51.6459 42.0209 51.6459 40.4791V23.7291C51.6459 22.1873 50.3959 20.9375 48.8541 20.9375ZM48.8541 40.4791H18.1459V23.7291H48.8542V40.4791H48.8541Z" fill="#8394EC"/>
</svg>
