<svg width="141" height="141" viewBox="0 0 141 141" fill="none" xmlns="http://www.w3.org/2000/svg">
<g filter="url(#filter0_d)">
<path d="M70.2616 99.125C92.6819 99.125 110.857 80.9633 110.857 58.5597C110.857 36.1561 92.6819 17.9944 70.2616 17.9944C47.8413 17.9944 29.666 36.1561 29.666 58.5597C29.666 80.9633 47.8413 99.125 70.2616 99.125Z" fill="#C2C2C2"/>
<path d="M108.934 76.3011C109.901 71.3956 110.985 66.5092 111.707 61.5603C111.952 59.5797 112.126 57.5936 112.216 55.6011C112.079 55.5742 111.942 55.5436 111.814 55.5076C111.457 55.4068 111.111 55.2737 110.779 55.11C110.83 55.9426 110.856 56.7817 110.857 57.6273C110.857 80.0308 92.6818 98.1926 70.2616 98.1926C47.8414 98.1926 29.6661 80.0308 29.6661 57.6273C29.6661 56.4774 29.7163 55.3394 29.8103 54.2136C29.3169 54.4933 28.7878 54.7047 28.2374 54.8419C28.2415 59.421 28.2881 64.0092 28.8265 68.56C28.8644 68.809 28.9027 69.0579 28.9433 69.3069C29.2111 70.9415 29.1578 72.3572 28.487 73.8208C34.9814 90.5381 51.2344 102.391 70.2593 102.391C86.8322 102.391 101.302 93.3965 109.05 80.0272C108.667 78.8303 108.684 77.5728 108.934 76.3011Z" fill="#D4D4D4"/>
<path d="M30.6675 48.5646C29.4219 53.3065 28.491 58.1852 28.3441 63.0638C28.9133 63.2573 29.4362 63.5663 29.88 63.9716C29.7389 62.5865 29.6682 61.1951 29.6683 59.8029C29.6683 37.3994 47.8436 19.2376 70.2638 19.2376C92.684 19.2376 110.859 37.3994 110.859 59.8029C110.863 64.3881 110.088 68.9407 108.567 73.2666L108.578 73.2547C108.956 72.8494 109.329 72.4399 109.691 72.0205C109.858 71.8274 110.022 71.6325 110.184 71.4355L110.213 71.3985C110.451 70.9298 110.862 70.4971 111.14 70.0471C111.442 69.5597 111.718 69.0562 111.966 68.5388C112.017 68.4326 112.095 68.1212 112.187 68.0373C112.253 67.8709 112.319 67.704 112.382 67.5358C112.575 67.0169 112.751 66.4922 112.911 65.9618C113.253 64.8288 113.522 63.675 113.716 62.5075C113.729 62.4241 113.742 62.3407 113.755 62.2572C113.766 62.0201 113.817 61.7753 113.839 61.5414C113.892 61.0034 113.93 60.464 113.954 59.9232C114.005 58.7509 113.996 57.5766 113.928 56.4051C113.895 55.8173 113.847 55.2305 113.787 54.6447C113.762 54.4044 113.732 54.1651 113.706 53.9248C113.7 53.8828 113.695 53.8409 113.689 53.7998C113.515 52.6271 113.293 51.4622 113.033 50.3055C112.521 48.0344 111.857 45.8011 111.102 43.5994C110.859 42.8891 110.864 42.118 111.115 41.4108C104.091 25.863 88.4415 15.041 70.2615 15.041C55.8168 15.041 42.9714 21.8748 34.7801 32.4811C35.0995 32.8704 35.2364 33.4053 35.0402 34.0427C33.5458 38.8716 31.9524 43.6741 30.6675 48.5646Z" fill="#9C9C9C"/>
<path d="M70.2615 13.7979C45.522 13.7979 25.4663 33.8386 25.4663 58.5597C25.4663 83.2808 45.522 103.322 70.2615 103.322C95.0011 103.322 115.057 83.2808 115.057 58.5597C115.057 33.8386 95.0011 13.7979 70.2615 13.7979ZM70.2615 99.125C47.8413 99.125 29.666 80.9632 29.666 58.5597C29.666 36.1562 47.8413 17.9944 70.2615 17.9944C92.6817 17.9944 110.857 36.1562 110.857 58.5597C110.857 80.9632 92.6817 99.125 70.2615 99.125Z" fill="#B3B3B3"/>
</g>
<path fill-rule="evenodd" clip-rule="evenodd" d="M70.2615 37.074C70.6344 37.0718 70.9955 37.2454 71.2242 37.5562L80.6854 50.4119C80.7828 50.5443 80.8513 50.6955 80.8866 50.8557L85.4644 71.6571C85.5713 72.1428 85.36 72.6429 84.9364 72.9069L70.8974 81.6561C70.7023 81.7777 70.4814 81.8371 70.2615 81.8358C70.0416 81.8371 69.8207 81.7777 69.6256 81.6561L55.5866 72.9069C55.163 72.6429 54.9517 72.1428 55.0586 71.6571L59.6364 50.8557C59.6717 50.6955 59.7402 50.5443 59.8377 50.4119L69.2988 37.5562C69.5276 37.2454 69.8886 37.0718 70.2615 37.074ZM69.0702 41.855L62.1041 51.3204L63.7161 56.3552L69.0702 46.9581V41.855ZM70.2615 49.6451L64.6955 59.4141L68.3189 70.7311H72.2041L75.8275 59.4141L70.2615 49.6451ZM77.4188 62.2071L74.6897 70.7311H82.2755L77.4188 62.2071ZM80.1875 73.0867H73.9355L72.3771 77.9541L80.1875 73.0867ZM70.2615 76.7986L71.4499 73.0867H69.0731L70.2615 76.7986ZM65.8333 70.7311L63.1042 62.2071L58.2476 70.7311H65.8333ZM59.0472 64.5498L62.1248 59.1482L61.0054 55.6519L59.0472 64.5498ZM60.3355 73.0867H66.5875L68.1459 77.9541L60.3355 73.0867ZM81.4758 64.5498L78.3982 59.1482L79.5176 55.6519L81.4758 64.5498ZM78.4189 51.3204L76.8069 56.3552L71.4528 46.9581V41.855L78.4189 51.3204Z" fill="white"/>
<g clip-path="url(#clip0)" filter="url(#filter1_d)">
<path d="M46.8135 28.5692C46.8135 32.6866 43.4733 36.0243 39.3528 36.0243C35.2324 36.0243 31.8921 32.6866 31.8921 28.5692C31.8921 24.4518 35.2324 21.114 39.3528 21.114C43.4733 21.114 46.8135 24.4518 46.8135 28.5692Z" fill="#9C9C9C"/>
<path d="M39.3527 29.2891C38.8126 29.2891 38.3745 29.7266 38.3745 30.2666C38.3745 30.6285 38.572 30.9438 38.8648 31.1129V32.1996H39.8407V31.1129C40.1335 30.9439 40.3309 30.6285 40.3309 30.2666C40.3309 29.7266 39.893 29.2891 39.3527 29.2891Z" fill="#D5D5D5"/>
<path d="M39.3531 24.5491C38.5308 24.5491 37.8621 25.2174 37.8621 26.039V27.6257H40.844V26.039C40.8439 25.2175 40.1752 24.5491 39.3531 24.5491Z" fill="#D5D5D5"/>
<path d="M39.3526 19.1702C34.1574 19.1702 29.9458 23.3788 29.9458 28.5701C29.9458 33.7613 34.1574 37.9701 39.3526 37.9701C44.5478 37.9701 48.7598 33.7613 48.7598 28.5701C48.7598 23.3788 44.5478 19.1702 39.3526 19.1702ZM42.2431 33.403H36.4626C35.8521 33.403 35.3572 32.9085 35.3572 32.2983V28.7313C35.3572 28.1992 35.7339 27.7548 36.2354 27.6503V26.0399C36.2354 24.3223 37.6339 22.9246 39.353 22.9246C41.0719 22.9246 42.4704 24.3221 42.4704 26.0399V27.6503C42.9717 27.7551 43.3484 28.1992 43.3484 28.7313V32.2983H43.3486C43.3486 32.9084 42.8536 33.403 42.2431 33.403Z" fill="#D5D5D5"/>
</g>
<defs>
<filter id="filter0_d" x="0.466309" y="0.797852" width="139.59" height="139.524" filterUnits="userSpaceOnUse" color-interpolation-filters="sRGB">
<feFlood flood-opacity="0" result="BackgroundImageFix"/>
<feColorMatrix in="SourceAlpha" type="matrix" values="0 0 0 0 0 0 0 0 0 0 0 0 0 0 0 0 0 0 127 0"/>
<feOffset dy="12"/>
<feGaussianBlur stdDeviation="12.5"/>
<feColorMatrix type="matrix" values="0 0 0 0 0 0 0 0 0 0 0 0 0 0 0 0 0 0 0.17 0"/>
<feBlend mode="normal" in2="BackgroundImageFix" result="effect1_dropShadow"/>
<feBlend mode="normal" in="SourceGraphic" in2="effect1_dropShadow" result="shape"/>
</filter>
<filter id="filter1_d" x="27.9458" y="19.1692" width="22.814" height="22.8" filterUnits="userSpaceOnUse" color-interpolation-filters="sRGB">
<feFlood flood-opacity="0" result="BackgroundImageFix"/>
<feColorMatrix in="SourceAlpha" type="matrix" values="0 0 0 0 0 0 0 0 0 0 0 0 0 0 0 0 0 0 127 0"/>
<feOffset dy="2"/>
<feGaussianBlur stdDeviation="1"/>
<feColorMatrix type="matrix" values="0 0 0 0 0 0 0 0 0 0 0 0 0 0 0 0 0 0 0.12 0"/>
<feBlend mode="normal" in2="BackgroundImageFix" result="effect1_dropShadow"/>
<feBlend mode="normal" in="SourceGraphic" in2="effect1_dropShadow" result="shape"/>
</filter>
<clipPath id="clip0">
<rect width="18.814" height="18.8" fill="white" transform="translate(29.9458 19.1692)"/>
</clipPath>
</defs>
</svg>
