<svg xmlns="http://www.w3.org/2000/svg" width="32" height="32" fill="none"><path fill="#2566AF" d="M13.4388 10.8324h-2.5295l1.5809-9.7159H15.02l-1.5812 9.7159zM8.7813 1.1165L6.3697 7.7992l-.2854-1.439.0003.0005-.8511-4.3694s-.103-.8748-1.2-.8748H.0468L0 1.281s1.2192.2537 2.646 1.1106l2.1976 8.441h2.6356l4.0244-9.716H8.7813zm19.896 9.7159H31l-2.0251-9.7161h-2.0334c-.939 0-1.1677.724-1.1677.724l-3.7726 8.9921h2.6369l.5273-1.4432h3.2157l.2962 1.4432zm-2.7834-3.4368l1.3291-3.636.7477 3.636h-2.0768zM22.199 3.453l.361-2.0864S21.4461.9429 20.2849.9429c-1.2553 0-4.2363.5487-4.2363 3.2165 0 2.51 3.4987 2.5412 3.4987 3.8596 0 1.3185-3.1382 1.0822-4.1739.2508l-.376 2.1816S16.1269 11 17.8525 11c1.7263 0 4.3304-.8938 4.3304-3.3264 0-2.5261-3.5301-2.7613-3.5301-3.8596.0002-1.0986 2.4637-.9575 3.5462-.361z"/><path fill="#E6A540" d="M6.0846 6.3604l-.8511-4.3693s-.103-.8748-1.2-.8748H.0468L0 1.2808s1.9162.3971 3.7542 1.885c1.7573 1.4221 2.3304 3.1946 2.3304 3.1946z"/><path fill="#E9B040" fill-rule="evenodd" d="M16.8237 29.6695c1.5742 1.4476 3.6624 2.3298 5.954 2.3298 4.8983 0 8.8693-4.0295 8.8693-8.9997 0-4.9703-3.971-8.9996-8.8693-8.9996-2.2916 0-4.3798.8818-5.954 2.3291a8.9974 8.9974 0 0 0-2.1575 3.0243 9.0642 9.0642 0 0 0-.758 3.6462 9.0639 9.0639 0 0 0 .7581 3.6459 8.9973 8.9973 0 0 0 2.1574 3.024z" clip-rule="evenodd"/><path fill="#CC2131" fill-rule="evenodd" d="M19.6899 22.0469a9.0626 9.0626 0 0 0-.1501-.9528h-5.4319a9.004 9.004 0 0 1 .2576-.9529h4.9166a9.0795 9.0795 0 0 0-.3755-.953h-4.1635a8.9378 8.9378 0 0 1 .5121-.9528h3.1401a9.0457 9.0457 0 0 0-.676-.9528h-1.7897a9.0412 9.0412 0 0 1 .894-.9528c-1.5741-1.4474-3.6624-2.3291-5.9539-2.3291C5.9713 14.0007 2 18.03 2 23.0003 2 27.9702 5.9713 32 10.8697 32c2.2915 0 4.3798-.882 5.9539-2.3298a8.9755 8.9755 0 0 0 .8957-.9526h-1.7897a9.0322 9.0322 0 0 1-.6744-.9532h3.1401c.1893-.3069.36-.625.5113-.9526h-4.1635a9.052 9.052 0 0 1-.3778-.9528h4.9168a9.0484 9.0484 0 0 0 .4078-1.9057 9.2723 9.2723 0 0 0 0-1.9064z" clip-rule="evenodd"/><path fill="#1B3771" fill-rule="evenodd" d="M13.8092 25.5988c-.2971.0843-.5027.1206-.7252.1206-.4495 0-.729-.2872-.729-.8154 0-.1039.0098-.2155.0285-.3329l.0586-.363.0449-.2939.4174-2.5334h.9251l-.1103.5512h.5783l-.1362.9365h-.58l-.2497 1.5147a.9828.9828 0 0 0-.0166.1539c0 .1917.0996.275.3282.275.1096 0 .1948-.0114.2931-.0352l-.1271.8219zm2.9724-.0348a3.2614 3.2614 0 0 1-.9862.1509c-1.0294 0-1.6367-.5709-1.6367-1.6626 0-1.2748.7138-2.2124 1.6818-2.2124.7925 0 1.2982.5248 1.2982 1.3491 0 .2732-.0344.54-.1181.9161h-1.9138a.8574.8574 0 0 0-.0091.1165c0 .4306.2856.6502.8444.6502.3437 0 .6541-.0721.9995-.2353l-.16.9275zm-.5735-2.208a2.7313 2.7313 0 0 0 .0083-.1896c0-.3013-.1686-.478-.4553-.478-.3061 0-.5251.237-.6138.6654l1.0608.0022zm-9.7482 2.2885h-.963l.5507-3.509-1.23 3.509h-.6561l-.0813-3.4893-.5798 3.4893h-.935l.7528-4.5646H4.703l.0387 2.826.9343-2.826h1.523l-.739 4.5646zm2.3123-1.6538c-.101-.0118-.1203-.0151-.1895-.0151-.5455 0-.822.2125-.822.5648 0 .2309.1352.3786.3457.3786.465-.0002.6494-.3791.6658-.9283zm.7605 1.6538h-.8325l.0186-.3849c-.2112.2898-.4964.4491-1.0094.4491-.4655 0-.8555-.4134-.8555-1.0142 0-.176.032-.337.0713-.4851.1516-.5688.7203-.9337 1.595-.9457.1096-.0018.281-.0039.424.0146.03-.122.038-.1743.038-.2407 0-.2459-.1996-.3241-.649-.3241-.2747 0-.5827.0492-.7969.1127l-.1334.0386-.0564.0151.1334-.8344c.4504-.1384.7638-.1966 1.1194-.1966.8272 0 1.2644.377 1.2644 1.0883 0 .1835.0181.3224-.0453.7362l-.2014 1.316-.0334.237-.0247.1882-.0166.1297-.0096.1002zm11.88-3.6779c.2673 0 .5168.0708.8602.2459l.1575-.9905a3.5858 3.5858 0 0 0-.2325-.0893l-.3952-.1011c-.1222-.0314-.2661-.047-.4307-.047-.4776 0-.7582.0053-1.0472.1852-.1558.0955-.3497.2372-.5745.4875l-.1139-.0352-.9806.7076.047-.3979h-1.0206l-.5871 3.7123h.9632l.3516-1.9982s.1373-.2732.2003-.3593c.1775-.2414.3342-.2436.5347-.2369.0241.0004.0577.0017.0686.0017a5.316 5.316 0 0 0-.0437.7055c0 1.214.6797 1.9705 1.7161 1.9705.2669 0 .4959-.0357.851-.1333l.1696-1.0406c-.3197.1592-.5811.2344-.8186.2344-.5596 0-.8981-.4188-.8981-1.1123.0002-1.0046.5041-1.709 1.2229-1.709zm8.1352-.8867l-.2108 1.3033c-.232-.3514-.5076-.5207-.8814-.5207-.506 0-.9687.2929-1.2639.8418l.0021-.0049-.6115-.3694.047-.398h-1.0207l-.587 3.7123h.9632l.318-1.9981s.2465-.2784.3105-.3634c.1418-.1887.2993-.2252.4279-.234-.1114.3145-.1754.6843-.1754 1.1026 0 .9286.4759 1.5416 1.176 1.5416.3534 0 .626-.1258.8902-.4117l-.0471.363h.9104l.7333-4.5647h-.9808v.0003zm-1.1724 3.691c-.3281 0-.4939-.246-.4939-.7319 0-.7303.3102-1.2476.7476-1.2476.331 0 .51.2553.51.7279 0 .7354-.3153 1.2516-.7637 1.2516zm-4.4343-.7802c-.1011-.0118-.12-.0151-.1896-.0151-.5458 0-.8219.2125-.8219.5648 0 .2309.1352.3786.3451.3786.4655-.0002.6498-.3791.6664-.9283zm.7603 1.6538h-.8327l.0188-.3849c-.2107.2898-.4964.4491-1.0094.4491-.4653 0-.8889-.4051-.8846-1.0183.0062-.882.6552-1.4265 1.6954-1.4265.1098 0 .281-.0039.424.0146.03-.1219.0379-.1743.0379-.2406 0-.246-.1992-.3242-.649-.3242-.2744 0-.5828.0492-.7969.1127l-.1335.0387-.0562.015.1335-.8343c.4501-.1385.7637-.1967 1.1196-.1967.8269 0 1.2641.377 1.2641 1.0883 0 .1835.0179.3224-.0453.7362l-.2011 1.316-.0337.237-.0245.1882-.017.1297-.0094.1zM11.54 22.7266c.1886-.0017.4461.0185.7237.0558l.1368-.8568c-.2818-.0428-.6407-.0752-.8601-.0752-1.0756 0-1.4304.5832-1.4304 1.2677 0 .4416.2114.7732.7192 1.0157.3894.1861.4564.2196.4564.3883 0 .231-.1984.3626-.5788.3626-.2869 0-.5538-.0458-.8616-.1464l-.1118.8532.0213.0043.1763.0373c.0566.0123.1424.0269.2529.0369.2286.0211.4218.0344.5464.0344 1.0685 0 1.51-.4201 1.51-1.2387 0-.5094-.2395-.8084-.7212-1.0333-.4029-.1878-.4517-.2138-.4495-.387.0017-.1711.1764-.3166.4704-.3188z" clip-rule="evenodd"/><path fill="#fff" fill-rule="evenodd" d="M22.6912 20.935l-.1579.991c-.343-.1756-.5928-.2469-.8602-.2469-.7184 0-1.2226.7047-1.2226 1.7101 0 .6933.3388 1.1119.8984 1.1119.2374 0 .499-.0747.8182-.234l-.1692 1.0406c-.355.0977-.5841.1333-.851.1333-1.0364 0-1.6824-.7562-1.6824-1.9709 0-1.6321.8921-2.7725 2.1686-2.7725.1645 0 .3084.0159.4306.047l.3948.1009c.122.0437.1469.0536.2327.0895zm-3.0903.6791a.4736.4736 0 0 0-.0972-.0092c-.3159 0-.496.164-.7908.6029l.0851-.5626h-.871l-.5874 3.7123h.9631c.3446-2.2701.4353-2.6612.8976-2.6612.0296 0 .032-.0012.0703.0035.0856-.4478.2041-.7768.3655-1.0771l-.0352-.0086zm-5.5472 3.6975c-.2633.0843-.4692.1206-.6918.1206-.4923 0-.761-.2872-.761-.8154 0-.1039.0096-.2155.0286-.3329l.0583-.363.0451-.2939.4174-2.5334h.957l-.1102.5512h.4912l-.1322.9026h-.4931l-.2536 1.5486a1.0332 1.0332 0 0 0-.0166.1539c0 .1917.0997.2746.3285.2746.1096 0 .1945-.0114.2595-.0348l-.1271.8219zm-3.6986-2.4935c0 .4692.2241.7918.732 1.0345.3895.1861.4498.2411.4498.4096 0 .2309-.1718.3353-.5518.3353-.2873 0-.5538-.0458-.8616-.1469l-.1322.8565.043.0083.1762.0378c.0565.0114.1405.0223.251.0322.2286.0211.4057.0314.5302.0314 1.0145 0 1.483-.3924 1.483-1.2392 0-.5089-.1958-.8083-.6775-1.0329-.4032-.1878-.4496-.2296-.4496-.4024 0-.2005.1597-.3031.4707-.3031.1885 0 .4463.021.6909.0558l.1371-.8599c-.2491-.0399-.6267-.0721-.8461-.0721-1.0762.0002-1.4483.5705-1.4451 1.2551zm19.6867 2.5392h-.9108l.0474-.3634c-.2643.2863-.537.4121-.8901.4121-.7001 0-1.1629-.6128-1.1629-1.5411 0-1.2355.7176-2.2768 1.5669-2.2768.3738 0 .659.1567.9221.5081l.2107-1.3035h.95l-.7333 4.5646zm-1.4202-.8736c.4481 0 .7637-.516.7637-1.2522 0-.472-.1792-.7279-.5104-.7279-.4374 0-.7471.5177-.7471 1.2475 0 .4864.1658.7326.4938.7326zm-11.6269.7931c-.3299.102-.6488.1518-.9864.1505-1.0753-.0005-1.6362-.5705-1.6362-1.6622 0-1.2748.7133-2.2128 1.6816-2.2128.7927 0 1.2982.5252 1.2982 1.349 0 .2737-.0345.5405-.1181.9166h-1.9136a.8266.8266 0 0 0-.0092.1165c0 .4306.2855.6502.8444.6502.344 0 .6543-.0726.9996-.2353l-.1603.9275zm-.5404-2.208a2.7983 2.7983 0 0 0 .0083-.1896c0-.3013-.1686-.478-.4553-.478-.3061 0-.5249.237-.6141.665l1.0611.0026zM6.705 25.3573h-.9632l.552-3.5088-1.2316 3.5088h-.6565l-.081-3.4888-.5797 3.4888h-.9014l.7528-4.5646h1.3847l.039 2.8262.9337-2.8262h1.4956l-.7444 4.5646zm2.3708-1.6538a1.5943 1.5943 0 0 0-.215-.0151c-.5455 0-.8218.19-.8218.5648 0 .2309.135.3786.3452.3786.3921-.0002.675-.3791.6916-.9283zm.7005 1.6538h-.798l.0185-.3849c-.2437.3044-.568.4491-1.0095.4491-.5215 0-.8794-.4134-.8794-1.0142 0-.9039.6222-1.4313 1.6906-1.4313.1094 0 .2492.0105.3922.029.03-.1219.038-.1747.038-.241 0-.246-.168-.3375-.6174-.3375-.275 0-.5853.04-.7994.1035l-.1337.0395-.0862.0238.1334-.8347c.48-.143.7963-.1967 1.152-.1967.8272 0 1.2642.3765 1.2642 1.0883 0 .1833-.0147.3224-.0781.7362l-.2014 1.316-.0336.2366-.0247.1886-.0168.1297-.0107.1zm14.4683-1.6538a1.5929 1.5929 0 0 0-.215-.0151c-.5457 0-.8218.19-.8218.5648 0 .2309.1352.3786.3455.3786.3921-.0002.6747-.3791.6913-.9283zm.7003 1.6538h-.7978l.0188-.3849c-.2437.3044-.5684.4491-1.0094.4491-.5217 0-.8797-.4134-.8797-1.0142 0-.9039.6219-1.4313 1.6903-1.4313.1098 0 .2494.0105.3925.029.03-.1219.0379-.1747.0379-.241 0-.246-.168-.3375-.6173-.3375-.2748 0-.5854.04-.7995.1035l-.1335.0395-.0864.0238.1335-.8347c.4797-.143.7965-.1967 1.1519-.1967.8274 0 1.2646.3765 1.2646 1.0883 0 .1833-.0149.3224-.0781.7362l-.2011 1.316-.0337.2366-.0249.1886-.0166.1297-.0115.1zm2.5828-3.7432a.4736.4736 0 0 0-.0972-.0092c-.3159 0-.4956.164-.7908.6029l.0851-.5626h-.8714l-.5866 3.7123h.9627c.3446-2.2701.4357-2.6612.8976-2.6612.0296 0 .0283-.0012.0664.0035.086-.4486.2042-.7768.3655-1.0771l-.0313-.0086z" clip-rule="evenodd"/></svg>