<svg width="64" height="63" viewBox="0 0 64 63" fill="none" xmlns="http://www.w3.org/2000/svg">
<path d="M31.5804 60.0471C47.3864 60.0471 60.1998 47.2662 60.1998 31.5003C60.1998 15.7343 47.3864 2.95349 31.5804 2.95349C15.7743 2.95349 2.96094 15.7343 2.96094 31.5003C2.96094 47.2662 15.7743 60.0471 31.5804 60.0471Z" fill="#282C35"/>
<path d="M58.8446 43.9851C59.5259 40.5329 60.2902 37.0942 60.7991 33.6116C60.9721 32.2178 61.0947 30.8201 61.1581 29.4179C61.0616 29.399 60.9651 29.3775 60.8743 29.3521C60.6232 29.2812 60.3791 29.1875 60.1451 29.0723C60.1811 29.6582 60.1995 30.2487 60.2001 30.8438C60.2001 46.6097 47.3867 59.3906 31.5807 59.3906C15.7747 59.3906 2.96128 46.6097 2.96128 30.8438C2.96128 30.0346 2.99666 29.2337 3.06293 28.4415C2.71513 28.6384 2.3421 28.7871 1.9541 28.8837C1.957 32.1061 1.98981 35.3349 2.36939 38.5375C2.39609 38.7126 2.42311 38.8878 2.45174 39.063C2.64056 40.2133 2.60293 41.2096 2.13006 42.2396C6.70851 54.004 18.1667 62.3451 31.5791 62.3451C43.2628 62.3451 53.4638 56.0155 58.9263 46.6071C58.6557 45.7649 58.668 44.8799 58.8446 43.9851Z" fill="#7B859B"/>
<path d="M3.66631 24.4666C2.78812 27.8036 2.1319 31.2368 2.02832 34.6701C2.42957 34.8062 2.79823 35.0237 3.11109 35.3089C3.01162 34.3341 2.9618 33.355 2.96183 32.3752C2.96183 16.6094 15.7753 3.82846 31.5812 3.82846C47.3872 3.82846 60.2007 16.6094 60.2007 32.3752C60.2035 35.602 59.657 38.8057 58.5846 41.85L58.5923 41.8416C58.8586 41.5564 59.1221 41.2683 59.3772 40.9731C59.4947 40.8372 59.6104 40.7 59.7243 40.5614L59.7452 40.5354C59.9124 40.2056 60.2026 39.9011 60.3985 39.5844C60.6117 39.2413 60.8061 38.887 60.9807 38.523C61.0164 38.4482 61.0721 38.229 61.1367 38.17C61.1834 38.0529 61.2297 37.9355 61.2738 37.8171C61.41 37.4519 61.5345 37.0827 61.6473 36.7094C61.8882 35.9121 62.0776 35.1001 62.2144 34.2786C62.224 34.2199 62.233 34.1612 62.242 34.1024C62.2501 33.9356 62.2858 33.7633 62.3015 33.5987C62.3386 33.2201 62.3656 32.8405 62.3823 32.46C62.4183 31.6349 62.4123 30.8086 62.3643 29.9842C62.3405 29.5705 62.3072 29.1575 62.2646 28.7453C62.2472 28.5762 62.2256 28.4078 62.2073 28.2387C62.2034 28.2092 62.1999 28.1796 62.1957 28.1508C62.0725 27.3255 61.9165 26.5057 61.7328 25.6917C61.3722 24.0935 60.9042 22.5219 60.3715 20.9724C60.2007 20.4727 60.204 19.93 60.3808 19.4323C55.4292 8.49091 44.3963 0.875244 31.5796 0.875244C21.3963 0.875244 12.3404 5.68433 6.5656 13.1482C6.79077 13.4222 6.88727 13.7986 6.74895 14.2472C5.69546 17.6454 4.57215 21.0251 3.66631 24.4666Z" fill="#0D1019"/>
<path d="M31.5802 0C14.1391 0 0 14.1032 0 31.5C0 48.8968 14.1391 63 31.5802 63C49.0212 63 63.1603 48.8968 63.1603 31.5C63.1603 14.1032 49.0212 0 31.5802 0ZM31.5802 60.0468C15.7742 60.0468 2.96073 47.2659 2.96073 31.5C2.96073 15.7341 15.7742 2.95322 31.5802 2.95322C47.3862 2.95322 60.1996 15.7341 60.1996 31.5C60.1996 47.2659 47.3862 60.0468 31.5802 60.0468Z" fill="#565C6A"/>
<path d="M31.0377 40.0863C36.3707 40.1851 41.605 40.2838 46.9381 40.4813C46.7405 41.2714 46.543 41.9627 46.4443 42.6541C46.148 43.6417 45.8517 44.5305 45.6542 45.5181C45.5554 46.0119 45.3579 46.1107 44.8641 46.1107C38.2472 46.1107 31.729 46.1107 25.1121 46.1107C23.2356 46.1107 21.3592 46.1107 19.384 46.1107C20.2728 42.6541 21.1617 39.395 22.0505 35.9384C20.6679 36.4322 19.4827 36.926 18.1001 37.5185C18.4951 36.0371 18.8902 34.7532 19.384 33.3706C19.384 33.1731 19.6803 33.0743 19.8778 33.0743C20.7666 32.6793 21.7542 32.383 22.6431 31.988C22.9393 31.8892 23.2356 31.5929 23.2356 31.2966C24.6183 26.1611 26.0009 21.0256 27.3836 15.8901C27.4823 15.2975 27.6798 15.1 28.3712 15.1C31.1364 15.1 33.9017 15.1 36.667 15.1C36.8645 15.1 37.0621 15.1 37.3583 15.1C36.272 19.1491 35.2844 23.1983 34.198 27.445C35.7782 26.7537 37.2596 26.1611 38.9385 25.5686C38.741 26.3586 38.4447 27.05 38.3459 27.7413C38.1484 29.3214 37.2596 30.2103 35.6794 30.6053C34.9881 30.8028 34.2968 31.0991 33.6054 31.3954C33.4079 31.4942 33.1116 31.7904 33.0129 31.988C32.3216 34.6545 31.6302 37.2223 31.0377 39.8888C31.0377 39.8888 31.0377 39.9875 31.0377 40.0863Z" fill="#C8D1FF"/>
<path d="M30.9376 40.6415C36.2706 40.7402 41.5049 40.839 46.838 41.0365C46.6404 41.8266 46.4429 42.5179 46.3442 43.2092C46.0479 44.1968 45.7516 45.0857 45.5541 46.0733C45.4553 46.5671 45.2578 46.6658 44.764 46.6658C38.1471 46.6658 31.6289 46.6658 25.012 46.6658C23.1355 46.6658 21.2591 46.6658 19.2839 46.6658C20.1727 43.2092 21.0616 39.9502 21.9504 36.4935C20.5678 36.9873 19.3826 37.4811 18 38.0737C18.395 36.5923 18.7901 35.3084 19.2839 33.9258C19.2839 33.7283 19.5802 33.6295 19.7777 33.6295C20.6665 33.2345 21.6541 32.9382 22.543 32.5431C22.8392 32.4444 23.1355 32.1481 23.1355 31.8518C24.5182 26.7163 25.9008 21.5808 27.2835 16.4452C27.3822 15.8527 27.5797 15.6552 28.2711 15.6552C31.0363 15.6552 33.8016 15.6552 36.5669 15.6552C36.7644 15.6552 36.962 15.6552 37.2582 15.6552C36.1719 19.7043 35.1843 23.7535 34.0979 28.0002C35.6781 27.3089 37.1595 26.7163 38.8384 26.1237C38.6409 26.9138 38.3446 27.6051 38.2458 28.2965C38.0483 29.8766 37.1595 30.7655 35.5793 31.1605C34.888 31.358 34.1967 31.6543 33.5053 31.9506C33.3078 32.0493 33.0115 32.3456 32.9128 32.5431C32.2215 35.2097 31.5301 37.7774 30.9376 40.444C30.9376 40.444 30.9376 40.5427 30.9376 40.6415Z" fill="#788AEE"/>
</svg>
