<svg width="67" height="67" viewBox="0 0 67 67" fill="none" xmlns="http://www.w3.org/2000/svg">
<path d="M58.2161 14.3673L44.2577 0.408936C43.996 0.147217 43.6416 0 43.2707 0H13.9582C10.8804 0 8.375 2.50399 8.375 5.58338V61.4168C8.375 64.496 10.8804 67 13.9584 67H53.0418C56.1196 67 58.625 64.496 58.625 61.4166V15.3541C58.625 14.9834 58.4778 14.629 58.2161 14.3673ZM44.6666 4.76551L53.8595 13.9584H47.4582C45.9179 13.9584 44.6666 12.7057 44.6666 11.1668V4.76551ZM55.8334 61.4166C55.8334 62.9555 54.582 64.2082 53.0418 64.2082H13.9584C12.418 64.2082 11.1668 62.9555 11.1668 61.4166V5.58338C11.1668 4.04447 12.4182 2.79175 13.9584 2.79175H41.875V11.1668C41.875 14.246 44.3804 16.75 47.4584 16.75H55.8334V61.4166Z" fill="#8394EC"/>
<path d="M48.8541 39.0833H18.1459C17.3743 39.0833 16.75 39.7076 16.75 40.4791C16.75 41.2507 17.3743 41.875 18.1459 41.875H48.8543C49.6258 41.875 50.2501 41.2507 50.2501 40.4791C50.25 39.7076 49.6257 39.0833 48.8541 39.0833Z" fill="#8394EC"/>
<path d="M48.8541 30.7083H18.1459C17.3743 30.7083 16.75 31.3326 16.75 32.1041C16.75 32.8757 17.3743 33.5 18.1459 33.5H48.8543C49.6258 33.5 50.2501 32.8757 50.2501 32.1041C50.25 31.3326 49.6257 30.7083 48.8541 30.7083Z" fill="#8394EC"/>
<path d="M48.8541 47.4583H18.1459C17.3743 47.4583 16.75 48.0826 16.75 48.8541C16.75 49.6257 17.3743 50.25 18.1459 50.25H48.8543C49.6258 50.25 50.2501 49.6257 50.2501 48.8541C50.25 48.0826 49.6257 47.4583 48.8541 47.4583Z" fill="#8394EC"/>
<path d="M34.8959 55.8333H18.1459C17.3743 55.8333 16.75 56.4576 16.75 57.2291C16.75 58.0007 17.3743 58.625 18.1459 58.625H34.8959C35.6674 58.625 36.2918 58.0007 36.2918 57.2291C36.2916 56.4576 35.6674 55.8333 34.8959 55.8333Z" fill="#8394EC"/>
<path d="M30.7084 23.7291C30.7084 24.5007 31.3327 25.125 32.1043 25.125H48.8543C49.6258 25.125 50.2501 24.5007 50.2501 23.7291C50.2501 22.9576 49.6258 22.3333 48.8543 22.3333H32.1043C31.3327 22.3334 30.7084 22.9577 30.7084 23.7291Z" fill="#8394EC"/>
<path d="M20.9375 22.3333H18.1459C17.3743 22.3333 16.75 22.9576 16.75 23.7291C16.75 24.5007 17.3743 25.125 18.1459 25.125H19.5418C19.5418 25.8966 20.1661 26.5209 20.9376 26.5209C21.7092 26.5209 22.3335 25.8966 22.3335 25.125V24.8679C23.9546 24.2896 25.125 22.7548 25.125 20.9374C25.125 18.6282 23.2466 16.7499 20.9375 16.7499C20.1687 16.7499 19.5416 16.1243 19.5416 15.354C19.5416 14.5839 20.1687 13.9581 20.9375 13.9581H23.7291C24.5007 13.9581 25.125 13.3338 25.125 12.5623C25.125 11.7907 24.5007 11.1664 23.7291 11.1664H22.3332C22.3332 10.3948 21.7089 9.77051 20.9374 9.77051C20.1658 9.77051 19.5415 10.3948 19.5415 11.1664V11.4235C17.9204 12.0018 16.75 13.5366 16.75 15.354C16.75 17.6632 18.6284 19.5415 20.9375 19.5415C21.7063 19.5415 22.3334 20.1672 22.3334 20.9374C22.3334 21.7076 21.7063 22.3333 20.9375 22.3333Z" fill="#8394EC"/>
</svg>
