<svg width="81" height="80" viewBox="0 0 81 80" fill="none" xmlns="http://www.w3.org/2000/svg">
<path d="M44.0562 3.32856C44.0562 2.10836 43.0206 1.09078 41.7924 1.09078H3.02002C1.77755 1.03011 0.75 2.0613 0.75 3.32856C0.75 4.54876 1.78556 5.56634 3.01373 5.56634H41.7924C43.0206 5.56634 44.0562 4.54876 44.0562 3.32856Z" fill="#3F50A9" stroke="#3F50A9" stroke-width="0.5"/>
<path d="M38.3601 12.0179C38.3601 10.7977 37.3245 9.78015 36.0964 9.78015H8.70965C7.48148 9.78015 6.44592 10.7977 6.44592 12.0179C6.44592 13.2381 7.48148 14.2557 8.70965 14.2557H36.0388C37.3199 14.2557 38.3601 13.2427 38.3601 12.0179Z" fill="#3F50A9" stroke="#3F50A9" stroke-width="0.5"/>
<path d="M32.5492 20.7074C32.5492 19.4872 31.5136 18.4696 30.2854 18.4696H14.5208C13.2926 18.4696 12.2571 19.4872 12.2571 20.7074C12.2571 21.9276 13.2926 22.9452 14.5208 22.9452H30.2854C31.5089 22.9452 32.5492 21.989 32.5492 20.7074Z" fill="#3F50A9" stroke="#3F50A9" stroke-width="0.5"/>
<path d="M34.5807 20.7074V39.2789C34.5807 40.4991 35.6162 41.5167 36.8444 41.5167C38.0726 41.5167 39.1082 40.4991 39.1082 39.2789V20.7074C39.1082 19.4872 38.0726 18.4696 36.8444 18.4696C35.6162 18.4696 34.5807 19.4872 34.5807 20.7074Z" fill="#3F50A9" stroke="#3F50A9" stroke-width="0.5"/>
<path d="M22.8906 25.9111L22.8906 25.9107L22.877 25.91C21.7171 25.8464 20.6744 26.6736 20.5436 27.8354L20.5434 27.8354L20.5427 27.8454C20.4852 28.6399 20.427 29.5002 20.427 30.3055C20.427 46.5757 33.8323 59.861 50.3651 59.861C66.8977 59.861 80.3033 46.6328 80.3033 30.3055C80.3033 13.9773 66.7816 0.75 50.3076 0.75H50.3014C49.5018 0.75 48.8036 0.749999 48.1041 0.807364C46.931 0.873636 46.0194 1.90239 46.146 3.12168C46.2156 4.2912 47.3247 5.18108 48.4923 5.05384C49.0527 4.99862 49.6721 4.99838 50.3651 4.99838C64.4988 4.99838 75.9484 16.305 75.9484 30.2487C75.9484 44.1924 64.4988 55.4991 50.3651 55.4991C36.23 55.4991 24.7243 44.2478 24.7243 30.3055C24.7243 29.637 24.7807 28.9097 24.8382 28.2285C24.9683 27.0546 24.0464 26.0378 22.8906 25.9111Z" fill="#3F50A9" stroke="#3F50A9" stroke-width="0.5"/>
<path d="M53.8748 18.4696C47.4109 18.4696 42.1753 23.6331 42.1753 30.0215C42.1753 36.41 47.4109 41.5735 53.8748 41.5735C56.093 41.5735 58.1485 40.9753 59.8797 39.9351L60.8911 40.9335C61.7939 41.8247 63.2162 41.8247 64.1191 40.9335C65.0237 40.0405 65.0237 38.6309 64.1191 37.7379L63.2419 36.872C64.688 34.9811 65.5167 32.6085 65.5167 30.0215C65.5167 23.6339 60.2819 18.4696 53.8748 18.4696ZM46.1274 30.0215C46.1274 25.8463 49.5796 22.434 53.8172 22.434C58.0549 22.434 61.5071 25.8463 61.5071 30.0215C61.5071 34.1967 58.0549 37.6091 53.8172 37.6091C49.5796 37.6091 46.1274 34.1967 46.1274 30.0215Z" fill="#3F50A9" stroke="#3F50A9" stroke-width="0.5"/>
<path d="M26.4567 79.2617H23.8101V67.051H26.4567V79.2617Z" fill="#3F50A9"/>
<path d="M35.6623 79.4889C33.8212 79.4889 32.2677 78.921 31.0595 77.7283C29.8513 76.5356 29.2184 75.059 29.2184 73.1848C29.2184 71.3106 29.8513 69.834 31.0595 68.6413C32.2677 67.4487 33.8212 66.8807 35.6623 66.8807C37.561 66.8807 39.0569 67.4487 40.3227 68.6413C41.5309 69.834 42.1638 71.3106 42.1638 73.1848C42.1638 74.8886 41.646 76.3653 40.5528 77.5011L41.4734 78.5234L39.6323 80.0001L38.6542 78.8642C37.6761 79.2617 36.698 79.4889 35.6623 79.4889ZM35.6623 77.1604C36.1226 77.1604 36.5254 77.1036 36.9856 76.9332L35.6623 75.343L37.5035 73.8663L38.8843 75.4566C39.287 74.775 39.5172 73.9799 39.5172 73.128C39.5172 71.9922 39.172 71.0267 38.4816 70.2316C37.7911 69.4932 36.8706 69.0957 35.7774 69.0957C34.6842 69.0957 33.7637 69.4932 33.0732 70.2316C32.3828 70.9699 32.0376 71.9354 32.0376 73.128C32.0376 74.2639 32.3828 75.2294 33.0732 76.0245C33.6486 76.7628 34.5692 77.1604 35.6623 77.1604Z" fill="#3F50A9"/>
<path d="M53.2681 79.2617H50.9091V78.1258C50.1037 79.0345 49.068 79.432 47.7447 79.432C46.7666 79.432 46.0762 79.2049 45.5584 78.6937C45.0981 78.1826 44.8104 77.5011 44.8104 76.6492V70.4019H47.1694V75.7405C47.1694 76.8195 47.7447 77.3875 48.8379 77.3875C49.6434 77.3875 50.3338 77.0467 50.8516 76.3652V70.4019H53.2106V79.2617H53.2681Z" fill="#3F50A9"/>
<path d="M57.6407 69.4932C57.238 69.4932 56.9503 69.3796 56.6626 69.0956C56.375 68.8117 56.2599 68.4709 56.2599 68.1301C56.2599 67.7894 56.375 67.4486 56.6626 67.1646C56.9503 66.8807 57.2955 66.7671 57.6407 66.7671C58.0435 66.7671 58.3887 66.8807 58.6188 67.1646C58.9065 67.4486 59.0216 67.7326 59.0216 68.1301C59.0216 68.5277 58.9065 68.8117 58.6188 69.0956C58.3887 69.3228 58.0435 69.4932 57.6407 69.4932ZM58.849 79.2617H56.49V70.4019H58.849V79.2617Z" fill="#3F50A9"/>
<path d="M66.271 79.4888C64.8901 79.4888 63.7394 79.0345 62.8764 78.1826C62.0134 77.3307 61.5531 76.1948 61.5531 74.8318C61.5531 73.4687 62.0134 72.3896 62.8764 71.4809C63.7394 70.629 64.8901 70.1747 66.271 70.1747C67.8244 70.1747 69.0327 70.6858 69.7806 71.7649L68.2272 73.1847C67.7669 72.56 67.1915 72.2193 66.3285 72.2193C65.6381 72.2193 65.0052 72.4464 64.6025 72.9008C64.1422 73.3551 63.912 73.9799 63.912 74.775C63.912 75.5701 64.1422 76.138 64.6025 76.6491C65.0627 77.1035 65.6381 77.3875 66.3285 77.3875C67.134 77.3875 67.7669 77.0467 68.2272 76.422L69.7806 77.8418C69.0327 78.9209 67.882 79.4888 66.271 79.4888Z" fill="#3F50A9"/>
<path d="M81 79.2617H78.0657L75.7067 75.854L74.6136 76.9899V79.2617H72.2546V67.051H74.6136V74.3206L78.0081 70.4019H80.8849L77.3753 74.3774L81 79.2617Z" fill="#3F50A9"/>
</svg>
