<svg width="140" height="141" viewBox="0 0 140 141" fill="none" xmlns="http://www.w3.org/2000/svg">
<g filter="url(#filter0_d)">
<path d="M69.7953 98.9155C92.2156 98.9155 110.391 80.7538 110.391 58.3502C110.391 35.9466 92.2156 17.7849 69.7953 17.7849C47.375 17.7849 29.1997 35.9466 29.1997 58.3502C29.1997 80.7538 47.375 98.9155 69.7953 98.9155Z" fill="#C2C2C2"/>
<path d="M108.468 76.0914C109.434 71.1859 110.519 66.2995 111.24 61.3506C111.486 59.37 111.66 57.3839 111.75 55.3914C111.613 55.3645 111.476 55.3339 111.347 55.2979C110.991 55.1971 110.645 55.064 110.313 54.9003C110.364 55.7329 110.39 56.572 110.391 57.4176C110.391 79.8211 92.2155 97.9829 69.7953 97.9829C47.3751 97.9829 29.1998 79.8211 29.1998 57.4176C29.1998 56.2677 29.2499 55.1296 29.3439 54.0039C28.8506 54.2836 28.3215 54.495 27.7711 54.6322C27.7752 59.2113 27.8218 63.7995 28.3602 68.3503C28.3981 68.5993 28.4364 68.8482 28.477 69.0972C28.7448 70.7318 28.6915 72.1475 28.0207 73.6111C34.5151 90.3284 50.7681 102.181 69.793 102.181C86.3659 102.181 100.836 93.1868 108.584 79.8174C108.2 78.6206 108.218 77.3631 108.468 76.0914Z" fill="#D4D4D4"/>
<path d="M30.2012 48.3552C28.9556 53.097 28.0247 57.9757 27.8778 62.8543C28.447 63.0478 28.9699 63.3569 29.4137 63.7621C29.2726 62.377 29.2019 60.9857 29.202 59.5934C29.202 37.1899 47.3773 19.0281 69.7975 19.0281C92.2177 19.0281 110.393 37.1899 110.393 59.5934C110.397 64.1786 109.622 68.7312 108.101 73.0571L108.112 73.0452C108.489 72.6399 108.863 72.2305 109.225 71.811C109.392 71.618 109.556 71.423 109.717 71.226L109.747 71.1891C109.984 70.7204 110.396 70.2877 110.674 69.8376C110.976 69.3502 111.252 68.8467 111.5 68.3294C111.55 68.2231 111.629 67.9117 111.721 67.8278C111.787 67.6614 111.853 67.4945 111.915 67.3263C112.108 66.8074 112.285 66.2828 112.445 65.7523C112.787 64.6193 113.055 63.4655 113.249 62.2981C113.263 62.2146 113.276 62.1312 113.289 62.0478C113.3 61.8107 113.351 61.5658 113.373 61.3319C113.426 60.7939 113.464 60.2545 113.488 59.7138C113.539 58.5414 113.53 57.3672 113.462 56.1957C113.428 55.6078 113.381 55.021 113.321 54.4352C113.296 54.195 113.265 53.9556 113.239 53.7153C113.234 53.6734 113.229 53.6314 113.223 53.5904C113.048 52.4177 112.827 51.2527 112.566 50.096C112.055 47.8249 111.391 45.5917 110.635 43.3899C110.393 42.6797 110.398 41.9086 110.649 41.2013C103.625 25.6535 87.9751 14.8315 69.7952 14.8315C55.3505 14.8315 42.5051 21.6653 34.3138 32.2716C34.6332 32.661 34.77 33.1958 34.5738 33.8332C33.0795 38.6622 31.4861 43.4647 30.2012 48.3552Z" fill="#9C9C9C"/>
<path d="M69.7952 13.5884C45.0557 13.5884 25 33.6291 25 58.3502C25 83.0713 45.0557 103.112 69.7952 103.112C94.5348 103.112 114.59 83.0713 114.59 58.3502C114.59 33.6291 94.5348 13.5884 69.7952 13.5884ZM69.7952 98.9155C47.375 98.9155 29.1997 80.7537 29.1997 58.3502C29.1997 35.9467 47.375 17.7849 69.7952 17.7849C92.2154 17.7849 110.391 35.9467 110.391 58.3502C110.391 80.7537 92.2154 98.9155 69.7952 98.9155Z" fill="#B3B3B3"/>
</g>
<path d="M69.4155 68.9852L71.7938 60.1323L77.4244 58.0987L78.8249 52.8958L78.7771 52.7668L73.2345 54.7685L77.228 39.9033H65.9025L60.68 59.3027L56.3196 60.8774L54.8788 66.2412L59.2359 64.6678L56.1579 76.1008H86.2995L88.2319 68.9852H69.4155Z" fill="white"/>
<g clip-path="url(#clip0)" filter="url(#filter1_d)">
<path d="M48.1391 26.5692C48.1391 30.6866 44.7988 34.0243 40.6784 34.0243C36.5579 34.0243 33.2177 30.6866 33.2177 26.5692C33.2177 22.4518 36.5579 19.114 40.6784 19.114C44.7988 19.114 48.1391 22.4518 48.1391 26.5692Z" fill="#9C9C9C"/>
<path d="M40.6783 27.2891C40.1381 27.2891 39.7001 27.7266 39.7001 28.2666C39.7001 28.6285 39.8976 28.9438 40.1903 29.1129V30.1996H41.1663V29.1129C41.459 28.9439 41.6565 28.6285 41.6565 28.2666C41.6565 27.7266 41.2185 27.2891 40.6783 27.2891Z" fill="#D5D5D5"/>
<path d="M40.6787 22.5491C39.8564 22.5491 39.1876 23.2174 39.1876 24.039V25.6257H42.1696V24.039C42.1695 23.2175 41.5007 22.5491 40.6787 22.5491Z" fill="#D5D5D5"/>
<path d="M40.6782 17.1702C35.483 17.1702 31.2714 21.3788 31.2714 26.5701C31.2714 31.7613 35.483 35.9701 40.6782 35.9701C45.8734 35.9701 50.0854 31.7613 50.0854 26.5701C50.0854 21.3788 45.8734 17.1702 40.6782 17.1702ZM43.5687 31.403H37.7881C37.1777 31.403 36.6827 30.9085 36.6827 30.2983V26.7313C36.6827 26.1992 37.0595 25.7548 37.5609 25.6503V24.0399C37.5609 22.3223 38.9595 20.9246 40.6785 20.9246C42.3975 20.9246 43.796 22.3221 43.796 24.0399V25.6503C44.2973 25.7551 44.674 26.1992 44.674 26.7313V30.2983H44.6741C44.6741 30.9084 44.1792 31.403 43.5687 31.403Z" fill="#D5D5D5"/>
</g>
<defs>
<filter id="filter0_d" x="0" y="0.588379" width="139.59" height="139.524" filterUnits="userSpaceOnUse" color-interpolation-filters="sRGB">
<feFlood flood-opacity="0" result="BackgroundImageFix"/>
<feColorMatrix in="SourceAlpha" type="matrix" values="0 0 0 0 0 0 0 0 0 0 0 0 0 0 0 0 0 0 127 0"/>
<feOffset dy="12"/>
<feGaussianBlur stdDeviation="12.5"/>
<feColorMatrix type="matrix" values="0 0 0 0 0 0 0 0 0 0 0 0 0 0 0 0 0 0 0.17 0"/>
<feBlend mode="normal" in2="BackgroundImageFix" result="effect1_dropShadow"/>
<feBlend mode="normal" in="SourceGraphic" in2="effect1_dropShadow" result="shape"/>
</filter>
<filter id="filter1_d" x="29.2714" y="17.1692" width="22.814" height="22.8" filterUnits="userSpaceOnUse" color-interpolation-filters="sRGB">
<feFlood flood-opacity="0" result="BackgroundImageFix"/>
<feColorMatrix in="SourceAlpha" type="matrix" values="0 0 0 0 0 0 0 0 0 0 0 0 0 0 0 0 0 0 127 0"/>
<feOffset dy="2"/>
<feGaussianBlur stdDeviation="1"/>
<feColorMatrix type="matrix" values="0 0 0 0 0 0 0 0 0 0 0 0 0 0 0 0 0 0 0.12 0"/>
<feBlend mode="normal" in2="BackgroundImageFix" result="effect1_dropShadow"/>
<feBlend mode="normal" in="SourceGraphic" in2="effect1_dropShadow" result="shape"/>
</filter>
<clipPath id="clip0">
<rect width="18.814" height="18.8" fill="white" transform="translate(31.2714 17.1692)"/>
</clipPath>
</defs>
</svg>
