<svg width="214" height="62" viewBox="0 0 214 62" fill="none" xmlns="http://www.w3.org/2000/svg">
<g filter="url(#filter0_i)">
<rect width="214" height="62" rx="31" fill="#3F50A9"/>
</g>
<path d="M83.7548 15.0187C83.7548 14.3794 83.1948 13.8411 82.5298 13.8411H58.9398C58.2748 13.8075 57.7148 14.3458 57.7148 15.0187C57.7148 15.6579 58.2748 16.1962 58.9398 16.1962H82.5298C83.1948 16.1962 83.7548 15.6579 83.7548 15.0187Z" fill="white"/>
<path d="M80.2897 20.1663C80.2897 19.5271 79.7297 18.9888 79.0647 18.9888H62.4047C61.7397 18.9888 61.1797 19.5271 61.1797 20.1663C61.1797 20.8056 61.7397 21.3439 62.4047 21.3439H79.0297C79.7297 21.3439 80.2897 20.8056 80.2897 20.1663Z" fill="white"/>
<path d="M76.7548 25.314C76.7548 24.6748 76.1948 24.1365 75.5298 24.1365H65.9398C65.2748 24.1365 64.7148 24.6748 64.7148 25.314C64.7148 25.9533 65.2748 26.4916 65.9398 26.4916H75.5298C76.1948 26.4916 76.7548 25.9869 76.7548 25.314Z" fill="white"/>
<path d="M78.2949 25.314V36.3159C78.2949 36.9552 78.8549 37.4935 79.5199 37.4935C80.1849 37.4935 80.7449 36.9552 80.7449 36.3159V25.314C80.7449 24.6748 80.1849 24.1365 79.5199 24.1365C78.8549 24.1365 78.2949 24.6748 78.2949 25.314Z" fill="white"/>
<path d="M87.7096 13.6393C87.2196 13.6393 86.7996 13.6393 86.3796 13.6729C85.7496 13.7065 85.2596 14.2449 85.3296 14.8841C85.3646 15.4897 85.9596 15.9607 86.5896 15.8935C86.9396 15.8598 87.3246 15.8598 87.7446 15.8598C96.4246 15.8598 103.46 22.6224 103.46 30.9664C103.46 39.3103 96.4246 46.0729 87.7446 46.0729C79.0646 46.0729 71.9946 39.3439 71.9946 31C71.9946 30.5963 72.0296 30.1589 72.0646 29.7551C72.1346 29.1495 71.6446 28.6112 71.0146 28.5439C70.3846 28.5103 69.8246 28.9477 69.7546 29.5533C69.7196 30.0243 69.6846 30.529 69.6846 31C69.6846 40.5551 77.7696 48.3607 87.7446 48.3607C97.7196 48.3607 105.805 40.5888 105.805 31C105.805 21.4112 97.6496 13.6393 87.7096 13.6393Z" fill="white"/>
<path d="M89.88 24.1365C86.03 24.1365 82.915 27.1309 82.915 30.8318C82.915 34.5327 86.03 37.5271 89.88 37.5271C91.245 37.5271 92.505 37.157 93.555 36.5178L94.255 37.1907C94.745 37.6617 95.515 37.6617 96.005 37.1907C96.495 36.7197 96.495 35.9795 96.005 35.5084L95.375 34.9028C96.285 33.7925 96.81 32.3795 96.81 30.8318C96.81 27.1309 93.695 24.1365 89.88 24.1365ZM85.015 30.8318C85.015 28.2748 87.185 26.1888 89.845 26.1888C92.505 26.1888 94.675 28.2748 94.675 30.8318C94.675 33.3888 92.505 35.4748 89.845 35.4748C87.185 35.4748 85.015 33.3888 85.015 30.8318Z" fill="white"/>
<path d="M117.462 35.0433H115.495V26.2055H117.462V35.0433Z" fill="white"/>
<path d="M124.304 35.2077C122.936 35.2077 121.781 34.7966 120.883 33.9334C119.985 33.0702 119.515 32.0015 119.515 30.645C119.515 29.2885 119.985 28.2197 120.883 27.3565C121.781 26.4933 122.936 26.0822 124.304 26.0822C125.715 26.0822 126.827 26.4933 127.768 27.3565C128.666 28.2197 129.136 29.2885 129.136 30.645C129.136 31.8781 128.751 32.9469 127.939 33.769L128.623 34.5089L127.254 35.5777L126.528 34.7555C125.801 35.0433 125.074 35.2077 124.304 35.2077ZM124.304 33.5224C124.646 33.5224 124.945 33.4813 125.287 33.3579L124.304 32.207L125.672 31.1382L126.699 32.2892C126.998 31.7959 127.169 31.2204 127.169 30.6039C127.169 29.7817 126.912 29.0829 126.399 28.5075C125.886 27.9731 125.202 27.6853 124.389 27.6853C123.577 27.6853 122.893 27.9731 122.38 28.5075C121.867 29.0418 121.61 29.7406 121.61 30.6039C121.61 31.426 121.867 32.1248 122.38 32.7003C122.807 33.2346 123.491 33.5224 124.304 33.5224Z" fill="white"/>
<path d="M137.389 35.0433H135.636V34.2212C135.038 34.8788 134.268 35.1666 133.284 35.1666C132.557 35.1666 132.044 35.0022 131.659 34.6322C131.317 34.2623 131.104 33.769 131.104 33.1524V28.6308H132.857V32.4947C132.857 33.2757 133.284 33.6868 134.097 33.6868C134.695 33.6868 135.209 33.4401 135.593 32.9469V28.6308H137.347V35.0433H137.389Z" fill="white"/>
<path d="M140.64 27.9731C140.34 27.9731 140.126 27.8909 139.913 27.6853C139.699 27.4798 139.613 27.2332 139.613 26.9865C139.613 26.7399 139.699 26.4933 139.913 26.2877C140.126 26.0822 140.383 26 140.64 26C140.939 26 141.195 26.0822 141.367 26.2877C141.58 26.4933 141.666 26.6988 141.666 26.9865C141.666 27.2743 141.58 27.4798 141.367 27.6853C141.195 27.8498 140.939 27.9731 140.64 27.9731ZM141.538 35.0433H139.784V28.6308H141.538V35.0433Z" fill="white"/>
<path d="M147.053 35.2077C146.027 35.2077 145.172 34.8789 144.53 34.2623C143.889 33.6457 143.547 32.8236 143.547 31.837C143.547 30.8505 143.889 30.0695 144.53 29.4118C145.172 28.7952 146.027 28.4664 147.053 28.4664C148.208 28.4664 149.106 28.8363 149.662 29.6173L148.507 30.645C148.165 30.1928 147.738 29.9462 147.096 29.9462C146.583 29.9462 146.113 30.1106 145.813 30.4394C145.471 30.7683 145.3 31.2205 145.3 31.7959C145.3 32.3714 145.471 32.7825 145.813 33.1524C146.155 33.4813 146.583 33.6868 147.096 33.6868C147.695 33.6868 148.165 33.4402 148.507 32.988L149.662 34.0157C149.106 34.7967 148.251 35.2077 147.053 35.2077Z" fill="white"/>
<path d="M158 35.0433H155.819L154.066 32.5769L153.253 33.399V35.0433H151.5V26.2055H153.253V31.467L155.776 28.6307H157.914L155.306 31.5082L158 35.0433Z" fill="white"/>
<defs>
<filter id="filter0_i" x="0" y="0" width="214" height="67" filterUnits="userSpaceOnUse" color-interpolation-filters="sRGB">
<feFlood flood-opacity="0" result="BackgroundImageFix"/>
<feBlend mode="normal" in="SourceGraphic" in2="BackgroundImageFix" result="shape"/>
<feColorMatrix in="SourceAlpha" type="matrix" values="0 0 0 0 0 0 0 0 0 0 0 0 0 0 0 0 0 0 127 0" result="hardAlpha"/>
<feOffset dy="5"/>
<feGaussianBlur stdDeviation="3"/>
<feComposite in2="hardAlpha" operator="arithmetic" k2="-1" k3="1"/>
<feColorMatrix type="matrix" values="0 0 0 0 0 0 0 0 0 0 0 0 0 0 0 0 0 0 0.17 0"/>
<feBlend mode="normal" in2="shape" result="effect1_innerShadow"/>
</filter>
</defs>
</svg>
