<svg width="137" height="51" viewBox="0 0 137 51" fill="none" xmlns="http://www.w3.org/2000/svg">
<path d="M36.8615 2.94659C36.8615 1.97406 36.0357 1.15976 35.0554 1.15976H2.68434C1.69686 1.11031 0.875 1.93146 0.875 2.94659C0.875 3.91911 1.70086 4.73341 2.68115 4.73341H35.0554C36.0357 4.73341 36.8615 3.91911 36.8615 2.94659Z" fill="white" stroke="white" stroke-width="0.25"/>
<path d="M32.1062 10.2112C32.1062 9.2387 31.2804 8.42441 30.3001 8.42441H7.4364C6.45611 8.42441 5.63025 9.2387 5.63025 10.2112C5.63025 11.1838 6.45611 11.9981 7.4364 11.9981H30.2521C31.2781 11.9981 32.1062 11.186 32.1062 10.2112Z" fill="white" stroke="white" stroke-width="0.25"/>
<path d="M27.255 17.4758C27.255 16.5033 26.4292 15.689 25.4489 15.689H12.2878C11.3075 15.689 10.4817 16.5033 10.4817 17.4758C10.4817 18.4483 11.3075 19.2626 12.2878 19.2626H25.4489C26.4268 19.2626 27.255 18.4981 27.255 17.4758Z" fill="white" stroke="white" stroke-width="0.25"/>
<path d="M29.1183 17.4758V33.002C29.1183 33.9745 29.9441 34.7888 30.9244 34.7888C31.9047 34.7888 32.7306 33.9745 32.7306 33.002V17.4758C32.7306 16.5033 31.9047 15.689 30.9244 15.689C29.9441 15.689 29.1183 16.5033 29.1183 17.4758Z" fill="white" stroke="white" stroke-width="0.25"/>
<path d="M19.2661 21.9097L19.2662 21.9095L19.2594 21.9091C18.3325 21.8582 17.503 22.5201 17.3991 23.4444L17.399 23.4444L17.3986 23.4493C17.3506 24.1137 17.3022 24.8302 17.3022 25.5C17.3022 39.0547 28.455 50.125 42.2123 50.125C55.9693 50.125 67.1223 39.1024 67.1223 25.5C67.1223 11.8972 55.8728 0.875 42.1642 0.875H42.1611C41.4916 0.875 40.9113 0.875 40.3304 0.922765C39.3969 0.97499 38.6716 1.79487 38.7734 2.76693C38.8274 3.69506 39.7094 4.40736 40.6401 4.30553C41.1129 4.25884 41.6346 4.25872 42.2123 4.25872C54.0568 4.25872 63.6541 13.7477 63.6541 25.4525C63.6541 37.1573 54.0568 46.6463 42.2123 46.6463C30.367 46.6463 20.7224 37.2041 20.7224 25.5C20.7224 24.9367 20.7699 24.325 20.8179 23.7554C20.9214 22.8251 20.191 22.0112 19.2661 21.9097Z" fill="white" stroke="white" stroke-width="0.25"/>
<path d="M45.1423 15.689C39.791 15.689 35.4587 19.9694 35.4587 25.2626C35.4587 30.5559 39.791 34.8363 45.1423 34.8363C47.0028 34.8363 48.7241 34.3274 50.1679 33.4449L51.0585 34.3254C51.7797 35.0382 52.9148 35.0382 53.6359 34.3254C54.3579 33.6117 54.3579 32.4872 53.6359 31.7735L52.8507 30.9974C54.0746 29.4218 54.7778 27.4339 54.7778 25.2626C54.7778 19.9698 50.446 15.689 45.1423 15.689ZM38.5907 25.2626C38.5907 21.7245 41.5114 18.8353 45.0943 18.8353C48.6771 18.8353 51.5978 21.7245 51.5978 25.2626C51.5978 28.8008 48.6771 31.69 45.0943 31.69C41.5114 31.69 38.5907 28.8008 38.5907 25.2626Z" fill="white" stroke="white" stroke-width="0.25"/>
<path d="M82.271 31.37H79.661V19.3114H82.271V31.37Z" fill="white"/>
<path d="M91.3493 31.5945C89.5336 31.5945 88.0017 31.0336 86.8102 29.8558C85.6186 28.678 84.9945 27.2198 84.9945 25.3689C84.9945 23.5181 85.6186 22.0598 86.8102 20.882C88.0017 19.7042 89.5336 19.1433 91.3493 19.1433C93.2217 19.1433 94.6969 19.7042 95.9451 20.882C97.1367 22.0598 97.7608 23.5181 97.7608 25.3689C97.7608 27.0515 97.2501 28.5097 96.1721 29.6315L97.0799 30.641L95.2643 32.0993L94.2997 30.9776C93.3351 31.3702 92.3706 31.5945 91.3493 31.5945ZM91.3493 29.295C91.8032 29.295 92.2004 29.2389 92.6543 29.0706L91.3493 27.5002L93.1649 26.0419L94.5267 27.6124C94.9238 26.9393 95.1508 26.1541 95.1508 25.3128C95.1508 24.1911 94.8104 23.2376 94.1295 22.4524C93.4486 21.7233 92.5408 21.3307 91.4628 21.3307C90.3847 21.3307 89.4769 21.7233 88.796 22.4524C88.1152 23.1815 87.7747 24.135 87.7747 25.3128C87.7747 26.4345 88.1152 27.388 88.796 28.1732C89.3634 28.9024 90.2712 29.295 91.3493 29.295Z" fill="white"/>
<path d="M108.711 31.3701H106.385V30.2484C105.591 31.1457 104.569 31.5384 103.264 31.5384C102.3 31.5384 101.619 31.314 101.108 30.8092C100.654 30.3045 100.371 29.6314 100.371 28.7901V22.6206H102.697V27.8927C102.697 28.9584 103.264 29.5192 104.342 29.5192C105.137 29.5192 105.818 29.1827 106.328 28.5097V22.6206H108.655V31.3701H108.711Z" fill="white"/>
<path d="M113.023 21.7233C112.626 21.7233 112.343 21.6111 112.059 21.3307C111.775 21.0502 111.662 20.7137 111.662 20.3772C111.662 20.0407 111.775 19.7042 112.059 19.4237C112.343 19.1433 112.683 19.0311 113.023 19.0311C113.421 19.0311 113.761 19.1433 113.988 19.4237C114.272 19.7042 114.385 19.9846 114.385 20.3772C114.385 20.7698 114.272 21.0502 113.988 21.3307C113.761 21.555 113.421 21.7233 113.023 21.7233ZM114.215 31.3702H111.889V22.6207H114.215V31.3702Z" fill="white"/>
<path d="M121.534 31.5945C120.173 31.5945 119.038 31.1458 118.187 30.3045C117.336 29.4632 116.882 28.3415 116.882 26.9954C116.882 25.6493 117.336 24.5837 118.187 23.6863C119.038 22.845 120.173 22.3963 121.534 22.3963C123.066 22.3963 124.258 22.9011 124.995 23.9667L123.463 25.3689C123.01 24.7519 122.442 24.4154 121.591 24.4154C120.91 24.4154 120.286 24.6398 119.889 25.0884C119.435 25.5371 119.208 26.1541 119.208 26.9393C119.208 27.7245 119.435 28.2854 119.889 28.7902C120.343 29.2388 120.91 29.5193 121.591 29.5193C122.385 29.5193 123.01 29.1828 123.463 28.5658L124.995 29.968C124.258 31.0336 123.123 31.5945 121.534 31.5945Z" fill="white"/>
<path d="M136.059 31.3701H133.166L130.84 28.005L129.761 29.1267V31.3701H127.435V19.3116H129.761V26.4906L133.109 22.6207H135.946L132.485 26.5467L136.059 31.3701Z" fill="white"/>
</svg>
