<svg width="66" height="66" viewBox="0 0 66 66" fill="none" xmlns="http://www.w3.org/2000/svg">
<g clip-path="url(#clip0)">
<path d="M11.8658 34.3057C11.8658 34.916 12.3609 35.4111 12.9712 35.4111C15.1515 35.4111 16.9249 37.1845 16.9249 39.3648C16.9249 39.9752 17.42 40.4697 18.0303 40.4697H46.789C47.3993 40.4697 47.8939 39.9751 47.8939 39.3648C47.8939 37.1845 49.6678 35.4111 51.8481 35.4111C52.4585 35.4111 52.9529 34.916 52.9529 34.3057V25.2853C52.9529 24.675 52.4584 24.1804 51.8481 24.1804C49.6678 24.1804 47.8939 22.4065 47.8939 20.2267C47.8939 19.6159 47.3994 19.1213 46.789 19.1213H40.2999C39.6895 19.1213 39.195 19.6159 39.195 20.2267C39.195 20.8371 39.6895 21.3316 40.2999 21.3316H45.7829C46.2401 23.8465 48.2278 25.8342 50.7427 26.2914V33.2996C48.2278 33.7569 46.2401 35.745 45.7829 38.2594H19.0364C18.5791 35.745 16.591 33.7569 14.0766 33.2996V26.2914C16.591 25.8341 18.5792 23.8465 19.0364 21.3316H36.3788C36.9891 21.3316 37.4842 20.8372 37.4842 20.2267C37.4842 19.6158 36.9891 19.1213 36.3788 19.1213H18.0303C17.42 19.1213 16.9249 19.6158 16.9249 20.2267C16.9249 22.4065 15.1515 24.1804 12.9712 24.1804C12.361 24.1804 11.8658 24.6749 11.8658 25.2853V34.3057Z" fill="#697BDC" stroke="#697BDC" stroke-width="0.25"/>
<path d="M32.4094 23.5928C28.9893 23.5928 26.2072 26.3754 26.2072 29.7955C26.2072 33.2156 28.9893 35.9982 32.4094 35.9982C35.83 35.9982 38.6121 33.2156 38.6121 29.7955C38.6121 26.3754 35.83 23.5928 32.4094 23.5928ZM32.4094 33.7879C30.2085 33.7879 28.4174 31.9969 28.4174 29.7955C28.4174 27.5946 30.2085 25.8036 32.4094 25.8036C34.6108 25.8036 36.4018 27.5946 36.4018 29.7955C36.4018 31.9969 34.6108 33.7879 32.4094 33.7879Z" fill="#697BDC" stroke="#697BDC" stroke-width="0.25"/>
<path d="M46.2733 30.9008C46.8837 30.9008 47.3782 30.4057 47.3782 29.7954C47.3782 29.1851 46.8837 28.6906 46.2733 28.6906H43.1368C42.5265 28.6906 42.0314 29.185 42.0314 29.7954C42.0314 30.4058 42.5264 30.9008 43.1368 30.9008H46.2733Z" fill="#697BDC" stroke="#697BDC" stroke-width="0.25"/>
<path d="M18.5458 28.6906C17.9356 28.6906 17.4404 29.185 17.4404 29.7954C17.4404 30.4058 17.9355 30.9008 18.5458 30.9008H21.6824C22.2927 30.9008 22.7878 30.4058 22.7878 29.7954C22.7878 29.185 22.2926 28.6906 21.6824 28.6906H18.5458Z" fill="#697BDC" stroke="#697BDC" stroke-width="0.25"/>
<path d="M52.9491 20.3073C52.8752 21.3288 51.4993 21.7059 50.929 20.8399L52.9491 20.3073ZM52.9491 20.3073C53.0202 19.3277 51.8223 18.7465 51.0981 19.4148L52.9491 20.3073ZM51.0981 19.4148C50.7012 19.781 50.6341 20.3925 50.9289 20.8398L51.0981 19.4148Z" fill="#697BDC" stroke="#697BDC" stroke-width="0.25"/>
<path d="M51.6554 38.2774L51.6555 38.2774C52.0793 38.2037 52.5269 38.3879 52.7668 38.7516C53.0626 39.1903 52.9935 39.7978 52.6132 40.1616L52.5268 40.0713L52.6133 40.1615C52.2834 40.4778 51.7879 40.5549 51.376 40.3634L51.6554 38.2774ZM51.6554 38.2774C51.1805 38.36 50.8119 38.7532 50.7512 39.2286L50.7512 39.2287M51.6554 38.2774L50.7512 39.2287M50.7512 39.2287C50.6921 39.694 50.9495 40.1655 51.376 40.3634L50.7512 39.2287Z" fill="#697BDC" stroke="#697BDC" stroke-width="0.25"/>
<path d="M12.0515 20.8398L12.0515 20.8398L13.9485 20.2982L14.0732 20.3077C14.0732 20.3077 14.0732 20.3077 14.0732 20.3077C14.145 19.3646 13.0311 18.7838 12.2915 19.3548L12.2915 19.3549C11.8363 19.7068 11.7393 20.3654 12.0515 20.8398Z" fill="#697BDC" stroke="#697BDC" stroke-width="0.25"/>
<path d="M11.8869 39.1477L11.8868 39.1477C11.6836 40.1585 12.9082 40.8725 13.6884 40.2044C14.1068 39.8467 14.2 39.2114 13.8899 38.7515C13.3555 37.9414 12.0765 38.2061 11.8869 39.1477Z" fill="#697BDC" stroke="#697BDC" stroke-width="0.25"/>
<mask id="path-9-outside-1" maskUnits="userSpaceOnUse" x="-0.484375" y="-1" width="67" height="68" fill="black">
<rect fill="white" x="-0.484375" y="-1" width="67" height="68"/>
<path d="M54.5807 6.48711C55.0445 9.05717 57.2963 11.0134 59.9983 11.0134C63.0347 11.0134 65.505 8.54306 65.505 5.50671C65.505 2.47037 63.0347 0 59.9983 0C57.2963 0 55.0445 1.95625 54.5807 4.52632H41.9152C41.3739 4.52632 40.9348 4.96541 40.9348 5.50671V15.1304H32.7014V10.9243C35.2715 10.46 37.2277 8.20821 37.2277 5.50671C37.2277 2.47037 34.7574 0 31.721 0C28.6847 0 26.2143 2.47037 26.2143 5.50671C26.2143 8.20821 28.1711 10.4605 30.7411 10.9243V15.1304H20.9387V5.50671C20.9387 4.96541 20.5001 4.52632 19.9588 4.52632H14.7421C14.2784 1.95625 12.0266 0 9.32506 0C6.28821 0 3.81834 2.47037 3.81834 5.50671C3.81834 8.54306 6.28821 11.0134 9.32506 11.0134C12.0266 11.0134 14.2784 9.05717 14.7421 6.48711H18.9784V15.1304H11.737C9.60754 15.1304 7.87486 16.8625 7.87486 18.9925V35.0197C7.87486 35.561 8.31395 35.9996 8.85526 35.9996C9.39656 35.9996 9.83514 35.561 9.83514 35.0197V18.9925C9.83514 17.9436 10.6886 17.0907 11.737 17.0907H53.0822C54.1306 17.0907 54.9836 17.9436 54.9836 18.9925V40.5989C54.9836 41.6473 54.1306 42.5003 53.0822 42.5003H11.737C10.6886 42.5003 9.83514 41.6473 9.83514 40.5989V38.9408C9.83514 38.399 9.39656 37.9604 8.85526 37.9604C8.31395 37.9604 7.87486 38.399 7.87486 38.9408V40.5989C7.87486 42.7284 9.60754 44.4611 11.737 44.4611H23.1608V49.9597H11.4399C10.9757 47.3897 8.72383 45.4334 6.02234 45.4334C2.98599 45.4334 0.515625 47.9033 0.515625 50.9401C0.515625 53.9765 2.98599 56.4468 6.02234 56.4468C8.72383 56.4468 10.9762 54.4906 11.4399 51.92H24.1407C24.682 51.92 25.1211 51.4814 25.1211 50.9401V44.4611H35.1844V59.5134H23.5465C23.0828 56.9428 20.8304 54.9866 18.129 54.9866C15.0926 54.9866 12.6222 57.4569 12.6222 60.4933C12.6222 63.5296 15.0921 66 18.129 66C20.8304 66 23.0828 64.0437 23.5465 61.4737H36.1647C36.7061 61.4737 37.1446 61.0346 37.1446 60.4933V44.4606H47.9924V60.4933C47.9924 61.0346 48.431 61.4737 48.9728 61.4737H52.9649C53.4286 64.0437 55.6805 66 58.3824 66C61.4188 66 63.8892 63.5296 63.8892 60.4933C63.8892 57.4569 61.4188 54.9866 58.3824 54.9866C55.6805 54.9866 53.4286 56.9428 52.9649 59.5129H49.9527V44.4606H53.0822C55.2117 44.4606 56.9438 42.7284 56.9438 40.5984V18.9925C56.9438 16.8631 55.2117 15.1304 53.0822 15.1304H42.8956V6.48711H54.5807ZM59.9983 1.96028C61.9536 1.96028 63.5442 3.55147 63.5442 5.50671C63.5442 7.46196 61.9536 9.05315 59.9983 9.05315C58.0426 9.05315 56.4519 7.46196 56.4519 5.50671C56.4519 3.55147 58.0426 1.96028 59.9983 1.96028ZM28.1751 5.50671C28.1751 3.55147 29.7658 1.96028 31.721 1.96028C33.6768 1.96028 35.2674 3.55147 35.2674 5.50671C35.2674 7.46196 33.6768 9.05315 31.721 9.05315C29.7658 9.05315 28.1751 7.46196 28.1751 5.50671ZM9.32506 9.05315C7.36931 9.05315 5.77863 7.46196 5.77863 5.50671C5.77863 3.55147 7.36931 1.96028 9.32506 1.96028C11.2803 1.96028 12.871 3.55147 12.871 5.50671C12.871 7.46196 11.2803 9.05315 9.32506 9.05315ZM6.02234 54.4861C4.06709 54.4861 2.47591 52.8954 2.47591 50.9396C2.47591 48.9844 4.06709 47.3937 6.02234 47.3937C7.97758 47.3937 9.56877 48.9844 9.56877 50.9396C9.56877 52.8954 7.97758 54.4861 6.02234 54.4861ZM18.129 64.0397C16.1732 64.0397 14.5825 62.449 14.5825 60.4933C14.5825 58.538 16.1732 56.9469 18.129 56.9469C20.0842 56.9469 21.6754 58.538 21.6754 60.4933C21.6754 62.449 20.0842 64.0397 18.129 64.0397ZM58.3824 56.9469C60.3377 56.9469 61.9289 58.538 61.9289 60.4933C61.9289 62.449 60.3377 64.0397 58.3824 64.0397C56.4267 64.0397 54.836 62.449 54.836 60.4933C54.836 58.538 56.4267 56.9469 58.3824 56.9469Z"/>
</mask>
<path d="M54.5807 6.48711C55.0445 9.05717 57.2963 11.0134 59.9983 11.0134C63.0347 11.0134 65.505 8.54306 65.505 5.50671C65.505 2.47037 63.0347 0 59.9983 0C57.2963 0 55.0445 1.95625 54.5807 4.52632H41.9152C41.3739 4.52632 40.9348 4.96541 40.9348 5.50671V15.1304H32.7014V10.9243C35.2715 10.46 37.2277 8.20821 37.2277 5.50671C37.2277 2.47037 34.7574 0 31.721 0C28.6847 0 26.2143 2.47037 26.2143 5.50671C26.2143 8.20821 28.1711 10.4605 30.7411 10.9243V15.1304H20.9387V5.50671C20.9387 4.96541 20.5001 4.52632 19.9588 4.52632H14.7421C14.2784 1.95625 12.0266 0 9.32506 0C6.28821 0 3.81834 2.47037 3.81834 5.50671C3.81834 8.54306 6.28821 11.0134 9.32506 11.0134C12.0266 11.0134 14.2784 9.05717 14.7421 6.48711H18.9784V15.1304H11.737C9.60754 15.1304 7.87486 16.8625 7.87486 18.9925V35.0197C7.87486 35.561 8.31395 35.9996 8.85526 35.9996C9.39656 35.9996 9.83514 35.561 9.83514 35.0197V18.9925C9.83514 17.9436 10.6886 17.0907 11.737 17.0907H53.0822C54.1306 17.0907 54.9836 17.9436 54.9836 18.9925V40.5989C54.9836 41.6473 54.1306 42.5003 53.0822 42.5003H11.737C10.6886 42.5003 9.83514 41.6473 9.83514 40.5989V38.9408C9.83514 38.399 9.39656 37.9604 8.85526 37.9604C8.31395 37.9604 7.87486 38.399 7.87486 38.9408V40.5989C7.87486 42.7284 9.60754 44.4611 11.737 44.4611H23.1608V49.9597H11.4399C10.9757 47.3897 8.72383 45.4334 6.02234 45.4334C2.98599 45.4334 0.515625 47.9033 0.515625 50.9401C0.515625 53.9765 2.98599 56.4468 6.02234 56.4468C8.72383 56.4468 10.9762 54.4906 11.4399 51.92H24.1407C24.682 51.92 25.1211 51.4814 25.1211 50.9401V44.4611H35.1844V59.5134H23.5465C23.0828 56.9428 20.8304 54.9866 18.129 54.9866C15.0926 54.9866 12.6222 57.4569 12.6222 60.4933C12.6222 63.5296 15.0921 66 18.129 66C20.8304 66 23.0828 64.0437 23.5465 61.4737H36.1647C36.7061 61.4737 37.1446 61.0346 37.1446 60.4933V44.4606H47.9924V60.4933C47.9924 61.0346 48.431 61.4737 48.9728 61.4737H52.9649C53.4286 64.0437 55.6805 66 58.3824 66C61.4188 66 63.8892 63.5296 63.8892 60.4933C63.8892 57.4569 61.4188 54.9866 58.3824 54.9866C55.6805 54.9866 53.4286 56.9428 52.9649 59.5129H49.9527V44.4606H53.0822C55.2117 44.4606 56.9438 42.7284 56.9438 40.5984V18.9925C56.9438 16.8631 55.2117 15.1304 53.0822 15.1304H42.8956V6.48711H54.5807ZM59.9983 1.96028C61.9536 1.96028 63.5442 3.55147 63.5442 5.50671C63.5442 7.46196 61.9536 9.05315 59.9983 9.05315C58.0426 9.05315 56.4519 7.46196 56.4519 5.50671C56.4519 3.55147 58.0426 1.96028 59.9983 1.96028ZM28.1751 5.50671C28.1751 3.55147 29.7658 1.96028 31.721 1.96028C33.6768 1.96028 35.2674 3.55147 35.2674 5.50671C35.2674 7.46196 33.6768 9.05315 31.721 9.05315C29.7658 9.05315 28.1751 7.46196 28.1751 5.50671ZM9.32506 9.05315C7.36931 9.05315 5.77863 7.46196 5.77863 5.50671C5.77863 3.55147 7.36931 1.96028 9.32506 1.96028C11.2803 1.96028 12.871 3.55147 12.871 5.50671C12.871 7.46196 11.2803 9.05315 9.32506 9.05315ZM6.02234 54.4861C4.06709 54.4861 2.47591 52.8954 2.47591 50.9396C2.47591 48.9844 4.06709 47.3937 6.02234 47.3937C7.97758 47.3937 9.56877 48.9844 9.56877 50.9396C9.56877 52.8954 7.97758 54.4861 6.02234 54.4861ZM18.129 64.0397C16.1732 64.0397 14.5825 62.449 14.5825 60.4933C14.5825 58.538 16.1732 56.9469 18.129 56.9469C20.0842 56.9469 21.6754 58.538 21.6754 60.4933C21.6754 62.449 20.0842 64.0397 18.129 64.0397ZM58.3824 56.9469C60.3377 56.9469 61.9289 58.538 61.9289 60.4933C61.9289 62.449 60.3377 64.0397 58.3824 64.0397C56.4267 64.0397 54.836 62.449 54.836 60.4933C54.836 58.538 56.4267 56.9469 58.3824 56.9469Z" fill="#697BDC"/>
<path d="M54.5807 6.48711C55.0445 9.05717 57.2963 11.0134 59.9983 11.0134C63.0347 11.0134 65.505 8.54306 65.505 5.50671C65.505 2.47037 63.0347 0 59.9983 0C57.2963 0 55.0445 1.95625 54.5807 4.52632H41.9152C41.3739 4.52632 40.9348 4.96541 40.9348 5.50671V15.1304H32.7014V10.9243C35.2715 10.46 37.2277 8.20821 37.2277 5.50671C37.2277 2.47037 34.7574 0 31.721 0C28.6847 0 26.2143 2.47037 26.2143 5.50671C26.2143 8.20821 28.1711 10.4605 30.7411 10.9243V15.1304H20.9387V5.50671C20.9387 4.96541 20.5001 4.52632 19.9588 4.52632H14.7421C14.2784 1.95625 12.0266 0 9.32506 0C6.28821 0 3.81834 2.47037 3.81834 5.50671C3.81834 8.54306 6.28821 11.0134 9.32506 11.0134C12.0266 11.0134 14.2784 9.05717 14.7421 6.48711H18.9784V15.1304H11.737C9.60754 15.1304 7.87486 16.8625 7.87486 18.9925V35.0197C7.87486 35.561 8.31395 35.9996 8.85526 35.9996C9.39656 35.9996 9.83514 35.561 9.83514 35.0197V18.9925C9.83514 17.9436 10.6886 17.0907 11.737 17.0907H53.0822C54.1306 17.0907 54.9836 17.9436 54.9836 18.9925V40.5989C54.9836 41.6473 54.1306 42.5003 53.0822 42.5003H11.737C10.6886 42.5003 9.83514 41.6473 9.83514 40.5989V38.9408C9.83514 38.399 9.39656 37.9604 8.85526 37.9604C8.31395 37.9604 7.87486 38.399 7.87486 38.9408V40.5989C7.87486 42.7284 9.60754 44.4611 11.737 44.4611H23.1608V49.9597H11.4399C10.9757 47.3897 8.72383 45.4334 6.02234 45.4334C2.98599 45.4334 0.515625 47.9033 0.515625 50.9401C0.515625 53.9765 2.98599 56.4468 6.02234 56.4468C8.72383 56.4468 10.9762 54.4906 11.4399 51.92H24.1407C24.682 51.92 25.1211 51.4814 25.1211 50.9401V44.4611H35.1844V59.5134H23.5465C23.0828 56.9428 20.8304 54.9866 18.129 54.9866C15.0926 54.9866 12.6222 57.4569 12.6222 60.4933C12.6222 63.5296 15.0921 66 18.129 66C20.8304 66 23.0828 64.0437 23.5465 61.4737H36.1647C36.7061 61.4737 37.1446 61.0346 37.1446 60.4933V44.4606H47.9924V60.4933C47.9924 61.0346 48.431 61.4737 48.9728 61.4737H52.9649C53.4286 64.0437 55.6805 66 58.3824 66C61.4188 66 63.8892 63.5296 63.8892 60.4933C63.8892 57.4569 61.4188 54.9866 58.3824 54.9866C55.6805 54.9866 53.4286 56.9428 52.9649 59.5129H49.9527V44.4606H53.0822C55.2117 44.4606 56.9438 42.7284 56.9438 40.5984V18.9925C56.9438 16.8631 55.2117 15.1304 53.0822 15.1304H42.8956V6.48711H54.5807ZM59.9983 1.96028C61.9536 1.96028 63.5442 3.55147 63.5442 5.50671C63.5442 7.46196 61.9536 9.05315 59.9983 9.05315C58.0426 9.05315 56.4519 7.46196 56.4519 5.50671C56.4519 3.55147 58.0426 1.96028 59.9983 1.96028ZM28.1751 5.50671C28.1751 3.55147 29.7658 1.96028 31.721 1.96028C33.6768 1.96028 35.2674 3.55147 35.2674 5.50671C35.2674 7.46196 33.6768 9.05315 31.721 9.05315C29.7658 9.05315 28.1751 7.46196 28.1751 5.50671ZM9.32506 9.05315C7.36931 9.05315 5.77863 7.46196 5.77863 5.50671C5.77863 3.55147 7.36931 1.96028 9.32506 1.96028C11.2803 1.96028 12.871 3.55147 12.871 5.50671C12.871 7.46196 11.2803 9.05315 9.32506 9.05315ZM6.02234 54.4861C4.06709 54.4861 2.47591 52.8954 2.47591 50.9396C2.47591 48.9844 4.06709 47.3937 6.02234 47.3937C7.97758 47.3937 9.56877 48.9844 9.56877 50.9396C9.56877 52.8954 7.97758 54.4861 6.02234 54.4861ZM18.129 64.0397C16.1732 64.0397 14.5825 62.449 14.5825 60.4933C14.5825 58.538 16.1732 56.9469 18.129 56.9469C20.0842 56.9469 21.6754 58.538 21.6754 60.4933C21.6754 62.449 20.0842 64.0397 18.129 64.0397ZM58.3824 56.9469C60.3377 56.9469 61.9289 58.538 61.9289 60.4933C61.9289 62.449 60.3377 64.0397 58.3824 64.0397C56.4267 64.0397 54.836 62.449 54.836 60.4933C54.836 58.538 56.4267 56.9469 58.3824 56.9469Z" stroke="#697BDC" stroke-width="0.5" mask="url(#path-9-outside-1)"/>
</g>
<defs>
<clipPath id="clip0">
<rect width="66" height="66" fill="white"/>
</clipPath>
</defs>
</svg>
