<svg width="141" height="40" viewBox="0 0 141 40" fill="none" xmlns="http://www.w3.org/2000/svg">
<path d="M96.1194 1.83171C96.7926 1.98124 97.5032 2.09339 98.1764 2.24293C99.3732 2.54199 100.495 3.02797 101.468 3.81302C102.851 4.93452 103.562 6.46723 103.674 8.18685C103.899 11.514 103.225 14.6541 101.243 17.3831C99.5602 19.7009 97.1666 20.8224 94.4363 21.271C92.4541 21.6074 90.5093 21.4579 88.5271 21.4953C87.2554 21.4953 86.8066 21.8691 86.6196 23.1027C86.2456 25.4953 85.8342 27.8878 85.4602 30.2803C85.348 31.0654 85.0114 31.3644 84.226 31.3644C82.543 31.3644 80.8225 31.3644 79.1395 31.3644C78.3167 31.3644 77.9427 30.9906 78.0923 30.1682C78.4663 27.6635 78.8777 25.1588 79.2891 22.6541C79.8875 18.8784 80.4859 15.1027 81.0844 11.327C81.4958 8.59807 81.9446 5.86909 82.356 3.17751C82.4682 2.54199 82.917 2.16816 83.4032 1.86909C87.6294 1.83171 91.8557 1.83171 96.1194 1.83171ZM89.5369 15.6261C90.2849 15.6261 91.0329 15.5887 91.7809 15.514C93.8005 15.327 95.0722 14.3177 95.5584 12.4485C95.6706 11.9626 95.7454 11.4766 95.7828 10.9906C95.895 9.34573 95.1096 8.26162 93.5013 7.92517C92.2671 7.66349 90.9955 7.70087 89.7239 7.73826C89.2377 7.73826 88.9385 8.0747 88.8637 8.56068C88.4897 10.8037 88.1531 13.0093 87.779 15.2523C87.7416 15.5513 87.8164 15.6635 88.153 15.6635C88.6019 15.5887 89.0507 15.6261 89.5369 15.6261Z" fill="#3F50A9"/>
<path d="M20.2711 1.83169C20.7199 2.05599 21.2435 2.01861 21.7671 2.13076C22.3281 2.28029 22.8891 2.39244 23.4501 2.61674C26.1804 3.70085 27.6764 5.71954 27.7512 8.63543C27.8634 12.0747 27.078 15.2896 24.7966 17.9812C23.1509 19.9252 20.9443 20.8597 18.5133 21.2709C16.531 21.6074 14.5488 21.4579 12.5292 21.4952C11.2576 21.4952 10.8088 21.8691 10.6218 23.1401C10.2478 25.3831 9.91115 27.6261 9.57454 29.8691C9.42494 30.8784 8.90133 31.327 7.85412 31.327C6.3581 31.327 4.82467 31.327 3.32865 31.327C2.80505 31.327 2.39364 31.2149 2.13184 30.7663C2.13184 30.4672 2.13184 30.2055 2.13184 29.9065C2.31884 29.7195 2.28144 29.4579 2.31884 29.1962C3.66526 20.598 5.04908 12.0373 6.3955 3.43917C6.5077 2.65412 6.8443 2.05599 7.59231 1.79431C11.7812 1.83169 16.0448 1.83169 20.2711 1.83169ZM13.6138 15.5887C14.3618 15.5887 15.1098 15.5887 15.8578 15.4766C17.5409 15.2896 18.8873 14.5794 19.4857 12.8597C19.7101 12.1868 19.8223 11.4766 19.8597 10.7663C19.8597 9.1588 19.0743 8.18683 17.5035 7.88777C16.3066 7.66347 15.0724 7.66347 13.8382 7.70085C13.2772 7.70085 13.0154 8.07469 12.9406 8.59805C12.604 10.8037 12.23 13.0093 11.8934 15.2523C11.856 15.5513 11.9308 15.6261 12.23 15.5887C12.6788 15.5887 13.1276 15.5887 13.6138 15.5887Z" fill="#3F50A9"/>
<path d="M138.345 1.83171C138.868 2.16816 138.98 2.65414 138.868 3.21489C138.382 6.20554 137.933 9.1962 137.447 12.1495C136.849 15.8878 136.25 19.6635 135.652 23.4018C135.315 25.6074 134.941 27.813 134.605 30.0186C134.455 30.8411 133.931 31.2897 133.108 31.327C131.687 31.327 130.303 31.327 128.882 31.327C128.134 31.327 127.798 30.9158 127.91 30.1682C128.733 25.0093 129.518 19.8504 130.341 14.6915C130.977 10.7289 131.612 6.76629 132.211 2.80367C132.286 2.39246 132.473 2.09339 132.772 1.83171C134.642 1.83171 136.475 1.83171 138.345 1.83171Z" fill="#3F50A9"/>
<path d="M41.6642 29.0467C40.1308 30.5046 38.373 31.4018 36.3907 31.7009C33.8101 32.0747 31.3416 31.8504 29.2472 30.1682C27.4146 28.7476 26.5544 26.7289 26.2926 24.4859C25.6942 19.5139 28.5366 14.3551 33.0621 12.2242C35.7175 10.9906 38.4478 10.8784 41.2528 11.6261C42.5618 11.9999 43.0854 12.4111 44.1326 13.7569C44.2074 13.3457 44.2822 12.9719 44.357 12.5981C44.4692 11.8878 44.7684 11.6635 45.4791 11.6635C47.0125 11.6635 48.5833 11.6635 50.1167 11.6635C50.9769 11.6635 51.3135 12.0747 51.2013 12.8971C50.8273 15.2149 50.4533 17.5326 50.1167 19.8504C49.5931 23.1401 49.0695 26.4298 48.5459 29.7196C48.3589 30.9532 47.9101 31.3644 46.6759 31.3644C45.3295 31.3644 44.0204 31.3644 42.674 31.3644C41.7764 31.3644 41.5146 31.028 41.5894 30.1308C41.5894 29.7943 41.7016 29.4579 41.6642 29.0467ZM37.3631 26.4298C40.4674 26.4298 42.7862 24.4111 43.235 21.4579C43.5716 19.1027 42.3374 17.1962 40.2056 16.7102C36.8021 15.9252 33.4735 18.3925 33.2117 21.9065C33.0995 23.6261 33.5483 25.0467 35.1191 25.9065C35.8671 26.3177 36.6525 26.4298 37.3631 26.4298Z" fill="#3F50A9"/>
<path d="M120.018 13.8317C120.093 13.3084 120.168 12.8971 120.243 12.4859C120.355 11.9252 120.617 11.6635 121.178 11.6635C122.823 11.6635 124.506 11.6635 126.152 11.6635C126.863 11.6635 127.199 12.1121 127.087 12.8598C126.75 14.9532 126.414 17.0467 126.077 19.1401C125.516 22.6168 124.955 26.1308 124.432 29.6074C124.207 30.9906 123.833 31.3644 122.449 31.3644C121.14 31.3644 119.831 31.3644 118.485 31.3644C117.625 31.3644 117.363 31.028 117.438 30.1682C117.475 29.8317 117.625 29.4953 117.55 29.1214C116.877 29.6822 116.241 30.2056 115.53 30.5794C112.763 32.0747 109.845 32.3364 106.928 31.2149C104.235 30.2056 102.814 28.0373 102.328 25.3084C101.281 19.514 104.721 13.3457 110.593 11.6635C112.8 11.028 115.044 11.0654 117.213 11.7383C118.41 11.9999 119.345 12.6728 120.018 13.8317ZM113.398 26.4298C116.465 26.4298 118.859 24.299 119.195 21.271C119.457 19.0654 118.298 17.3084 116.241 16.7476C112.95 15.8504 109.509 18.2803 109.135 21.6448C108.985 23.1401 109.21 24.4859 110.444 25.4953C111.304 26.2056 112.314 26.4298 113.398 26.4298Z" fill="#3F50A9"/>
<path d="M64.0671 22.6915C64.2167 22.4672 64.3289 22.3177 64.4785 22.1307C66.6478 18.9532 68.817 15.7756 70.9488 12.598C71.3976 11.9625 71.9212 11.6635 72.6692 11.6635C74.1279 11.7008 75.5865 11.6635 77.0451 11.6635C77.5313 11.6635 77.9801 11.6635 78.2419 12.1494C78.5037 12.6354 78.2419 13.0093 77.9801 13.3831C73.0058 20.5607 68.0316 27.7382 63.0573 34.9158C62.4589 35.7756 61.8605 36.598 61.2995 37.4579C60.9629 37.9438 60.5889 38.1681 59.9531 38.1681C58.27 38.1307 56.587 38.1681 54.9414 38.1681C54.6048 38.1681 54.2682 38.1681 54.0812 37.7943C53.8942 37.4205 53.969 37.084 54.1934 36.7476C55.6146 34.7663 56.9236 32.7476 58.4196 30.841C59.2424 29.7943 59.3172 28.9345 58.8684 27.7008C57.148 22.8784 55.5398 18.0186 53.8568 13.1962C53.4828 12.1494 53.8194 11.6635 54.9414 11.6635C56.4374 11.6635 57.896 11.6635 59.3921 11.6635C60.3645 11.6635 60.8133 11.9999 61.1125 12.9345C62.0475 15.9999 62.9451 19.0653 63.8801 22.1307C63.9549 22.2803 63.9923 22.4672 64.0671 22.6915Z" fill="#3F50A9"/>
</svg>
