<svg width="45" height="45" viewBox="0 0 45 45" fill="none" xmlns="http://www.w3.org/2000/svg">
<path d="M22.4999 45C10.0936 45 0 34.9073 0 22.4999C0 10.0925 10.0936 0 22.4999 0C34.9063 0 44.9999 10.0936 44.9999 22.4999C44.9999 34.9063 34.9073 45 22.4999 45ZM22.4999 3.62653C12.0929 3.62653 3.62653 12.0929 3.62653 22.4999C3.62653 32.9069 12.0929 41.3733 22.4999 41.3733C32.9069 41.3733 41.3733 32.9069 41.3733 22.4999C41.3733 12.0929 32.9078 3.62653 22.4999 3.62653Z" fill="#4050A5"/>
<path d="M17.3167 17.5444C17.5833 16.8601 17.9549 16.2688 18.4323 15.7678C18.9113 15.2644 19.4889 14.8742 20.1652 14.5947C20.8406 14.3119 21.596 14.1721 22.4321 14.1721C23.5106 14.1721 24.4105 14.3199 25.1328 14.6173C25.8542 14.9137 26.4351 15.283 26.8763 15.7225C27.3165 16.1636 27.6324 16.6386 27.8223 17.146C28.0113 17.6558 28.1067 18.1317 28.1067 18.5712C28.1067 19.2991 28.0113 19.9001 27.8223 20.3711C27.6324 20.8421 27.3966 21.2444 27.1154 21.5788C26.8335 21.9133 26.5232 22.1984 26.1807 22.4336C25.8398 22.6694 25.5166 22.9046 25.2129 23.1404C24.9091 23.3755 24.6392 23.6445 24.4041 23.9483C24.1682 24.2513 24.0196 24.6317 23.9599 25.0866V25.9527H20.8835V24.9267C20.9288 24.2739 21.0547 23.7277 21.2591 23.2875C21.4644 22.8472 21.7034 22.4707 21.9765 22.1589C22.2504 21.8486 22.5389 21.578 22.8434 21.3502C23.1464 21.1216 23.4266 20.8937 23.686 20.6683C23.9429 20.4388 24.153 20.1893 24.3129 19.9154C24.472 19.6431 24.544 19.299 24.5286 18.8893C24.5286 18.1905 24.3581 17.6743 24.0156 17.3406C23.6747 17.0053 23.1997 16.8388 22.5913 16.8388C22.1816 16.8388 21.8287 16.918 21.5321 17.0772C21.2355 17.2365 20.9933 17.4505 20.8027 17.7162C20.6129 17.9828 20.4722 18.2946 20.3817 18.6502C20.2904 19.0089 20.2452 19.3902 20.2452 19.8022H16.8959C16.9103 18.9799 17.05 18.2294 17.3167 17.5444ZM24.1417 27.3204V30.8281H20.5636V27.3204H24.1417Z" fill="#4050A5"/>
</svg>
