<svg width="141" height="141" viewBox="0 0 141 141" fill="none" xmlns="http://www.w3.org/2000/svg">
<g filter="url(#filter0_d)">
<path d="M70.7385 98.9155C93.1588 98.9155 111.334 80.7538 111.334 58.3502C111.334 35.9466 93.1588 17.7849 70.7385 17.7849C48.3182 17.7849 30.1429 35.9466 30.1429 58.3502C30.1429 80.7538 48.3182 98.9155 70.7385 98.9155Z" fill="#C2C2C2"/>
<path d="M109.411 76.0914C110.378 71.1859 111.462 66.2995 112.184 61.3506C112.429 59.37 112.603 57.3839 112.693 55.3914C112.556 55.3645 112.419 55.3339 112.29 55.2979C111.934 55.1971 111.588 55.064 111.256 54.9003C111.307 55.7329 111.333 56.572 111.334 57.4176C111.334 79.8211 93.1587 97.9829 70.7385 97.9829C48.3183 97.9829 30.143 79.8211 30.143 57.4176C30.143 56.2677 30.1932 55.1296 30.2872 54.0039C29.7938 54.2836 29.2647 54.495 28.7144 54.6322C28.7185 59.2113 28.765 63.7995 29.3034 68.3503C29.3413 68.5993 29.3796 68.8482 29.4202 69.0972C29.6881 70.7318 29.6347 72.1475 28.9639 73.6111C35.4583 90.3284 51.7113 102.181 70.7363 102.181C87.3091 102.181 101.779 93.1868 109.527 79.8174C109.143 78.6206 109.161 77.3631 109.411 76.0914Z" fill="#D4D4D4"/>
<path d="M31.1445 48.3552C29.8988 53.097 28.968 57.9757 28.821 62.8543C29.3902 63.0478 29.9131 63.3569 30.3569 63.7621C30.2158 62.377 30.1452 60.9857 30.1452 59.5934C30.1452 37.1899 48.3205 19.0281 70.7407 19.0281C93.1609 19.0281 111.336 37.1899 111.336 59.5934C111.34 64.1786 110.565 68.7312 109.044 73.0571L109.055 73.0452C109.433 72.6399 109.806 72.2305 110.168 71.811C110.335 71.618 110.499 71.423 110.661 71.226L110.69 71.1891C110.927 70.7204 111.339 70.2877 111.617 69.8376C111.919 69.3502 112.195 68.8467 112.443 68.3294C112.493 68.2231 112.572 67.9117 112.664 67.8278C112.73 67.6614 112.796 67.4945 112.858 67.3263C113.052 66.8074 113.228 66.2828 113.388 65.7523C113.73 64.6193 113.999 63.4655 114.193 62.2981C114.206 62.2146 114.219 62.1312 114.232 62.0478C114.243 61.8107 114.294 61.5658 114.316 61.3319C114.369 60.7939 114.407 60.2545 114.431 59.7138C114.482 58.5414 114.473 57.3672 114.405 56.1957C114.372 55.6078 114.324 55.021 114.264 54.4352C114.239 54.195 114.209 53.9556 114.183 53.7153C114.177 53.6734 114.172 53.6314 114.166 53.5904C113.991 52.4177 113.77 51.2527 113.51 50.096C112.998 47.8249 112.334 45.5917 111.579 43.3899C111.336 42.6797 111.341 41.9086 111.592 41.2013C104.568 25.6535 88.9184 14.8315 70.7385 14.8315C56.2937 14.8315 43.4483 21.6653 35.257 32.2716C35.5764 32.661 35.7133 33.1958 35.5171 33.8332C34.0227 38.6622 32.4294 43.4647 31.1445 48.3552Z" fill="#9C9C9C"/>
<path d="M70.7385 13.5884C45.999 13.5884 25.9432 33.6291 25.9432 58.3502C25.9432 83.0713 45.999 103.112 70.7385 103.112C95.478 103.112 115.534 83.0713 115.534 58.3502C115.534 33.6291 95.478 13.5884 70.7385 13.5884ZM70.7385 98.9155C48.3183 98.9155 30.1429 80.7537 30.1429 58.3502C30.1429 35.9467 48.3183 17.7849 70.7385 17.7849C93.1587 17.7849 111.334 35.9467 111.334 58.3502C111.334 80.7537 93.1587 98.9155 70.7385 98.9155Z" fill="#B3B3B3"/>
</g>
<g clip-path="url(#clip0)">
<path d="M74.1899 39.7629C71.4821 41.3525 69.8788 44.223 69.8788 47.2501C69.8788 48.8396 70.5176 50.4416 71.3173 51.8708C71.9561 53.1474 72.2693 55.3755 70.0397 56.4915C68.4487 57.4427 66.3674 56.8086 65.4154 55.2149C64.4632 53.9382 63.3463 52.6616 61.9078 51.7101C59.2 50.1206 56.0057 50.1206 53.2977 51.7101C50.5897 53.2997 48.9905 56.1775 48.9905 59.2053C48.9905 62.2331 50.5815 65.1026 53.2971 66.6965C56.0049 68.2861 59.1992 68.2861 61.9072 66.6965C63.3457 65.8976 64.4623 64.6292 65.254 63.1918C65.8928 62.0758 67.6486 60.6386 69.8784 61.9152C71.4693 62.8665 71.9474 64.9463 71.1559 66.5359C70.3564 67.9731 69.8784 69.567 69.8784 71.1566C69.8784 74.1877 71.4694 77.0539 74.1895 78.6437C76.8973 80.2333 80.0916 80.2333 82.7997 78.6437C85.5077 77.0541 87.1112 74.1836 87.1112 71.1566C87.1112 68.1296 85.5161 65.2593 82.8001 63.6654C81.3616 62.8665 79.7665 62.5494 78.0148 62.5494C76.5763 62.5494 74.668 61.5981 74.668 59.2053C74.668 57.2904 76.1065 55.8612 78.0148 55.8612C79.6058 55.8612 81.3616 55.5441 82.8001 54.7452C85.5079 53.1556 87.1112 50.2851 87.1112 47.2583C87.1112 44.2315 85.5161 41.361 82.8001 39.7712C81.5225 38.9723 79.9313 38.6552 78.4935 38.6552C77.0632 38.6469 75.4599 38.9723 74.1906 39.7629" fill="white"/>
</g>
<g clip-path="url(#clip1)" filter="url(#filter1_d)">
<path d="M47.2906 26.5692C47.2906 30.6866 43.9503 34.0243 39.8299 34.0243C35.7094 34.0243 32.3691 30.6866 32.3691 26.5692C32.3691 22.4518 35.7094 19.114 39.8299 19.114C43.9503 19.114 47.2906 22.4518 47.2906 26.5692Z" fill="#9C9C9C"/>
<path d="M39.8298 27.2891C39.2896 27.2891 38.8516 27.7266 38.8516 28.2666C38.8516 28.6285 39.0491 28.9438 39.3418 29.1129V30.1996H40.3178V29.1129C40.6105 28.9439 40.808 28.6285 40.808 28.2666C40.808 27.7266 40.37 27.2891 39.8298 27.2891Z" fill="#D5D5D5"/>
<path d="M39.8301 22.5491C39.0079 22.5491 38.3391 23.2174 38.3391 24.039V25.6257H41.3211V24.039C41.321 23.2175 40.6522 22.5491 39.8301 22.5491Z" fill="#D5D5D5"/>
<path d="M39.8297 17.1702C34.6345 17.1702 30.4229 21.3788 30.4229 26.5701C30.4229 31.7613 34.6345 35.9701 39.8297 35.9701C45.0249 35.9701 49.2369 31.7613 49.2369 26.5701C49.2369 21.3788 45.0249 17.1702 39.8297 17.1702ZM42.7202 31.403H36.9396C36.3292 31.403 35.8342 30.9085 35.8342 30.2983V26.7313C35.8342 26.1992 36.2109 25.7548 36.7124 25.6503V24.0399C36.7124 22.3223 38.1109 20.9246 39.83 20.9246C41.5489 20.9246 42.9475 22.3221 42.9475 24.0399V25.6503C43.4488 25.7551 43.8255 26.1992 43.8255 26.7313V30.2983H43.8256C43.8256 30.9084 43.3307 31.403 42.7202 31.403Z" fill="#D5D5D5"/>
</g>
<defs>
<filter id="filter0_d" x="0.943237" y="0.588379" width="139.59" height="139.524" filterUnits="userSpaceOnUse" color-interpolation-filters="sRGB">
<feFlood flood-opacity="0" result="BackgroundImageFix"/>
<feColorMatrix in="SourceAlpha" type="matrix" values="0 0 0 0 0 0 0 0 0 0 0 0 0 0 0 0 0 0 127 0"/>
<feOffset dy="12"/>
<feGaussianBlur stdDeviation="12.5"/>
<feColorMatrix type="matrix" values="0 0 0 0 0 0 0 0 0 0 0 0 0 0 0 0 0 0 0.17 0"/>
<feBlend mode="normal" in2="BackgroundImageFix" result="effect1_dropShadow"/>
<feBlend mode="normal" in="SourceGraphic" in2="effect1_dropShadow" result="shape"/>
</filter>
<filter id="filter1_d" x="28.4229" y="17.1692" width="22.814" height="22.8" filterUnits="userSpaceOnUse" color-interpolation-filters="sRGB">
<feFlood flood-opacity="0" result="BackgroundImageFix"/>
<feColorMatrix in="SourceAlpha" type="matrix" values="0 0 0 0 0 0 0 0 0 0 0 0 0 0 0 0 0 0 127 0"/>
<feOffset dy="2"/>
<feGaussianBlur stdDeviation="1"/>
<feColorMatrix type="matrix" values="0 0 0 0 0 0 0 0 0 0 0 0 0 0 0 0 0 0 0.12 0"/>
<feBlend mode="normal" in2="BackgroundImageFix" result="effect1_dropShadow"/>
<feBlend mode="normal" in="SourceGraphic" in2="effect1_dropShadow" result="shape"/>
</filter>
<clipPath id="clip0">
<rect width="41.2116" height="41.1809" fill="white" transform="matrix(-1 0 0 1 88.6566 38.655)"/>
</clipPath>
<clipPath id="clip1">
<rect width="18.814" height="18.8" fill="white" transform="translate(30.4229 17.1692)"/>
</clipPath>
</defs>
</svg>
