<svg width="21" height="21" viewBox="0 0 21 21" fill="none" xmlns="http://www.w3.org/2000/svg">
<g clip-path="url(#clip0)">
<path d="M20.7274 5.79667C20.5451 5.35936 20.3262 5.0129 20.0709 4.75776L16.2428 0.929581C15.9878 0.674583 15.6413 0.45574 15.2038 0.273339C14.7666 0.0911288 14.3654 0 14.0009 0H1.31337C0.948898 0 0.638926 0.127523 0.383689 0.38276C0.128452 0.637854 0.000976562 0.947778 0.000976562 1.31244V19.6876C0.000976562 20.0523 0.128452 20.3622 0.383689 20.6174C0.638926 20.8724 0.948898 21 1.31337 21H19.6884C20.0532 21 20.3631 20.8724 20.6183 20.6174C20.8733 20.3622 21.0007 20.0523 21.0007 19.6876V7.00002C21.0007 6.63531 20.9097 6.2343 20.7274 5.79667ZM8.75097 2.18733C8.75097 2.06886 8.79431 1.96652 8.88094 1.87975C8.96747 1.79337 9.07004 1.75008 9.18851 1.75008H11.8136C11.9318 1.75008 12.0343 1.79327 12.1209 1.87975C12.2077 1.96652 12.251 2.06886 12.251 2.18733V6.56238C12.251 6.68104 12.2074 6.78352 12.1209 6.87015C12.0343 6.95649 11.9318 6.99982 11.8136 6.99982H9.18851C9.07004 6.99982 8.96742 6.95663 8.88094 6.87015C8.79431 6.78338 8.75097 6.68104 8.75097 6.56238V2.18733ZM15.7511 19.2501H5.25082V14H15.7511V19.2501ZM19.2514 19.2501H17.501H17.5007V13.5624C17.5007 13.1977 17.3732 12.888 17.118 12.6326C16.8629 12.3775 16.5529 12.2498 16.1885 12.2498H4.81337C4.44876 12.2498 4.13879 12.3775 3.88355 12.6326C3.62846 12.8878 3.50084 13.1977 3.50084 13.5624V19.2501H1.75081V1.74988H3.50079V7.43746C3.50079 7.80212 3.62827 8.1119 3.88351 8.36714C4.13874 8.62223 4.44871 8.7499 4.81333 8.7499H12.6886C13.053 8.7499 13.3633 8.62223 13.6181 8.36714C13.8731 8.11205 14.0009 7.80212 14.0009 7.43746V1.74988C14.1376 1.74988 14.3152 1.79538 14.5342 1.88651C14.7531 1.97759 14.908 2.06872 14.9991 2.15984L18.8412 6.00181C18.9323 6.09294 19.0234 6.25035 19.1145 6.47355C19.2059 6.69694 19.2513 6.87244 19.2513 7.00002V19.2501H19.2514Z" fill="#898989"/>
</g>
<defs>
<clipPath id="clip0">
<rect width="21" height="21" fill="white"/>
</clipPath>
</defs>
</svg>
