<svg width="26" height="26" viewBox="0 0 26 26" fill="none" xmlns="http://www.w3.org/2000/svg">
<g clip-path="url(#clip0)">
<path d="M20.7623 24.9435C20.9428 25.1239 21.1763 25.2142 21.4151 25.2142C21.6433 25.2142 21.8769 25.1292 22.052 24.9541L25.7299 21.3558C25.905 21.186 26.0006 20.9525 26.0006 20.703C26.0006 20.4536 25.8997 20.2254 25.7299 20.0502L22.052 16.452C21.6911 16.1017 21.1179 16.107 20.7623 16.4626C20.4121 16.8235 20.4174 17.3966 20.773 17.7522L22.8534 19.7902H20.5447C19.1383 19.7902 17.8168 19.1693 16.9093 18.0919L8.89543 7.18558C7.66946 5.45012 5.66865 4.40991 3.54577 4.40991H0.913392C0.409207 4.40991 0.00585938 4.81857 0.00585938 5.32275C0.00585938 5.82694 0.414514 6.23028 0.913392 6.23028H3.54577C5.07955 6.23028 6.52842 6.9786 7.42003 8.24702L15.4657 19.1958C15.4764 19.2117 15.487 19.2223 15.4976 19.2382C16.7501 20.7508 18.5864 21.6212 20.5501 21.6212H22.8587L20.7783 23.6591C20.4121 24.0094 20.4068 24.5826 20.7623 24.9435Z" fill="#A6A6A7"/>
<path d="M25.7238 4.67001L22.0246 1.04519C21.6637 0.694914 21.0906 0.700222 20.735 1.0558C20.3847 1.41669 20.39 1.98987 20.7456 2.34546L22.8526 4.40996H20.5439C18.5856 4.40996 16.7439 5.27503 15.4914 6.78759C15.4808 6.7982 15.4702 6.81412 15.4596 6.83004L13.9524 8.88393C13.6552 9.28728 13.7401 9.86046 14.1487 10.1577C14.3132 10.2744 14.499 10.3328 14.6848 10.3328C14.966 10.3328 15.242 10.2054 15.4171 9.9613L16.9085 7.93394C17.8107 6.85127 19.1322 6.23564 20.5439 6.23564H22.8526L20.7456 8.30014C20.3847 8.65042 20.3794 9.2289 20.735 9.58979C20.9154 9.77024 21.1489 9.86046 21.3878 9.86046C21.616 9.86046 21.8495 9.77554 22.0246 9.60041L25.7238 5.97558C25.8989 5.80575 25.9944 5.57224 25.9944 5.3228C25.9944 5.07336 25.8989 4.83984 25.7238 4.67001Z" fill="#A6A6A7"/>
<path d="M8.88957 18.8456L10.2111 17.0518C10.5083 16.6484 10.4234 16.0752 10.0147 15.778C9.61135 15.4808 9.03817 15.5658 8.74097 15.9744L7.41417 17.7842C7.40886 17.7948 7.40355 17.8001 7.39824 17.8107C6.51194 19.0526 5.06838 19.7956 3.53991 19.7956H0.907532C0.403348 19.7956 0 20.2042 0 20.7084C0 21.2126 0.408655 21.616 0.907532 21.616H3.53991C5.66279 21.616 7.66361 20.5811 8.88957 18.8456Z" fill="#A6A6A7"/>
</g>
<defs>
<clipPath id="clip0">
<rect width="26" height="26" fill="white"/>
</clipPath>
</defs>
</svg>
