<svg width="115" height="51" viewBox="0 0 115 51" fill="none" xmlns="http://www.w3.org/2000/svg">
<path d="M72.0198 14.7568C72.4773 14.3946 72.8739 14.0627 73.301 13.7609C76.4124 11.7692 80.6219 12.0106 83.5503 14.3343C85.8991 16.2053 87.2108 18.6798 87.8819 21.5165C88.2479 23.0858 88.4004 24.655 88.3699 26.2544C88.3394 29.0006 87.9429 31.6864 86.6922 34.1911C85.2585 37.058 83.0622 39.0497 79.8288 39.7136C77.3275 40.2266 74.9787 39.7739 72.9044 38.2651C72.8129 38.2047 72.7214 38.0538 72.5994 38.1142C72.4773 38.1745 72.5384 38.3254 72.5384 38.4461C72.5384 41.0112 72.5384 43.5763 72.5384 46.1112C72.5384 46.413 72.4468 46.5035 72.1723 46.594C69.8845 47.0769 67.5662 47.5597 65.2784 48.0426C64.9734 48.1029 64.9124 48.0426 64.9124 47.7408C64.9124 44.6627 64.9124 41.6148 64.9124 38.5366C64.9124 30.1473 64.9124 21.7278 64.9124 13.3384C64.9124 12.9763 65.0039 12.8858 65.3699 12.8858C67.3222 12.9159 69.2744 12.9159 71.2267 12.8858C71.5622 12.8858 71.6842 13.0065 71.7452 13.3082C71.7758 13.7911 71.8978 14.2437 72.0198 14.7568ZM80.8659 26.1337C80.8354 24.4136 80.5304 22.7236 79.5543 21.2148C78.0596 18.8307 74.9482 18.4082 72.8434 20.3094C72.5994 20.5207 72.5078 20.7319 72.5078 21.0639C72.5384 24.5645 72.5078 28.065 72.5689 31.5656C72.5689 31.7769 72.6299 31.9278 72.7824 32.0787C74.0025 33.1349 75.4362 33.497 76.9919 33.1651C78.3341 32.8935 79.1882 31.9579 79.7983 30.8112C80.5914 29.3023 80.8354 27.7331 80.8659 26.1337Z" fill="#3F50A9"/>
<path d="M110.821 31.8673C110.821 33.8591 110.821 35.8206 110.821 37.752C110.821 37.9934 110.638 38.0537 110.485 38.1141C109.082 38.8384 107.587 39.3212 106.032 39.5928C104.232 39.8946 102.432 39.9851 100.602 39.804C95.4774 39.291 91.8169 36.3034 90.4442 31.4147C89.3461 27.5218 89.4376 23.6289 90.9018 19.8265C91.9999 16.9898 93.8301 14.7567 96.6365 13.4289C98.0702 12.765 99.5649 12.433 101.151 12.4028C103.134 12.3727 104.995 12.7348 106.703 13.7608C108.716 14.9378 110.089 16.7182 111.004 18.8307C111.797 20.6111 112.194 22.4821 112.346 24.4437C112.468 25.862 112.407 27.2502 112.346 28.6685C112.346 29.0005 112.163 28.9703 111.95 28.9703C108.106 28.9703 104.232 28.9703 100.389 28.9703C99.5039 28.9703 98.6193 28.9703 97.7041 28.9703C97.4601 28.9703 97.3991 29.0005 97.4296 29.2721C97.7957 31.9579 99.6259 33.2253 102.127 33.4668C105.025 33.7384 107.801 33.2555 110.455 32.0182C110.546 31.9881 110.668 31.9277 110.821 31.8673ZM101.273 23.3875C102.493 23.3875 103.683 23.3875 104.903 23.3875C105.147 23.3875 105.208 23.3573 105.178 23.0857C105.147 22.5425 105.086 21.9691 104.934 21.4561C104.201 18.891 101.487 17.8046 99.2904 19.1928C97.8872 20.0981 97.4296 21.5165 97.3381 23.0857C97.3076 23.3573 97.3991 23.4176 97.6737 23.3875C98.8633 23.3875 100.083 23.3875 101.273 23.3875Z" fill="#3F50A9"/>
<path d="M2.89781 30.9621C3.66041 31.3242 4.362 31.6863 5.0941 31.9881C7.10736 32.7727 9.15113 33.3461 11.3169 33.3763C11.866 33.3763 12.4151 33.3159 12.9336 33.1348C13.5742 32.9236 14.0013 32.5313 14.1233 31.8372C14.2453 31.1431 13.9708 30.5999 13.4217 30.1774C12.6591 29.5739 11.744 29.2419 10.8288 28.91C9.27314 28.3366 7.71744 27.8538 6.28375 27.039C4.57553 26.0733 3.23336 24.7757 2.7758 22.8443C1.89118 19.1023 3.35537 14.9982 7.74795 13.278C9.27314 12.6745 10.8594 12.4331 12.5066 12.4029C15.0689 12.3425 17.5397 12.7348 19.919 13.5798C20.2851 13.7005 20.4376 13.8816 20.4376 14.3041C20.4071 16.2958 20.4376 18.2875 20.4376 20.2792C20.4376 20.9129 20.4376 20.9129 19.8885 20.6413C17.5702 19.555 15.1604 18.9514 12.5676 18.9816C12.0795 18.9816 11.622 19.0721 11.1644 19.2532C10.1883 19.6757 9.94423 20.8224 10.6763 21.5769C11.2864 22.1804 12.0795 22.452 12.8421 22.7538C14.3368 23.297 15.862 23.7195 17.2957 24.4135C19.2785 25.3792 20.9257 26.707 21.5357 28.8798C22.6644 32.8934 21.2307 37.1484 16.6246 38.9591C14.4588 39.8041 12.171 40.0153 9.88322 39.8644C7.62593 39.7135 5.42964 39.2005 3.32487 38.3857C2.95882 38.2348 2.8368 38.0538 2.8368 37.6916C2.86731 35.6094 2.8368 33.5271 2.8368 31.4147C2.89781 31.294 2.89781 31.1733 2.89781 30.9621Z" fill="#3F50A9"/>
<path d="M23.4879 20.5206C23.4879 16.4768 23.4879 12.4028 23.4879 8.35905C23.4879 8.05728 23.549 7.93657 23.854 7.87621C26.0808 7.42355 28.3381 6.94071 30.5649 6.45787C30.8699 6.39752 30.9614 6.42769 30.9309 6.75965C30.9309 8.66083 30.9309 10.562 30.9309 12.433C30.9309 12.9159 30.9309 12.9159 31.419 12.9159C33.0662 12.9159 34.7134 12.9159 36.3606 12.9159C36.6657 12.9159 36.7267 13.0064 36.7267 13.278C36.7267 15.1792 36.7267 17.0804 36.7267 18.9514C36.7267 19.2531 36.6657 19.3437 36.3301 19.3437C34.6524 19.3135 32.9747 19.3437 31.3275 19.3437C30.9919 19.3437 30.9309 19.4342 30.9309 19.7662C30.9309 23.2667 30.9309 26.7372 30.9309 30.2377C30.9309 31.9277 31.785 32.9839 33.3407 33.2253C34.1033 33.346 34.8964 33.2555 35.659 33.0744C35.9336 33.0141 36.1776 32.9235 36.4216 32.8632C36.6047 32.8028 36.6962 32.8028 36.6962 33.0443C36.6962 34.9454 36.6962 36.8466 36.6962 38.7176C36.6962 38.9289 36.5742 38.9892 36.4216 39.0496C35.598 39.4419 34.6829 39.6531 33.7983 39.7738C32.4561 39.9549 31.1139 40.0153 29.7718 39.804C26.5383 39.291 23.854 36.5448 23.5185 33.3159C23.3354 31.6259 23.4574 29.9058 23.4574 28.2159C23.4269 25.6206 23.4574 23.0555 23.4879 20.5206C23.4574 20.5206 23.4574 20.5206 23.4879 20.5206Z" fill="#3F50A9"/>
<path d="M46.2135 15.0887C46.488 14.7265 46.6711 14.3946 46.9456 14.123C48.0437 12.9762 49.4164 12.5538 50.9721 12.6443C51.4297 12.6745 51.8567 12.7348 52.3143 12.8555C52.4973 12.8857 52.5583 12.9762 52.5583 13.1875C52.5583 15.3301 52.5583 17.4727 52.5583 19.5851C52.5583 19.8265 52.4973 19.8567 52.2533 19.7964C50.7586 19.4644 49.3249 19.5549 47.9827 20.3396C47.8912 20.3999 47.7692 20.4603 47.6777 20.5508C47.0371 21.0035 46.7321 21.5165 46.7321 22.3916C46.7931 27.9141 46.7626 33.4064 46.7626 38.9289C46.7626 39.291 46.6711 39.3816 46.305 39.3514C44.0477 39.3212 41.7599 39.3514 39.5026 39.3514C39.1976 39.3514 39.1061 39.291 39.1061 38.9893C39.1061 30.449 39.1061 21.8786 39.1061 13.3384C39.1061 13.0366 39.1671 12.9461 39.4721 12.9461C41.4244 12.9461 43.4071 12.9461 45.3594 12.9461C45.6034 12.9461 45.7254 13.0064 45.7864 13.278C45.9085 13.8514 46.061 14.4248 46.2135 15.0887Z" fill="#3F50A9"/>
<path d="M54.4191 26.1336C54.4191 21.8786 54.4191 17.6236 54.4191 13.3686C54.4191 13.0064 54.5106 12.9159 54.8766 12.9159C57.1644 12.9461 59.4522 12.9159 61.7095 12.9159C61.9841 12.9159 62.0756 13.0064 62.0756 13.278C62.0756 21.8484 62.0756 30.4188 62.0756 38.9893C62.0756 39.2609 62.0146 39.3514 61.7095 39.3514C59.4217 39.3514 57.1339 39.3514 54.8766 39.3514C54.5411 39.3514 54.4191 39.2609 54.4191 38.9289C54.4191 34.6739 54.4191 30.4188 54.4191 26.1336Z" fill="#3F50A9"/>
<path d="M62.045 5.97506C62.045 6.91056 62.045 7.84606 62.045 8.75139C62.045 8.99281 61.9535 9.05316 61.74 9.11352C59.3607 9.59636 57.0119 10.1094 54.6326 10.5922C54.419 10.6526 54.358 10.5922 54.358 10.381C54.358 8.50997 54.358 6.60878 54.358 4.73778C54.358 4.52654 54.4495 4.46618 54.6326 4.436C57.0119 3.92299 59.4217 3.44014 61.801 2.92713C62.045 2.86677 62.045 2.98748 62.045 3.13837C62.045 4.10405 62.045 5.03955 62.045 5.97506Z" fill="#3F50A9"/>
</svg>
