<svg width="42" height="38" viewBox="0 0 42 38" fill="none" xmlns="http://www.w3.org/2000/svg">
<path fill-rule="evenodd" clip-rule="evenodd" d="M9.0816 13.2116L21.3594 37.0506L0.722656 13.2116H9.0816Z" fill="#EA6C00"/>
<path fill-rule="evenodd" clip-rule="evenodd" d="M33.6411 13.2116L21.3633 37.0506L42 13.2116H33.6411Z" fill="#EA6C00"/>
<path fill-rule="evenodd" clip-rule="evenodd" d="M9.08105 13.2116H33.6366L21.3588 37.0506L9.08105 13.2116Z" fill="#FDAD00"/>
<path fill-rule="evenodd" clip-rule="evenodd" d="M21.3588 0L9.72728 1.21969L9.08105 13.2116L21.3588 0Z" fill="#FDD231"/>
<path fill-rule="evenodd" clip-rule="evenodd" d="M21.3589 0L32.9905 1.21969L33.6367 13.2116L21.3589 0Z" fill="#FDD231"/>
<path fill-rule="evenodd" clip-rule="evenodd" d="M42 13.2116L32.9948 1.21967L33.6411 13.2116H42Z" fill="#FDAD00"/>
<path fill-rule="evenodd" clip-rule="evenodd" d="M0.722656 13.2116L9.72782 1.21967L9.0816 13.2116H0.722656Z" fill="#FDAD00"/>
<path fill-rule="evenodd" clip-rule="evenodd" d="M21.3588 0L9.08105 13.2116H33.6366L21.3588 0Z" fill="#FEEEB7"/>
</svg>
