<svg width="41" height="41" viewBox="0 0 41 41" fill="none" xmlns="http://www.w3.org/2000/svg">
<g filter="url(#filter0_i)">
<circle cx="20.5" cy="20.5" r="20.5" fill="#DDDDDD"/>
</g>
<g filter="url(#filter1_d)">
<path d="M34.5664 24.0078C32.6296 31.7757 24.7606 36.5027 16.9909 34.566C9.22483 32.6294 4.49685 24.7614 6.43418 16.9939C8.37014 9.22514 16.2386 4.49726 24.0061 6.43391C31.7753 8.37056 36.5029 16.2395 34.566 24.0078H34.5664Z" fill="#F7931A"/>
<path d="M27.1096 18.3625C27.3983 16.3946 25.9268 15.3367 23.9147 14.631L24.5674 11.9652L22.9733 11.5608L22.3378 14.1563C21.9194 14.05 21.4891 13.9497 21.0615 13.8504L21.7015 11.2378L20.1088 10.8334L19.4556 13.4982C19.1089 13.4178 18.7684 13.3383 18.438 13.2546L18.4398 13.2463L16.2421 12.6876L15.8181 14.4207C15.8181 14.4207 17.0005 14.6966 16.9756 14.7137C17.621 14.8777 17.7381 15.3126 17.7181 15.6574L16.9746 18.6943C17.0191 18.7058 17.0768 18.7225 17.1403 18.7484L16.9724 18.7058L15.9298 22.9601C15.8508 23.1597 15.6506 23.4592 15.1995 23.3455C15.2154 23.3691 14.0411 23.0511 14.0411 23.0511L13.25 24.909L15.3243 25.4354C15.7101 25.5338 16.0882 25.6369 16.4599 25.734L15.8004 28.4307L17.3922 28.8351L18.0458 26.1675C18.4802 26.2876 18.9023 26.3986 19.3154 26.503L18.6645 29.1581L20.2581 29.5625L20.9176 26.8714C23.6351 27.395 25.679 27.1838 26.5382 24.6816C27.2313 22.6666 26.5041 21.5042 25.0744 20.7458C26.1156 20.5004 26.8999 19.803 27.1092 18.3625H27.1096ZM23.468 23.5613C22.9751 25.5764 19.6435 24.4875 18.5628 24.2139L19.4379 20.6419C20.5182 20.9164 23.9818 21.4599 23.4685 23.5613H23.468ZM23.9605 18.3333C23.5112 20.1663 20.7379 19.235 19.8378 19.0067L20.6312 15.767C21.5313 15.9953 24.4289 16.4214 23.9605 18.3333Z" fill="white"/>
</g>
<defs>
<filter id="filter0_i" x="0" y="0" width="41" height="42" filterUnits="userSpaceOnUse" color-interpolation-filters="sRGB">
<feFlood flood-opacity="0" result="BackgroundImageFix"/>
<feBlend mode="normal" in="SourceGraphic" in2="BackgroundImageFix" result="shape"/>
<feColorMatrix in="SourceAlpha" type="matrix" values="0 0 0 0 0 0 0 0 0 0 0 0 0 0 0 0 0 0 127 0" result="hardAlpha"/>
<feOffset dy="1"/>
<feGaussianBlur stdDeviation="1"/>
<feComposite in2="hardAlpha" operator="arithmetic" k2="-1" k3="1"/>
<feColorMatrix type="matrix" values="0 0 0 0 0 0 0 0 0 0 0 0 0 0 0 0 0 0 0.07 0"/>
<feBlend mode="normal" in2="shape" result="effect1_innerShadow"/>
</filter>
<filter id="filter1_d" x="3" y="4" width="35" height="35" filterUnits="userSpaceOnUse" color-interpolation-filters="sRGB">
<feFlood flood-opacity="0" result="BackgroundImageFix"/>
<feColorMatrix in="SourceAlpha" type="matrix" values="0 0 0 0 0 0 0 0 0 0 0 0 0 0 0 0 0 0 127 0"/>
<feOffset dy="1"/>
<feGaussianBlur stdDeviation="1.5"/>
<feColorMatrix type="matrix" values="0 0 0 0 0 0 0 0 0 0 0 0 0 0 0 0 0 0 0.3 0"/>
<feBlend mode="normal" in2="BackgroundImageFix" result="effect1_dropShadow"/>
<feBlend mode="normal" in="SourceGraphic" in2="effect1_dropShadow" result="shape"/>
</filter>
</defs>
</svg>
