<svg width="62" height="62" viewBox="0 0 62 62" fill="none" xmlns="http://www.w3.org/2000/svg">
<g clip-path="url(#clip0)">
<mask id="path-1-outside-1" maskUnits="userSpaceOnUse" x="-0.515625" y="-1" width="63" height="64" fill="black">
<rect fill="white" x="-0.515625" y="-1" width="63" height="64"/>
<path d="M55.2509 13.4334H51.1176V1.03355C51.1176 0.462616 50.655 0 50.0845 0H29.4177C28.8468 0 28.3842 0.462616 28.3842 1.03355V4.13327H17.0179C16.447 4.13327 15.9844 4.59589 15.9844 5.16682V13.4334H1.51793C0.946991 13.4334 0.484375 13.896 0.484375 14.4669V55.8001C0.484375 56.3706 0.946991 56.8332 1.51793 56.8332H9.78447V60.9669C9.78447 61.5374 10.2471 62 10.8175 62H55.1785C58.641 61.9962 61.447 59.1902 61.4513 55.7277V19.6333C61.4475 16.2105 58.6737 13.4367 55.2509 13.4334ZM30.4513 2.06664H49.051V23.7665H38.7178V5.16682C38.7178 4.59589 38.2552 4.13327 37.6843 4.13327H30.4513V2.06664ZM37.6843 37.1999C37.6843 37.7708 37.2217 38.2335 36.6512 38.2335C36.0802 38.2335 35.6176 37.7708 35.6176 37.1999C35.6176 36.6294 36.0802 36.1668 36.6512 36.1668C37.2217 36.1668 37.6843 36.6294 37.6843 37.1999ZM18.051 6.19991H36.6512V23.7665H18.051V6.19991ZM9.78447 24.8001V54.7665H2.55101V15.5H15.9844V23.7665H10.818C10.2471 23.7665 9.78447 24.2292 9.78447 24.8001ZM59.3842 55.7277C59.3818 58.0493 57.5001 59.9305 55.1785 59.9334H54.2178V53.7335C54.2178 53.1625 53.7552 52.6999 53.1843 52.6999H48.8608C48.2904 51.086 46.5189 50.2397 44.905 50.8107C43.2905 51.3811 42.4448 53.1526 43.0157 54.7665C43.5862 56.381 45.3576 57.2267 46.9716 56.6558C47.8542 56.3441 48.5491 55.6497 48.8608 54.7665H52.1512V59.9334H38.7178V52.0944L41.5233 49.2899C41.9367 49.4923 42.3908 49.5983 42.8511 49.5997C44.563 49.5997 45.9513 48.2119 45.9513 46.5C45.9513 44.7877 44.563 43.3998 42.8511 43.3998C41.1388 43.3998 39.7509 44.7877 39.7509 46.5C39.7528 46.9603 39.8588 47.4144 40.0612 47.8278L36.953 50.936C36.7595 51.1299 36.6507 51.3929 36.6512 51.6668V59.9334H20.1176V53.7335H24.4411C25.012 55.3474 26.783 56.1932 28.3974 55.6227C30.0114 55.0518 30.8571 53.2808 30.2867 51.6664C29.7157 50.0524 27.9447 49.2066 26.3303 49.7771C25.4477 50.0893 24.7533 50.7837 24.4411 51.6664H19.0846C18.5136 51.6664 18.051 52.1294 18.051 52.6999V59.9334H11.8511V45.4664H18.2412C18.8121 47.0809 20.5831 47.9266 22.197 47.3562C23.8115 46.7852 24.6572 45.0142 24.0868 43.3998C23.5158 41.7859 21.7448 40.9401 20.1304 41.5106C19.2478 41.8228 18.5534 42.5172 18.2412 43.3998H11.8511V25.8332H18.051V31C18.051 31.2739 18.1598 31.5369 18.3537 31.7303L22.4946 35.8721C22.2921 36.2856 22.1862 36.7397 22.1843 37.1999C22.1843 38.9122 23.5721 40.3001 25.2845 40.3001C26.9963 40.3001 28.3842 38.9122 28.3842 37.1999C28.3842 35.488 26.9963 34.1002 25.2845 34.1002C24.8242 34.1016 24.3701 34.2076 23.9567 34.41L20.1176 30.5719V25.8332H35.6176V34.2899C34.0037 34.8608 33.1574 36.6318 33.7284 38.2462C34.2988 39.8602 36.0703 40.7064 37.6843 40.1355C39.2987 39.5645 40.1445 37.7935 39.5735 36.1796C39.2618 35.2965 38.5669 34.6021 37.6843 34.2899V25.8332H51.1176V34.7057L49.3457 36.4767C48.9318 36.2742 48.4782 36.1682 48.0179 36.1668C46.3056 36.1668 44.9177 37.5547 44.9177 39.2665C44.9177 40.9789 46.3056 42.3667 48.0179 42.3667C49.7298 42.3667 51.1176 40.9789 51.1176 39.2665C51.1157 38.8063 51.0098 38.3522 50.8078 37.9388L52.8825 35.8641C53.0759 35.6702 53.1847 35.4072 53.1843 35.1333V25.8332H55.2509C56.7783 25.8327 58.2513 25.266 59.3842 24.2419V55.7277ZM46.9844 53.7335C46.9844 54.3039 46.5217 54.7665 45.9513 54.7665C45.3803 54.7665 44.9177 54.3039 44.9177 53.7335C44.9177 53.1625 45.3803 52.6999 45.9513 52.6999C46.5217 52.6999 46.9844 53.1625 46.9844 53.7335ZM41.8175 46.5C41.8175 45.9291 42.2802 45.4664 42.8511 45.4664C43.4216 45.4664 43.8846 45.9291 43.8846 46.5C43.8846 47.0705 43.4216 47.5331 42.8511 47.5331C42.2802 47.5331 41.8175 47.0705 41.8175 46.5ZM26.3175 52.6999C26.3175 52.1294 26.7802 51.6668 27.3511 51.6668C27.922 51.6668 28.3846 52.1294 28.3846 52.6999C28.3846 53.2708 27.922 53.7335 27.3511 53.7335C26.7802 53.7335 26.3175 53.2708 26.3175 52.6999ZM20.1176 44.4334C20.1176 43.8624 20.5803 43.3998 21.1512 43.3998C21.7217 43.3998 22.1843 43.8624 22.1843 44.4334C22.1843 45.0038 21.7217 45.4664 21.1512 45.4664C20.5803 45.4664 20.1176 45.0038 20.1176 44.4334ZM24.2509 37.1999C24.2509 36.6294 24.7135 36.1668 25.2845 36.1668C25.8549 36.1668 26.318 36.6294 26.318 37.1999C26.318 37.7708 25.8549 38.2335 25.2845 38.2335C24.7135 38.2335 24.2509 37.7708 24.2509 37.1999ZM49.051 39.2665C49.051 39.8375 48.5884 40.3001 48.0179 40.3001C47.447 40.3001 46.9844 39.8375 46.9844 39.2665C46.9844 38.6961 47.447 38.2335 48.0179 38.2335C48.5884 38.2335 49.051 38.6961 49.051 39.2665ZM55.2509 23.7665H51.1176V15.5H55.2509C57.5337 15.5 59.3842 17.3505 59.3842 19.6333C59.3842 21.9161 57.5337 23.7665 55.2509 23.7665Z"/>
</mask>
<path d="M55.2509 13.4334H51.1176V1.03355C51.1176 0.462616 50.655 0 50.0845 0H29.4177C28.8468 0 28.3842 0.462616 28.3842 1.03355V4.13327H17.0179C16.447 4.13327 15.9844 4.59589 15.9844 5.16682V13.4334H1.51793C0.946991 13.4334 0.484375 13.896 0.484375 14.4669V55.8001C0.484375 56.3706 0.946991 56.8332 1.51793 56.8332H9.78447V60.9669C9.78447 61.5374 10.2471 62 10.8175 62H55.1785C58.641 61.9962 61.447 59.1902 61.4513 55.7277V19.6333C61.4475 16.2105 58.6737 13.4367 55.2509 13.4334ZM30.4513 2.06664H49.051V23.7665H38.7178V5.16682C38.7178 4.59589 38.2552 4.13327 37.6843 4.13327H30.4513V2.06664ZM37.6843 37.1999C37.6843 37.7708 37.2217 38.2335 36.6512 38.2335C36.0802 38.2335 35.6176 37.7708 35.6176 37.1999C35.6176 36.6294 36.0802 36.1668 36.6512 36.1668C37.2217 36.1668 37.6843 36.6294 37.6843 37.1999ZM18.051 6.19991H36.6512V23.7665H18.051V6.19991ZM9.78447 24.8001V54.7665H2.55101V15.5H15.9844V23.7665H10.818C10.2471 23.7665 9.78447 24.2292 9.78447 24.8001ZM59.3842 55.7277C59.3818 58.0493 57.5001 59.9305 55.1785 59.9334H54.2178V53.7335C54.2178 53.1625 53.7552 52.6999 53.1843 52.6999H48.8608C48.2904 51.086 46.5189 50.2397 44.905 50.8107C43.2905 51.3811 42.4448 53.1526 43.0157 54.7665C43.5862 56.381 45.3576 57.2267 46.9716 56.6558C47.8542 56.3441 48.5491 55.6497 48.8608 54.7665H52.1512V59.9334H38.7178V52.0944L41.5233 49.2899C41.9367 49.4923 42.3908 49.5983 42.8511 49.5997C44.563 49.5997 45.9513 48.2119 45.9513 46.5C45.9513 44.7877 44.563 43.3998 42.8511 43.3998C41.1388 43.3998 39.7509 44.7877 39.7509 46.5C39.7528 46.9603 39.8588 47.4144 40.0612 47.8278L36.953 50.936C36.7595 51.1299 36.6507 51.3929 36.6512 51.6668V59.9334H20.1176V53.7335H24.4411C25.012 55.3474 26.783 56.1932 28.3974 55.6227C30.0114 55.0518 30.8571 53.2808 30.2867 51.6664C29.7157 50.0524 27.9447 49.2066 26.3303 49.7771C25.4477 50.0893 24.7533 50.7837 24.4411 51.6664H19.0846C18.5136 51.6664 18.051 52.1294 18.051 52.6999V59.9334H11.8511V45.4664H18.2412C18.8121 47.0809 20.5831 47.9266 22.197 47.3562C23.8115 46.7852 24.6572 45.0142 24.0868 43.3998C23.5158 41.7859 21.7448 40.9401 20.1304 41.5106C19.2478 41.8228 18.5534 42.5172 18.2412 43.3998H11.8511V25.8332H18.051V31C18.051 31.2739 18.1598 31.5369 18.3537 31.7303L22.4946 35.8721C22.2921 36.2856 22.1862 36.7397 22.1843 37.1999C22.1843 38.9122 23.5721 40.3001 25.2845 40.3001C26.9963 40.3001 28.3842 38.9122 28.3842 37.1999C28.3842 35.488 26.9963 34.1002 25.2845 34.1002C24.8242 34.1016 24.3701 34.2076 23.9567 34.41L20.1176 30.5719V25.8332H35.6176V34.2899C34.0037 34.8608 33.1574 36.6318 33.7284 38.2462C34.2988 39.8602 36.0703 40.7064 37.6843 40.1355C39.2987 39.5645 40.1445 37.7935 39.5735 36.1796C39.2618 35.2965 38.5669 34.6021 37.6843 34.2899V25.8332H51.1176V34.7057L49.3457 36.4767C48.9318 36.2742 48.4782 36.1682 48.0179 36.1668C46.3056 36.1668 44.9177 37.5547 44.9177 39.2665C44.9177 40.9789 46.3056 42.3667 48.0179 42.3667C49.7298 42.3667 51.1176 40.9789 51.1176 39.2665C51.1157 38.8063 51.0098 38.3522 50.8078 37.9388L52.8825 35.8641C53.0759 35.6702 53.1847 35.4072 53.1843 35.1333V25.8332H55.2509C56.7783 25.8327 58.2513 25.266 59.3842 24.2419V55.7277ZM46.9844 53.7335C46.9844 54.3039 46.5217 54.7665 45.9513 54.7665C45.3803 54.7665 44.9177 54.3039 44.9177 53.7335C44.9177 53.1625 45.3803 52.6999 45.9513 52.6999C46.5217 52.6999 46.9844 53.1625 46.9844 53.7335ZM41.8175 46.5C41.8175 45.9291 42.2802 45.4664 42.8511 45.4664C43.4216 45.4664 43.8846 45.9291 43.8846 46.5C43.8846 47.0705 43.4216 47.5331 42.8511 47.5331C42.2802 47.5331 41.8175 47.0705 41.8175 46.5ZM26.3175 52.6999C26.3175 52.1294 26.7802 51.6668 27.3511 51.6668C27.922 51.6668 28.3846 52.1294 28.3846 52.6999C28.3846 53.2708 27.922 53.7335 27.3511 53.7335C26.7802 53.7335 26.3175 53.2708 26.3175 52.6999ZM20.1176 44.4334C20.1176 43.8624 20.5803 43.3998 21.1512 43.3998C21.7217 43.3998 22.1843 43.8624 22.1843 44.4334C22.1843 45.0038 21.7217 45.4664 21.1512 45.4664C20.5803 45.4664 20.1176 45.0038 20.1176 44.4334ZM24.2509 37.1999C24.2509 36.6294 24.7135 36.1668 25.2845 36.1668C25.8549 36.1668 26.318 36.6294 26.318 37.1999C26.318 37.7708 25.8549 38.2335 25.2845 38.2335C24.7135 38.2335 24.2509 37.7708 24.2509 37.1999ZM49.051 39.2665C49.051 39.8375 48.5884 40.3001 48.0179 40.3001C47.447 40.3001 46.9844 39.8375 46.9844 39.2665C46.9844 38.6961 47.447 38.2335 48.0179 38.2335C48.5884 38.2335 49.051 38.6961 49.051 39.2665ZM55.2509 23.7665H51.1176V15.5H55.2509C57.5337 15.5 59.3842 17.3505 59.3842 19.6333C59.3842 21.9161 57.5337 23.7665 55.2509 23.7665Z" fill="#697BDC"/>
<path d="M55.2509 13.4334H51.1176V1.03355C51.1176 0.462616 50.655 0 50.0845 0H29.4177C28.8468 0 28.3842 0.462616 28.3842 1.03355V4.13327H17.0179C16.447 4.13327 15.9844 4.59589 15.9844 5.16682V13.4334H1.51793C0.946991 13.4334 0.484375 13.896 0.484375 14.4669V55.8001C0.484375 56.3706 0.946991 56.8332 1.51793 56.8332H9.78447V60.9669C9.78447 61.5374 10.2471 62 10.8175 62H55.1785C58.641 61.9962 61.447 59.1902 61.4513 55.7277V19.6333C61.4475 16.2105 58.6737 13.4367 55.2509 13.4334ZM30.4513 2.06664H49.051V23.7665H38.7178V5.16682C38.7178 4.59589 38.2552 4.13327 37.6843 4.13327H30.4513V2.06664ZM37.6843 37.1999C37.6843 37.7708 37.2217 38.2335 36.6512 38.2335C36.0802 38.2335 35.6176 37.7708 35.6176 37.1999C35.6176 36.6294 36.0802 36.1668 36.6512 36.1668C37.2217 36.1668 37.6843 36.6294 37.6843 37.1999ZM18.051 6.19991H36.6512V23.7665H18.051V6.19991ZM9.78447 24.8001V54.7665H2.55101V15.5H15.9844V23.7665H10.818C10.2471 23.7665 9.78447 24.2292 9.78447 24.8001ZM59.3842 55.7277C59.3818 58.0493 57.5001 59.9305 55.1785 59.9334H54.2178V53.7335C54.2178 53.1625 53.7552 52.6999 53.1843 52.6999H48.8608C48.2904 51.086 46.5189 50.2397 44.905 50.8107C43.2905 51.3811 42.4448 53.1526 43.0157 54.7665C43.5862 56.381 45.3576 57.2267 46.9716 56.6558C47.8542 56.3441 48.5491 55.6497 48.8608 54.7665H52.1512V59.9334H38.7178V52.0944L41.5233 49.2899C41.9367 49.4923 42.3908 49.5983 42.8511 49.5997C44.563 49.5997 45.9513 48.2119 45.9513 46.5C45.9513 44.7877 44.563 43.3998 42.8511 43.3998C41.1388 43.3998 39.7509 44.7877 39.7509 46.5C39.7528 46.9603 39.8588 47.4144 40.0612 47.8278L36.953 50.936C36.7595 51.1299 36.6507 51.3929 36.6512 51.6668V59.9334H20.1176V53.7335H24.4411C25.012 55.3474 26.783 56.1932 28.3974 55.6227C30.0114 55.0518 30.8571 53.2808 30.2867 51.6664C29.7157 50.0524 27.9447 49.2066 26.3303 49.7771C25.4477 50.0893 24.7533 50.7837 24.4411 51.6664H19.0846C18.5136 51.6664 18.051 52.1294 18.051 52.6999V59.9334H11.8511V45.4664H18.2412C18.8121 47.0809 20.5831 47.9266 22.197 47.3562C23.8115 46.7852 24.6572 45.0142 24.0868 43.3998C23.5158 41.7859 21.7448 40.9401 20.1304 41.5106C19.2478 41.8228 18.5534 42.5172 18.2412 43.3998H11.8511V25.8332H18.051V31C18.051 31.2739 18.1598 31.5369 18.3537 31.7303L22.4946 35.8721C22.2921 36.2856 22.1862 36.7397 22.1843 37.1999C22.1843 38.9122 23.5721 40.3001 25.2845 40.3001C26.9963 40.3001 28.3842 38.9122 28.3842 37.1999C28.3842 35.488 26.9963 34.1002 25.2845 34.1002C24.8242 34.1016 24.3701 34.2076 23.9567 34.41L20.1176 30.5719V25.8332H35.6176V34.2899C34.0037 34.8608 33.1574 36.6318 33.7284 38.2462C34.2988 39.8602 36.0703 40.7064 37.6843 40.1355C39.2987 39.5645 40.1445 37.7935 39.5735 36.1796C39.2618 35.2965 38.5669 34.6021 37.6843 34.2899V25.8332H51.1176V34.7057L49.3457 36.4767C48.9318 36.2742 48.4782 36.1682 48.0179 36.1668C46.3056 36.1668 44.9177 37.5547 44.9177 39.2665C44.9177 40.9789 46.3056 42.3667 48.0179 42.3667C49.7298 42.3667 51.1176 40.9789 51.1176 39.2665C51.1157 38.8063 51.0098 38.3522 50.8078 37.9388L52.8825 35.8641C53.0759 35.6702 53.1847 35.4072 53.1843 35.1333V25.8332H55.2509C56.7783 25.8327 58.2513 25.266 59.3842 24.2419V55.7277ZM46.9844 53.7335C46.9844 54.3039 46.5217 54.7665 45.9513 54.7665C45.3803 54.7665 44.9177 54.3039 44.9177 53.7335C44.9177 53.1625 45.3803 52.6999 45.9513 52.6999C46.5217 52.6999 46.9844 53.1625 46.9844 53.7335ZM41.8175 46.5C41.8175 45.9291 42.2802 45.4664 42.8511 45.4664C43.4216 45.4664 43.8846 45.9291 43.8846 46.5C43.8846 47.0705 43.4216 47.5331 42.8511 47.5331C42.2802 47.5331 41.8175 47.0705 41.8175 46.5ZM26.3175 52.6999C26.3175 52.1294 26.7802 51.6668 27.3511 51.6668C27.922 51.6668 28.3846 52.1294 28.3846 52.6999C28.3846 53.2708 27.922 53.7335 27.3511 53.7335C26.7802 53.7335 26.3175 53.2708 26.3175 52.6999ZM20.1176 44.4334C20.1176 43.8624 20.5803 43.3998 21.1512 43.3998C21.7217 43.3998 22.1843 43.8624 22.1843 44.4334C22.1843 45.0038 21.7217 45.4664 21.1512 45.4664C20.5803 45.4664 20.1176 45.0038 20.1176 44.4334ZM24.2509 37.1999C24.2509 36.6294 24.7135 36.1668 25.2845 36.1668C25.8549 36.1668 26.318 36.6294 26.318 37.1999C26.318 37.7708 25.8549 38.2335 25.2845 38.2335C24.7135 38.2335 24.2509 37.7708 24.2509 37.1999ZM49.051 39.2665C49.051 39.8375 48.5884 40.3001 48.0179 40.3001C47.447 40.3001 46.9844 39.8375 46.9844 39.2665C46.9844 38.6961 47.447 38.2335 48.0179 38.2335C48.5884 38.2335 49.051 38.6961 49.051 39.2665ZM55.2509 23.7665H51.1176V15.5H55.2509C57.5337 15.5 59.3842 17.3505 59.3842 19.6333C59.3842 21.9161 57.5337 23.7665 55.2509 23.7665Z" stroke="#697BDC" stroke-width="0.32" mask="url(#path-1-outside-1)"/>
</g>
<defs>
<clipPath id="clip0">
<rect width="62" height="62" fill="white"/>
</clipPath>
</defs>
</svg>
