<svg width="61" height="61" viewBox="0 0 61 61" fill="none" xmlns="http://www.w3.org/2000/svg">
<g clip-path="url(#clip0)">
<mask id="path-1-outside-1" maskUnits="userSpaceOnUse" x="-1" y="-1" width="63" height="63" fill="black">
<rect fill="white" x="-1" y="-1" width="63" height="63"/>
<path d="M55.877 0H53.3154C52.8221 0 52.4219 0.399773 52.4219 0.893555C52.4219 1.38734 52.8221 1.78711 53.3154 1.78711H55.877C57.7162 1.78711 59.2129 3.27962 59.2129 5.11467V9.68018C58.3156 8.90948 57.1503 8.44223 55.877 8.44223H39.7334V6.75425C39.7334 6.1269 39.3783 5.57587 38.8063 5.31618C38.233 5.0565 37.5837 5.15237 37.1104 5.5661L33.8224 8.44223H27.1771L23.89 5.56657C23.4167 5.15237 22.767 5.0565 22.1941 5.31665C21.6222 5.57587 21.2666 6.12737 21.2666 6.75471V8.44223H8.21651V1.78711H49.4731C49.9665 1.78711 50.3667 1.38734 50.3667 0.893555C50.3667 0.399773 49.9665 0 49.4731 0H5.11467C2.29439 0 0 2.29439 0 5.11467V15.122C0 15.6153 0.400238 16.0156 0.893555 16.0156C1.38687 16.0156 1.78711 15.6153 1.78711 15.122V8.99698C1.80852 9.01513 1.83039 9.03235 1.85226 9.0505C1.86018 9.05701 1.86809 9.06353 1.87646 9.07005C1.93417 9.11752 1.99281 9.16405 2.05238 9.20873C2.05471 9.21059 2.0575 9.21246 2.05983 9.21432C2.52569 9.5629 3.04321 9.82724 3.59377 9.9985C3.59609 9.99897 3.59888 9.9999 3.60168 10.0008C3.67381 10.0232 3.74595 10.0436 3.81902 10.0627C3.83903 10.0678 3.85857 10.0725 3.87812 10.0772C3.93443 10.0911 3.99121 10.1046 4.04799 10.1167C4.07684 10.1228 4.1057 10.1283 4.13455 10.1339C4.18342 10.1432 4.23228 10.1521 4.28162 10.1605C4.31512 10.1656 4.34863 10.1712 4.38214 10.1758C4.42868 10.1828 4.47569 10.1884 4.52269 10.194C4.55713 10.1977 4.59157 10.2019 4.62647 10.2051C4.67813 10.2103 4.73026 10.214 4.78238 10.2172C4.81123 10.2191 4.84009 10.2214 4.86894 10.2228C4.95364 10.227 5.03788 10.2293 5.12305 10.2293H21.2666V13.999H12.6289C12.1356 13.999 11.7354 14.3993 11.7354 14.8926V25.471C10.6952 25.84 9.94824 26.8332 9.94824 27.998C9.94824 29.4761 11.1508 30.6787 12.6289 30.6787C14.107 30.6787 15.3096 29.4761 15.3096 27.998C15.3096 26.8332 14.5626 25.84 13.5225 25.471V15.7861H21.2666V16.7951C21.2666 17.2498 21.463 17.6831 21.806 17.9833L29.4571 24.6789C29.7544 24.9386 30.1268 25.0684 30.4991 25.0684C30.8718 25.0684 31.2442 24.9386 31.5411 24.6789L39.1945 17.9833C39.537 17.6831 39.7334 17.2503 39.7334 16.7951V15.7861H49.7757C50.1447 16.8263 51.1379 17.5732 52.3027 17.5732C53.7808 17.5732 54.9834 16.3707 54.9834 14.8926C54.9834 13.4145 53.7808 12.2119 52.3027 12.2119C51.1379 12.2119 50.1447 12.9589 49.7757 13.999H39.7334V10.2293H55.877C57.7162 10.2293 59.2129 11.7223 59.2129 13.5569V20.0156H52.1738C50.1424 20.0156 48.4902 21.6678 48.4902 23.6992V31.2246C48.4902 33.2561 50.1424 34.9082 52.1738 34.9082H59.2129V40.9928C59.2129 42.8273 57.7162 44.3203 55.877 44.3203H47.4738C47.4752 44.2212 47.4775 44.1221 47.4775 44.0225C47.4775 39.6096 45.7924 35.4285 42.7329 32.2499C42.3908 31.8943 41.8249 31.8836 41.4698 32.2261C41.1142 32.5682 41.1031 33.1337 41.4456 33.4892C44.183 36.3332 45.6904 40.0736 45.6904 44.0225C45.6904 52.3986 38.8761 59.2129 30.5 59.2129C22.1239 59.2129 15.3096 52.3986 15.3096 44.0225C15.3096 35.6463 22.1239 28.832 30.5 28.832C33.485 28.832 36.3737 29.6967 38.8538 31.3331C39.2657 31.6048 39.82 31.4913 40.0918 31.0794C40.3635 30.6675 40.25 30.1133 39.8381 29.8415C37.0648 28.012 33.8359 27.0449 30.5 27.0449C21.1386 27.0449 13.5225 34.6611 13.5225 44.0225C13.5225 44.1221 13.5243 44.2212 13.5262 44.3203H5.12305C3.28381 44.3203 1.78711 42.8278 1.78711 40.9928V19.0625C1.78711 18.5687 1.38687 18.1689 0.893555 18.1689C0.400238 18.1689 0 18.5687 0 19.0625V40.9928C0 43.813 2.29811 46.1074 5.12305 46.1074H13.6504C14.6818 54.4887 21.8446 61 30.5 61C39.1554 61 46.3182 54.4887 47.3496 46.1074H55.877C58.7019 46.1074 61 43.813 61 40.9928V5.11467C61 2.29439 58.7019 0 55.877 0ZM6.42941 1.78711V8.44176H5.11467C5.05929 8.44176 5.00437 8.44037 4.94992 8.43758C4.91734 8.43618 4.88523 8.43339 4.85265 8.4306C4.83078 8.4292 4.80891 8.4278 4.78703 8.42594C4.74561 8.42175 4.70466 8.41617 4.66324 8.41058C4.65021 8.40872 4.63718 8.40733 4.62368 8.40546C4.58366 8.39988 4.54363 8.39243 4.50407 8.38499C4.48965 8.38219 4.47522 8.37987 4.46079 8.37708C4.42496 8.37009 4.39005 8.36172 4.35468 8.35334C4.33607 8.34915 4.31699 8.34496 4.29837 8.34031C4.26905 8.33286 4.2402 8.32449 4.21088 8.31611C4.18668 8.30959 4.16201 8.30308 4.13828 8.29563C4.11501 8.28865 4.09267 8.28074 4.06986 8.27329C4.04008 8.26352 4.00983 8.25375 3.98051 8.24304C3.96375 8.23699 3.947 8.23001 3.93024 8.2235C3.89534 8.21 3.8609 8.19697 3.82646 8.18254C3.81483 8.17742 3.80273 8.17184 3.79109 8.16672C3.75293 8.14996 3.71477 8.13321 3.67754 8.11506C3.66869 8.11087 3.65985 8.10622 3.65147 8.10203C3.61145 8.08248 3.57189 8.06247 3.53326 8.04153C3.52535 8.03734 3.51744 8.03268 3.50999 8.0285C3.4709 8.00662 3.43227 7.98475 3.39411 7.96148C3.38387 7.95543 3.3741 7.94891 3.36433 7.94286C3.32942 7.92099 3.29452 7.89912 3.26008 7.87585C3.24332 7.86468 3.22657 7.85211 3.20982 7.84048C3.18375 7.82186 3.15723 7.80371 3.13116 7.78463C3.09952 7.76089 3.06834 7.73623 3.03716 7.7111C3.02738 7.70319 3.01668 7.69574 3.0069 7.68736C2.92267 7.61802 2.84122 7.54449 2.76304 7.4663C2.68671 7.38998 2.61458 7.31086 2.54663 7.22895C2.14174 6.73796 1.8746 6.12923 1.80526 5.46232C1.80479 5.45953 1.80433 5.45627 1.80386 5.45348C1.79921 5.40554 1.79595 5.35714 1.79316 5.30874C1.79269 5.30036 1.7913 5.29245 1.7913 5.28407C1.78851 5.22823 1.78711 5.17145 1.78711 5.11467C1.78711 3.27962 3.28381 1.78711 5.12305 1.78711H6.42941ZM12.6289 28.8916C12.1361 28.8916 11.7354 28.4909 11.7354 27.998C11.7354 27.5052 12.1361 27.1045 12.6289 27.1045C13.1218 27.1045 13.5225 27.5052 13.5225 27.998C13.5225 28.4909 13.1218 28.8916 12.6289 28.8916ZM52.3027 13.999C52.7956 13.999 53.1963 14.3997 53.1963 14.8926C53.1963 15.3854 52.7956 15.7861 52.3027 15.7861C51.8099 15.7861 51.4092 15.3854 51.4092 14.8926C51.4092 14.3997 51.8099 13.999 52.3027 13.999ZM31.7789 10.2293L30.4991 11.3491L29.2197 10.2293H31.7789ZM37.9463 16.7002L30.4991 23.2157L23.0537 16.7002V7.20987L29.4575 12.8123C30.0514 13.3316 30.9472 13.3316 31.5411 12.8123L37.9463 7.2094V16.7002ZM52.1738 33.1211C51.1281 33.1211 50.2773 32.2704 50.2773 31.2246V23.6992C50.2773 22.6535 51.1281 21.8027 52.1738 21.8027H59.2129V33.1211H52.1738Z"/>
</mask>
<path d="M55.877 0H53.3154C52.8221 0 52.4219 0.399773 52.4219 0.893555C52.4219 1.38734 52.8221 1.78711 53.3154 1.78711H55.877C57.7162 1.78711 59.2129 3.27962 59.2129 5.11467V9.68018C58.3156 8.90948 57.1503 8.44223 55.877 8.44223H39.7334V6.75425C39.7334 6.1269 39.3783 5.57587 38.8063 5.31618C38.233 5.0565 37.5837 5.15237 37.1104 5.5661L33.8224 8.44223H27.1771L23.89 5.56657C23.4167 5.15237 22.767 5.0565 22.1941 5.31665C21.6222 5.57587 21.2666 6.12737 21.2666 6.75471V8.44223H8.21651V1.78711H49.4731C49.9665 1.78711 50.3667 1.38734 50.3667 0.893555C50.3667 0.399773 49.9665 0 49.4731 0H5.11467C2.29439 0 0 2.29439 0 5.11467V15.122C0 15.6153 0.400238 16.0156 0.893555 16.0156C1.38687 16.0156 1.78711 15.6153 1.78711 15.122V8.99698C1.80852 9.01513 1.83039 9.03235 1.85226 9.0505C1.86018 9.05701 1.86809 9.06353 1.87646 9.07005C1.93417 9.11752 1.99281 9.16405 2.05238 9.20873C2.05471 9.21059 2.0575 9.21246 2.05983 9.21432C2.52569 9.5629 3.04321 9.82724 3.59377 9.9985C3.59609 9.99897 3.59888 9.9999 3.60168 10.0008C3.67381 10.0232 3.74595 10.0436 3.81902 10.0627C3.83903 10.0678 3.85857 10.0725 3.87812 10.0772C3.93443 10.0911 3.99121 10.1046 4.04799 10.1167C4.07684 10.1228 4.1057 10.1283 4.13455 10.1339C4.18342 10.1432 4.23228 10.1521 4.28162 10.1605C4.31512 10.1656 4.34863 10.1712 4.38214 10.1758C4.42868 10.1828 4.47569 10.1884 4.52269 10.194C4.55713 10.1977 4.59157 10.2019 4.62647 10.2051C4.67813 10.2103 4.73026 10.214 4.78238 10.2172C4.81123 10.2191 4.84009 10.2214 4.86894 10.2228C4.95364 10.227 5.03788 10.2293 5.12305 10.2293H21.2666V13.999H12.6289C12.1356 13.999 11.7354 14.3993 11.7354 14.8926V25.471C10.6952 25.84 9.94824 26.8332 9.94824 27.998C9.94824 29.4761 11.1508 30.6787 12.6289 30.6787C14.107 30.6787 15.3096 29.4761 15.3096 27.998C15.3096 26.8332 14.5626 25.84 13.5225 25.471V15.7861H21.2666V16.7951C21.2666 17.2498 21.463 17.6831 21.806 17.9833L29.4571 24.6789C29.7544 24.9386 30.1268 25.0684 30.4991 25.0684C30.8718 25.0684 31.2442 24.9386 31.5411 24.6789L39.1945 17.9833C39.537 17.6831 39.7334 17.2503 39.7334 16.7951V15.7861H49.7757C50.1447 16.8263 51.1379 17.5732 52.3027 17.5732C53.7808 17.5732 54.9834 16.3707 54.9834 14.8926C54.9834 13.4145 53.7808 12.2119 52.3027 12.2119C51.1379 12.2119 50.1447 12.9589 49.7757 13.999H39.7334V10.2293H55.877C57.7162 10.2293 59.2129 11.7223 59.2129 13.5569V20.0156H52.1738C50.1424 20.0156 48.4902 21.6678 48.4902 23.6992V31.2246C48.4902 33.2561 50.1424 34.9082 52.1738 34.9082H59.2129V40.9928C59.2129 42.8273 57.7162 44.3203 55.877 44.3203H47.4738C47.4752 44.2212 47.4775 44.1221 47.4775 44.0225C47.4775 39.6096 45.7924 35.4285 42.7329 32.2499C42.3908 31.8943 41.8249 31.8836 41.4698 32.2261C41.1142 32.5682 41.1031 33.1337 41.4456 33.4892C44.183 36.3332 45.6904 40.0736 45.6904 44.0225C45.6904 52.3986 38.8761 59.2129 30.5 59.2129C22.1239 59.2129 15.3096 52.3986 15.3096 44.0225C15.3096 35.6463 22.1239 28.832 30.5 28.832C33.485 28.832 36.3737 29.6967 38.8538 31.3331C39.2657 31.6048 39.82 31.4913 40.0918 31.0794C40.3635 30.6675 40.25 30.1133 39.8381 29.8415C37.0648 28.012 33.8359 27.0449 30.5 27.0449C21.1386 27.0449 13.5225 34.6611 13.5225 44.0225C13.5225 44.1221 13.5243 44.2212 13.5262 44.3203H5.12305C3.28381 44.3203 1.78711 42.8278 1.78711 40.9928V19.0625C1.78711 18.5687 1.38687 18.1689 0.893555 18.1689C0.400238 18.1689 0 18.5687 0 19.0625V40.9928C0 43.813 2.29811 46.1074 5.12305 46.1074H13.6504C14.6818 54.4887 21.8446 61 30.5 61C39.1554 61 46.3182 54.4887 47.3496 46.1074H55.877C58.7019 46.1074 61 43.813 61 40.9928V5.11467C61 2.29439 58.7019 0 55.877 0ZM6.42941 1.78711V8.44176H5.11467C5.05929 8.44176 5.00437 8.44037 4.94992 8.43758C4.91734 8.43618 4.88523 8.43339 4.85265 8.4306C4.83078 8.4292 4.80891 8.4278 4.78703 8.42594C4.74561 8.42175 4.70466 8.41617 4.66324 8.41058C4.65021 8.40872 4.63718 8.40733 4.62368 8.40546C4.58366 8.39988 4.54363 8.39243 4.50407 8.38499C4.48965 8.38219 4.47522 8.37987 4.46079 8.37708C4.42496 8.37009 4.39005 8.36172 4.35468 8.35334C4.33607 8.34915 4.31699 8.34496 4.29837 8.34031C4.26905 8.33286 4.2402 8.32449 4.21088 8.31611C4.18668 8.30959 4.16201 8.30308 4.13828 8.29563C4.11501 8.28865 4.09267 8.28074 4.06986 8.27329C4.04008 8.26352 4.00983 8.25375 3.98051 8.24304C3.96375 8.23699 3.947 8.23001 3.93024 8.2235C3.89534 8.21 3.8609 8.19697 3.82646 8.18254C3.81483 8.17742 3.80273 8.17184 3.79109 8.16672C3.75293 8.14996 3.71477 8.13321 3.67754 8.11506C3.66869 8.11087 3.65985 8.10622 3.65147 8.10203C3.61145 8.08248 3.57189 8.06247 3.53326 8.04153C3.52535 8.03734 3.51744 8.03268 3.50999 8.0285C3.4709 8.00662 3.43227 7.98475 3.39411 7.96148C3.38387 7.95543 3.3741 7.94891 3.36433 7.94286C3.32942 7.92099 3.29452 7.89912 3.26008 7.87585C3.24332 7.86468 3.22657 7.85211 3.20982 7.84048C3.18375 7.82186 3.15723 7.80371 3.13116 7.78463C3.09952 7.76089 3.06834 7.73623 3.03716 7.7111C3.02738 7.70319 3.01668 7.69574 3.0069 7.68736C2.92267 7.61802 2.84122 7.54449 2.76304 7.4663C2.68671 7.38998 2.61458 7.31086 2.54663 7.22895C2.14174 6.73796 1.8746 6.12923 1.80526 5.46232C1.80479 5.45953 1.80433 5.45627 1.80386 5.45348C1.79921 5.40554 1.79595 5.35714 1.79316 5.30874C1.79269 5.30036 1.7913 5.29245 1.7913 5.28407C1.78851 5.22823 1.78711 5.17145 1.78711 5.11467C1.78711 3.27962 3.28381 1.78711 5.12305 1.78711H6.42941ZM12.6289 28.8916C12.1361 28.8916 11.7354 28.4909 11.7354 27.998C11.7354 27.5052 12.1361 27.1045 12.6289 27.1045C13.1218 27.1045 13.5225 27.5052 13.5225 27.998C13.5225 28.4909 13.1218 28.8916 12.6289 28.8916ZM52.3027 13.999C52.7956 13.999 53.1963 14.3997 53.1963 14.8926C53.1963 15.3854 52.7956 15.7861 52.3027 15.7861C51.8099 15.7861 51.4092 15.3854 51.4092 14.8926C51.4092 14.3997 51.8099 13.999 52.3027 13.999ZM31.7789 10.2293L30.4991 11.3491L29.2197 10.2293H31.7789ZM37.9463 16.7002L30.4991 23.2157L23.0537 16.7002V7.20987L29.4575 12.8123C30.0514 13.3316 30.9472 13.3316 31.5411 12.8123L37.9463 7.2094V16.7002ZM52.1738 33.1211C51.1281 33.1211 50.2773 32.2704 50.2773 31.2246V23.6992C50.2773 22.6535 51.1281 21.8027 52.1738 21.8027H59.2129V33.1211H52.1738Z" fill="#697BDC"/>
<path d="M55.877 0H53.3154C52.8221 0 52.4219 0.399773 52.4219 0.893555C52.4219 1.38734 52.8221 1.78711 53.3154 1.78711H55.877C57.7162 1.78711 59.2129 3.27962 59.2129 5.11467V9.68018C58.3156 8.90948 57.1503 8.44223 55.877 8.44223H39.7334V6.75425C39.7334 6.1269 39.3783 5.57587 38.8063 5.31618C38.233 5.0565 37.5837 5.15237 37.1104 5.5661L33.8224 8.44223H27.1771L23.89 5.56657C23.4167 5.15237 22.767 5.0565 22.1941 5.31665C21.6222 5.57587 21.2666 6.12737 21.2666 6.75471V8.44223H8.21651V1.78711H49.4731C49.9665 1.78711 50.3667 1.38734 50.3667 0.893555C50.3667 0.399773 49.9665 0 49.4731 0H5.11467C2.29439 0 0 2.29439 0 5.11467V15.122C0 15.6153 0.400238 16.0156 0.893555 16.0156C1.38687 16.0156 1.78711 15.6153 1.78711 15.122V8.99698C1.80852 9.01513 1.83039 9.03235 1.85226 9.0505C1.86018 9.05701 1.86809 9.06353 1.87646 9.07005C1.93417 9.11752 1.99281 9.16405 2.05238 9.20873C2.05471 9.21059 2.0575 9.21246 2.05983 9.21432C2.52569 9.5629 3.04321 9.82724 3.59377 9.9985C3.59609 9.99897 3.59888 9.9999 3.60168 10.0008C3.67381 10.0232 3.74595 10.0436 3.81902 10.0627C3.83903 10.0678 3.85857 10.0725 3.87812 10.0772C3.93443 10.0911 3.99121 10.1046 4.04799 10.1167C4.07684 10.1228 4.1057 10.1283 4.13455 10.1339C4.18342 10.1432 4.23228 10.1521 4.28162 10.1605C4.31512 10.1656 4.34863 10.1712 4.38214 10.1758C4.42868 10.1828 4.47569 10.1884 4.52269 10.194C4.55713 10.1977 4.59157 10.2019 4.62647 10.2051C4.67813 10.2103 4.73026 10.214 4.78238 10.2172C4.81123 10.2191 4.84009 10.2214 4.86894 10.2228C4.95364 10.227 5.03788 10.2293 5.12305 10.2293H21.2666V13.999H12.6289C12.1356 13.999 11.7354 14.3993 11.7354 14.8926V25.471C10.6952 25.84 9.94824 26.8332 9.94824 27.998C9.94824 29.4761 11.1508 30.6787 12.6289 30.6787C14.107 30.6787 15.3096 29.4761 15.3096 27.998C15.3096 26.8332 14.5626 25.84 13.5225 25.471V15.7861H21.2666V16.7951C21.2666 17.2498 21.463 17.6831 21.806 17.9833L29.4571 24.6789C29.7544 24.9386 30.1268 25.0684 30.4991 25.0684C30.8718 25.0684 31.2442 24.9386 31.5411 24.6789L39.1945 17.9833C39.537 17.6831 39.7334 17.2503 39.7334 16.7951V15.7861H49.7757C50.1447 16.8263 51.1379 17.5732 52.3027 17.5732C53.7808 17.5732 54.9834 16.3707 54.9834 14.8926C54.9834 13.4145 53.7808 12.2119 52.3027 12.2119C51.1379 12.2119 50.1447 12.9589 49.7757 13.999H39.7334V10.2293H55.877C57.7162 10.2293 59.2129 11.7223 59.2129 13.5569V20.0156H52.1738C50.1424 20.0156 48.4902 21.6678 48.4902 23.6992V31.2246C48.4902 33.2561 50.1424 34.9082 52.1738 34.9082H59.2129V40.9928C59.2129 42.8273 57.7162 44.3203 55.877 44.3203H47.4738C47.4752 44.2212 47.4775 44.1221 47.4775 44.0225C47.4775 39.6096 45.7924 35.4285 42.7329 32.2499C42.3908 31.8943 41.8249 31.8836 41.4698 32.2261C41.1142 32.5682 41.1031 33.1337 41.4456 33.4892C44.183 36.3332 45.6904 40.0736 45.6904 44.0225C45.6904 52.3986 38.8761 59.2129 30.5 59.2129C22.1239 59.2129 15.3096 52.3986 15.3096 44.0225C15.3096 35.6463 22.1239 28.832 30.5 28.832C33.485 28.832 36.3737 29.6967 38.8538 31.3331C39.2657 31.6048 39.82 31.4913 40.0918 31.0794C40.3635 30.6675 40.25 30.1133 39.8381 29.8415C37.0648 28.012 33.8359 27.0449 30.5 27.0449C21.1386 27.0449 13.5225 34.6611 13.5225 44.0225C13.5225 44.1221 13.5243 44.2212 13.5262 44.3203H5.12305C3.28381 44.3203 1.78711 42.8278 1.78711 40.9928V19.0625C1.78711 18.5687 1.38687 18.1689 0.893555 18.1689C0.400238 18.1689 0 18.5687 0 19.0625V40.9928C0 43.813 2.29811 46.1074 5.12305 46.1074H13.6504C14.6818 54.4887 21.8446 61 30.5 61C39.1554 61 46.3182 54.4887 47.3496 46.1074H55.877C58.7019 46.1074 61 43.813 61 40.9928V5.11467C61 2.29439 58.7019 0 55.877 0ZM6.42941 1.78711V8.44176H5.11467C5.05929 8.44176 5.00437 8.44037 4.94992 8.43758C4.91734 8.43618 4.88523 8.43339 4.85265 8.4306C4.83078 8.4292 4.80891 8.4278 4.78703 8.42594C4.74561 8.42175 4.70466 8.41617 4.66324 8.41058C4.65021 8.40872 4.63718 8.40733 4.62368 8.40546C4.58366 8.39988 4.54363 8.39243 4.50407 8.38499C4.48965 8.38219 4.47522 8.37987 4.46079 8.37708C4.42496 8.37009 4.39005 8.36172 4.35468 8.35334C4.33607 8.34915 4.31699 8.34496 4.29837 8.34031C4.26905 8.33286 4.2402 8.32449 4.21088 8.31611C4.18668 8.30959 4.16201 8.30308 4.13828 8.29563C4.11501 8.28865 4.09267 8.28074 4.06986 8.27329C4.04008 8.26352 4.00983 8.25375 3.98051 8.24304C3.96375 8.23699 3.947 8.23001 3.93024 8.2235C3.89534 8.21 3.8609 8.19697 3.82646 8.18254C3.81483 8.17742 3.80273 8.17184 3.79109 8.16672C3.75293 8.14996 3.71477 8.13321 3.67754 8.11506C3.66869 8.11087 3.65985 8.10622 3.65147 8.10203C3.61145 8.08248 3.57189 8.06247 3.53326 8.04153C3.52535 8.03734 3.51744 8.03268 3.50999 8.0285C3.4709 8.00662 3.43227 7.98475 3.39411 7.96148C3.38387 7.95543 3.3741 7.94891 3.36433 7.94286C3.32942 7.92099 3.29452 7.89912 3.26008 7.87585C3.24332 7.86468 3.22657 7.85211 3.20982 7.84048C3.18375 7.82186 3.15723 7.80371 3.13116 7.78463C3.09952 7.76089 3.06834 7.73623 3.03716 7.7111C3.02738 7.70319 3.01668 7.69574 3.0069 7.68736C2.92267 7.61802 2.84122 7.54449 2.76304 7.4663C2.68671 7.38998 2.61458 7.31086 2.54663 7.22895C2.14174 6.73796 1.8746 6.12923 1.80526 5.46232C1.80479 5.45953 1.80433 5.45627 1.80386 5.45348C1.79921 5.40554 1.79595 5.35714 1.79316 5.30874C1.79269 5.30036 1.7913 5.29245 1.7913 5.28407C1.78851 5.22823 1.78711 5.17145 1.78711 5.11467C1.78711 3.27962 3.28381 1.78711 5.12305 1.78711H6.42941ZM12.6289 28.8916C12.1361 28.8916 11.7354 28.4909 11.7354 27.998C11.7354 27.5052 12.1361 27.1045 12.6289 27.1045C13.1218 27.1045 13.5225 27.5052 13.5225 27.998C13.5225 28.4909 13.1218 28.8916 12.6289 28.8916ZM52.3027 13.999C52.7956 13.999 53.1963 14.3997 53.1963 14.8926C53.1963 15.3854 52.7956 15.7861 52.3027 15.7861C51.8099 15.7861 51.4092 15.3854 51.4092 14.8926C51.4092 14.3997 51.8099 13.999 52.3027 13.999ZM31.7789 10.2293L30.4991 11.3491L29.2197 10.2293H31.7789ZM37.9463 16.7002L30.4991 23.2157L23.0537 16.7002V7.20987L29.4575 12.8123C30.0514 13.3316 30.9472 13.3316 31.5411 12.8123L37.9463 7.2094V16.7002ZM52.1738 33.1211C51.1281 33.1211 50.2773 32.2704 50.2773 31.2246V23.6992C50.2773 22.6535 51.1281 21.8027 52.1738 21.8027H59.2129V33.1211H52.1738Z" stroke="#697BDC" stroke-width="0.54" mask="url(#path-1-outside-1)"/>
<path d="M54.0898 24.0505C53.522 24.0505 53.0613 24.5107 53.0613 25.0791V29.8447C53.0613 30.4131 53.522 30.8733 54.0898 30.8733C54.6577 30.8733 55.1184 30.4131 55.1184 29.8447V25.0791C55.1184 24.5107 54.6577 24.0505 54.0898 24.0505Z" fill="#697BDC" stroke="#697BDC" stroke-width="0.27"/>
<path d="M27.0965 53.8506L27.0966 53.8506C27.5145 54.0029 27.7628 54.412 27.7302 54.8344C28.3242 54.9936 28.9385 55.1035 29.5683 55.1579C29.6821 54.7504 30.0555 54.4509 30.5 54.4509C30.9445 54.4509 31.3179 54.75 31.4317 55.1579C32.0615 55.1035 32.6758 54.9936 33.2698 54.8344C33.2372 54.412 33.4855 54.0029 33.9034 53.8506L33.9036 53.8505C34.3209 53.6992 34.7734 53.8522 35.0201 54.1956C35.585 53.931 36.1232 53.6186 36.6295 53.2632C36.4652 52.8811 36.5608 52.4214 36.8963 52.14C37.232 51.8582 37.7012 51.8443 38.0491 52.0723C38.4934 51.6292 38.8994 51.1474 39.2608 50.6323C38.9677 50.3297 38.8963 49.8586 39.1174 49.4755C39.3396 49.0904 39.7852 48.9174 40.1949 49.0217C40.4569 48.4619 40.6719 47.8758 40.8349 47.2684C40.4529 47.0857 40.2222 46.6655 40.2998 46.2278C40.3769 45.7901 40.7363 45.4746 41.1575 45.433C41.1845 45.1257 41.1983 44.8144 41.1983 44.5C41.1983 44.1858 41.1845 43.8747 41.1578 43.5674C40.7364 43.526 40.3768 43.2096 40.2998 42.7721C40.2223 42.3339 40.4531 41.9142 40.8349 41.7312C40.6723 41.1243 40.4574 40.5382 40.1954 39.9784C40.1168 39.9986 40.0367 40.0087 39.957 40.0087C39.6226 40.0087 39.2971 39.8354 39.1175 39.5246L39.1174 39.5245C38.8963 39.1409 38.9677 38.6702 39.2609 38.3673C38.9049 37.8604 38.5061 37.3856 38.0696 36.9481C37.9054 37.0621 37.7123 37.1207 37.5182 37.1207C37.2989 37.1207 37.0778 37.0465 36.8963 36.8942L36.8963 36.8942C36.5532 36.6061 36.4609 36.1318 36.6409 35.7449C36.1314 35.3861 35.5894 35.0707 35.0201 34.8039C34.838 35.0577 34.5441 35.2075 34.2344 35.2075C34.1243 35.2075 34.0128 35.1888 33.9035 35.149C33.4855 34.9971 33.2373 34.5876 33.2698 34.1656C32.6758 34.006 32.0615 33.8965 31.4316 33.8417C31.3175 34.2495 30.9443 34.5491 30.5 34.5491C30.0554 34.5491 29.6821 34.2496 29.5683 33.8417C28.9384 33.8965 28.3242 34.006 27.7302 34.1656C27.7627 34.5877 27.5141 34.9971 27.0965 35.149C27.0965 35.149 27.0965 35.149 27.0965 35.149L27.0503 35.0221C26.9562 35.0564 26.8598 35.0725 26.7652 35.0725C26.4627 35.0725 26.1775 34.9062 26.0312 34.6315L27.0965 53.8506ZM27.0965 53.8506C26.679 53.6987 26.2265 53.8522 25.9799 54.1957M27.0965 53.8506L25.9799 54.1957M21.8821 49.4755C21.66 49.0905 21.2145 48.9174 20.805 49.0217C20.5427 48.462 20.3277 47.8758 20.1647 47.2684C20.547 47.0857 20.7773 46.6655 20.7002 46.2279C20.6231 45.7901 20.2634 45.4747 19.8422 45.433C19.8154 45.1255 19.8012 44.8142 19.8012 44.5C19.8012 44.1859 19.8154 43.8747 19.8422 43.5674C20.2634 43.5257 20.6227 43.2094 20.7002 42.7723L20.7002 42.7721C20.7773 42.334 20.547 41.9142 20.1647 41.7312C20.3276 41.1242 20.5422 40.5382 20.8044 39.9786C20.8832 39.9989 20.9634 40.0087 21.043 40.0087C21.377 40.0087 21.7025 39.8353 21.8821 39.5246L21.8821 39.5246C22.1038 39.1409 22.0319 38.6701 21.7387 38.3673C22.0947 37.8604 22.4935 37.3855 22.93 36.9481C23.0942 37.0621 23.2874 37.1207 23.4818 37.1207C23.7011 37.1207 23.9222 37.0465 24.1037 36.8942L24.1038 36.8941C24.4464 36.6061 24.5391 36.1319 24.3587 35.7448C24.8686 35.3862 25.4105 35.0707 25.9798 34.804L21.7652 49.543M21.8821 49.4755L21.7652 49.543M21.8821 49.4755C21.8821 49.4755 21.8821 49.4755 21.8821 49.4754L21.7652 49.543M21.8821 49.4755C22.1037 49.8591 22.0319 50.3298 21.7387 50.6323M21.7652 49.543C21.9748 49.9058 21.8793 50.3598 21.5603 50.612M21.7387 50.6323C21.7162 50.6002 21.6939 50.568 21.6717 50.5356L21.5603 50.612M21.7387 50.6323C22.1002 51.1474 22.5061 51.6292 22.9508 52.0723M21.7387 50.6323C21.7094 50.6626 21.6778 50.6912 21.644 50.7179L21.5603 50.612M21.5603 50.612L22.9508 52.0723M22.9508 52.0723C22.9162 52.095 22.8828 52.1201 22.8508 52.1476L22.9388 52.25L23.0331 52.1534C23.0055 52.1265 22.9781 52.0995 22.9508 52.0723ZM22.9508 52.0723C23.2986 51.8443 23.7681 51.8582 24.1037 52.14L24.0169 52.2435L24.1038 52.1401L22.9508 52.0723ZM25.9799 54.1957C25.4146 53.931 24.8764 53.6186 24.3703 53.2632L25.9799 54.1957ZM19.5579 38.182L19.5579 38.182L19.5573 38.183C19.5485 38.1983 19.5398 38.2162 19.5339 38.2282C19.533 38.23 19.5322 38.2317 19.5315 38.2333C18.4714 40.0813 17.865 42.2211 17.865 44.5C17.865 46.7789 18.4714 48.9187 19.5315 50.7667C19.5322 50.7683 19.533 50.7699 19.5339 50.7718C19.5398 50.7837 19.5485 50.8017 19.5573 50.817L19.5581 50.8184C19.5653 50.8306 19.5725 50.841 19.5777 50.8485C19.5794 50.8509 19.5808 50.8529 19.5821 50.8547C19.5844 50.858 19.5861 50.8604 19.5877 50.8628C20.2932 52.0679 21.1918 53.1464 22.242 54.0553C22.2816 54.1053 22.327 54.1528 22.3782 54.196L22.3785 54.1963C22.4299 54.2394 22.484 54.2739 22.5373 54.3026C24.7121 56.0721 27.4841 57.135 30.5 57.135C33.516 57.135 36.2885 56.072 38.4629 54.3024C38.5154 54.2738 38.5698 54.2397 38.6215 54.1963L38.6218 54.196C38.673 54.1528 38.7184 54.1053 38.758 54.0553C39.8082 53.1464 40.7068 52.0679 41.4123 50.8628C41.4147 50.8592 41.4174 50.8555 41.4223 50.8485C41.4275 50.841 41.4347 50.8306 41.4419 50.8184L41.4419 50.8185L41.4435 50.8156C41.4518 50.8006 41.4597 50.7846 41.4657 50.7725C41.4667 50.7705 41.4676 50.7686 41.4685 50.7668C42.5286 48.9188 43.135 46.7789 43.135 44.5C43.135 42.2213 42.5287 40.0817 41.4688 38.2338C41.4686 38.2333 41.4683 38.2327 41.4681 38.2322C41.4615 38.2187 41.4528 38.2006 41.4427 38.183L41.4421 38.182C41.4283 38.1583 41.4136 38.1364 41.4001 38.117C39.2035 34.3801 35.1405 31.865 30.5 31.865C25.8593 31.865 21.7961 34.3803 19.5996 38.1175C19.5871 38.1357 19.5719 38.1579 19.5579 38.182Z" fill="#697BDC" stroke="#697BDC" stroke-width="0.27"/>
<path d="M29.255 42.2947C29.255 41.5737 29.8135 40.9963 30.4905 40.9906C30.4936 40.9908 30.4969 40.991 30.5004 40.991C30.5039 40.991 30.5072 40.9908 30.5102 40.9906C31.1866 40.9964 31.745 41.5741 31.745 42.2947C31.745 42.7925 32.1488 43.1963 32.6467 43.1963C33.1445 43.1963 33.5483 42.7925 33.5483 42.2947C33.5483 40.9021 32.6452 39.7201 31.4021 39.327V39.2867C31.4021 38.7884 30.9982 38.385 30.5004 38.385C30.0022 38.385 29.5987 38.7885 29.5987 39.2867V39.3266C28.3552 39.7197 27.4517 40.9021 27.4517 42.2947C27.4517 44.0054 28.8165 45.4021 30.5 45.4021C31.1813 45.4021 31.745 45.9816 31.745 46.7058C31.745 47.4301 31.1812 48.0099 30.5 48.0099C29.8188 48.0099 29.255 47.4301 29.255 46.7058C29.255 46.2075 28.8511 45.8041 28.3533 45.8041C27.8556 45.8041 27.4517 46.2075 27.4517 46.7058C27.4517 48.0983 28.3552 49.2808 29.5987 49.6739V49.7134C29.5987 50.2116 30.0022 50.615 30.5004 50.615C30.9982 50.615 31.4021 50.2116 31.4021 49.7134V49.6734C32.6451 49.28 33.5483 48.0979 33.5483 46.7058C33.5483 44.995 32.1835 43.5988 30.5 43.5988C29.8188 43.5988 29.255 43.0189 29.255 42.2947Z" fill="#697BDC" stroke="#697BDC" stroke-width="0.27"/>
</g>
<defs>
<clipPath id="clip0">
<rect width="61" height="61" fill="white"/>
</clipPath>
</defs>
</svg>
